<svg width="226" height="410" viewBox="0 0 226 410" fill="none" xmlns="http://www.w3.org/2000/svg">
<path d="M54.8723 271.899C52.6294 271.452 50.4226 270.888 48.2834 270.071C47.3444 269.713 46.4304 269.297 45.4735 268.985C44.629 268.71 43.5654 268.69 42.9917 267.971C41.3399 265.904 38.2862 266.829 37.7935 268.993C33.1831 275.521 30.821 283.622 31.2674 291.607C31.3233 292.612 31.4271 293.635 31.8247 294.56C32.2224 295.485 32.9588 296.312 33.9253 296.593L33.9659 296.362C34.0662 296.934 34.2732 297.466 34.6853 297.896C35.5665 298.814 37.2579 299.04 38.0527 298.046L38.0483 298.019C38.1704 298.458 38.3335 298.885 38.5598 299.279C39.0656 300.16 39.9969 300.864 41.0117 300.825C42.0265 300.785 43.2436 299.338 43.0163 298.348L42.8073 297.486C43.0872 298.342 43.482 299.149 44.089 299.806C44.3897 300.131 44.7564 300.354 45.1564 300.488C46.5134 300.942 47.8467 299.773 47.6503 298.355C46.816 292.328 47.9461 286.164 50.5712 280.638L51.9152 286.505C52.1685 287.611 52.5917 288.913 53.8193 289.055C54.3149 289.113 54.8125 288.925 55.1932 288.602C56.0194 287.9 56.2606 286.851 56.4411 285.84C57.0173 282.611 57.1654 279.308 56.8913 276.04C57.0028 275.809 57.1003 275.565 57.1654 275.292C57.5321 273.764 56.3547 272.194 54.8723 271.899Z" fill="#F6E2D7"/>
<path d="M45.7574 302.276C45.3771 302.276 44.994 302.215 44.6205 302.09C43.929 301.859 43.333 301.476 42.8485 300.952C41.5456 299.543 41.0452 297.709 40.7552 296.269C40.0656 292.846 40.6944 288.89 41.3376 285.45C41.5089 284.533 42.3896 283.926 43.3084 284.1C44.2253 284.271 44.8294 285.154 44.6581 286.071C44.0732 289.199 43.4971 292.773 44.067 295.601C44.2697 296.609 44.5968 297.866 45.3293 298.659C45.4249 298.762 45.5431 298.836 45.6922 298.886C45.725 298.896 45.7926 298.919 45.879 298.848C45.9239 298.81 45.9972 298.727 45.9779 298.587C45.1214 292.398 46.182 285.941 49.0465 279.912C49.3553 279.263 50.0449 278.882 50.7557 278.958C51.4704 279.037 52.0577 279.559 52.2179 280.26L53.5618 286.127C53.765 287.014 53.945 287.288 54.0159 287.367C54.0367 287.357 54.067 287.341 54.0998 287.314C54.4569 287.01 54.6191 286.435 54.7783 285.542C55.5012 281.494 55.5278 277.384 54.8575 273.326C54.7055 272.406 55.3284 271.536 56.2487 271.384C57.1684 271.231 58.0381 271.855 58.1901 272.776C58.9231 277.214 58.8936 281.709 58.1032 286.136C57.8783 287.397 57.5333 288.83 56.2859 289.889C55.5268 290.534 54.5568 290.841 53.6241 290.733C51.0834 290.439 50.4701 287.762 50.2683 286.882L50.1747 286.472C49.0885 290.343 48.7932 294.295 49.323 298.122C49.4987 299.389 49.0171 300.631 48.036 301.447C47.3802 301.992 46.5763 302.276 45.7574 302.276Z" fill="#1F404D"/>
<path d="M40.9362 302.516C39.433 302.516 37.9381 301.589 37.0955 300.121C36.4928 299.072 36.1511 297.788 36.1072 296.408C35.9397 291.182 36.7398 287.492 37.8029 283.212C38.0278 282.306 38.9437 281.754 39.8494 281.979C40.7547 282.204 41.3063 283.12 41.0815 284.026C40.0821 288.049 39.3302 291.507 39.4832 296.299C39.5098 297.128 39.697 297.867 40.0251 298.438C40.2432 298.818 40.6003 299.105 40.8826 299.135C41.0457 299.046 41.2827 298.772 41.3468 298.598C41.2165 297.733 41.7729 296.901 42.6391 296.702C43.5468 296.491 44.4546 297.061 44.663 297.97C44.8763 298.9 44.594 299.963 43.888 300.886C43.1391 301.865 42.0885 302.474 41.078 302.513C41.0303 302.515 40.983 302.516 40.9362 302.516Z" fill="#1F404D"/>
<path d="M36.5804 300.384C35.4189 300.384 34.267 299.9 33.4669 299.067C32.0279 297.569 32.1548 295.477 32.2306 294.228C32.482 290.081 33.1923 286.623 34.4156 281.692C34.6405 280.786 35.5588 280.234 36.4617 280.459C37.3669 280.684 37.919 281.6 37.6942 282.505C36.5191 287.242 35.8378 290.545 35.6023 294.433C35.5449 295.375 35.5212 296.329 35.9029 296.726C36.1644 296.999 36.6359 297.045 36.7464 296.979C37.3293 296.25 38.3862 296.138 39.1139 296.721C39.842 297.305 39.954 298.373 39.371 299.102C38.75 299.878 37.8254 300.333 36.7681 300.38C36.7058 300.383 36.6431 300.384 36.5804 300.384Z" fill="#1F404D"/>
<path d="M33.9252 298.283C33.7688 298.283 33.6101 298.261 33.4528 298.215C32.0755 297.814 30.916 296.725 30.2727 295.227C29.7728 294.064 29.6444 292.845 29.5803 291.701C29.0716 282.6 32.0562 273.307 37.7698 266.205C38.3546 265.478 39.4182 265.364 40.1445 265.949C40.8712 266.534 40.986 267.597 40.4012 268.324C35.205 274.783 32.49 283.235 32.9528 291.513C33.0069 292.476 33.0996 293.25 33.3756 293.893C33.612 294.444 34.0034 294.857 34.3962 294.971C35.2918 295.232 35.8067 296.169 35.5456 297.066C35.3314 297.804 34.6567 298.283 33.9252 298.283Z" fill="#1F404D"/>
<path d="M1.78426 128.741C2.54525 107.787 7.84812 86.7858 16.2379 68.2746C30.8653 36.001 55.7982 6.73231 93.0509 2.2171C110.677 0.0806518 128.223 4.64895 143.239 13.9482C168.208 29.4107 180.533 59.2823 191.283 85.5366C198.981 104.337 206.678 123.139 214.377 141.94C218.393 151.748 222.477 161.911 222.219 172.507C222.022 180.57 219.282 188.41 215.418 195.488C187.664 246.324 115.562 257.832 65.9986 236.25C40.0383 224.945 19.4966 203.922 9.32957 177.4C3.44908 162.062 1.17864 145.416 1.78426 128.741Z" fill="#5F0A87"/>
<path d="M65.3241 237.799C52.1386 232.057 40.4307 223.951 30.5276 213.706C20.5328 203.367 12.8703 191.355 7.7532 178.005C2.02666 163.067 -0.549244 146.471 0.0973871 128.68C0.843908 108.139 5.8934 87.0099 14.7006 67.5772C22.8438 49.6095 33.0403 34.8146 45.0064 23.6039C59.0508 10.4454 75.1471 2.68539 92.8488 0.540257C110.33 -1.57881 128.062 2.56135 144.129 12.5118C169.691 28.3411 181.993 58.387 192.847 84.8961L215.941 141.3C219.803 150.732 224.18 161.423 223.909 172.548C223.724 180.131 221.366 188.121 216.902 196.298C203.802 220.293 179.785 237.472 149.276 244.671C138.945 247.108 128.278 248.311 117.661 248.311C99.4001 248.311 81.293 244.753 65.3241 237.799ZM93.2542 3.89455C50.9202 9.02521 27.7939 46.8702 17.7765 68.9722C9.14925 88.0077 4.20301 108.697 3.47289 128.802C2.84267 146.137 5.34375 162.284 10.9062 176.796C20.8832 202.821 40.6879 223.385 66.6723 234.7C82.2711 241.493 100.089 245.003 118.028 245.002C156.362 244.999 195.215 228.966 213.935 194.678C218.139 186.978 220.358 179.505 220.53 172.465C220.784 162.048 216.55 151.705 212.813 142.58L189.72 86.1763C179.061 60.1431 166.979 30.6364 142.35 15.3844C129.558 7.46227 115.687 3.37903 101.783 3.37903C98.9392 3.37951 96.0917 3.55087 93.2542 3.89455Z" fill="#1F404D"/>
<path d="M182.285 93.4032C183.285 101.448 183.696 109.551 183.144 117.667C181.947 135.267 175.695 154.291 162.263 166.407C148.969 178.4 130.731 183.51 113.105 183.397C112.033 183.39 110.96 183.363 109.889 183.318C91.6402 182.549 73.4313 176.932 56.7781 169.65C43.1713 163.7 29.981 154.917 21.9194 142.168C9.12185 121.93 13.9065 98.1105 22.4811 77.2543C29.3865 60.4582 39.6935 42.8323 53.7949 31.1914C62.3883 24.0971 72.6312 18.8621 83.5877 16.8367C97.8073 14.2084 112.321 17.068 125.931 21.3076C138.785 25.3121 151.053 30.5064 160.668 40.2484C175.232 55.0061 179.807 73.4694 182.285 93.4032Z" fill="#2F004F" fill-opacity="0.72"/>
<path d="M121.211 301.452C122.201 329.253 129.498 357.363 136.897 383.692C152.356 385.983 167.878 385.869 183.502 385.544C178.776 383.772 173.556 381.115 168.829 379.343C167.048 355.744 165.266 332.15 163.487 308.552L121.211 301.452Z" fill="#F6E2D7"/>
<path d="M165.788 339.058C151.554 331.218 137.07 323.83 122.367 316.908C121.787 311.74 121.39 306.582 121.211 301.452L163.487 308.552C164.253 318.719 165.022 328.891 165.788 339.058Z" fill="#E8C5B3"/>
<path d="M136.447 385.32C135.882 385.164 135.432 384.723 135.27 384.149C128.166 358.912 120.505 329.633 119.523 301.511C119.49 300.578 120.219 299.796 121.151 299.763C122.083 299.729 122.865 300.46 122.898 301.393C123.854 328.75 131.259 357.37 138.225 382.175C150.553 383.913 162.925 384.143 175.488 383.99C175.484 383.989 175.479 383.986 175.475 383.985C173.054 382.906 170.551 381.792 168.236 380.924C167.62 380.693 167.194 380.125 167.145 379.469L161.802 308.678C161.732 307.748 162.429 306.936 163.359 306.866C164.289 306.795 165.1 307.494 165.17 308.424L170.433 378.149C172.538 378.978 174.725 379.952 176.849 380.898C179.272 381.978 181.778 383.093 184.094 383.961C184.853 384.245 185.303 385.028 185.167 385.827C185.031 386.626 184.347 387.216 183.537 387.232C167.698 387.562 152.195 387.666 136.648 385.362C136.58 385.352 136.513 385.338 136.447 385.32Z" fill="#1F404D"/>
<path d="M113.531 301.452C112.541 329.253 105.244 357.363 97.8454 383.692C82.3861 385.983 66.8641 385.869 51.2402 385.544C55.9664 383.772 61.1863 381.115 65.913 379.343C67.6936 355.744 69.4753 332.15 71.2554 308.552L113.531 301.452Z" fill="#F6E2D7"/>
<path d="M68.9531 339.058C83.1872 331.218 97.6712 323.83 112.374 316.908C112.954 311.74 113.352 306.582 113.531 301.452L71.2549 308.552C70.4886 318.719 69.7199 328.891 68.9531 339.058Z" fill="#E8C5B3"/>
<path d="M98.2942 385.32C98.8593 385.164 99.31 384.723 99.4712 384.149C106.575 358.912 114.237 329.633 115.219 301.511C115.252 300.578 114.523 299.796 113.59 299.763C112.659 299.729 111.876 300.46 111.844 301.393C110.888 328.75 103.483 357.37 96.517 382.175C84.189 383.913 71.8166 384.143 59.2537 383.99C59.2575 383.989 59.2623 383.986 59.2662 383.985C61.6877 382.906 64.1907 381.792 66.5056 380.924C67.1218 380.693 67.5479 380.125 67.5971 379.469L72.9395 308.678C73.01 307.748 72.3127 306.936 71.3823 306.866C70.4524 306.795 69.6412 307.494 69.5713 308.424L64.3089 378.149C62.2035 378.978 60.0171 379.952 57.8923 380.898C55.4694 381.978 52.9634 383.093 50.6472 383.961C49.8886 384.245 49.4389 385.028 49.5749 385.827C49.711 386.626 50.3948 387.216 51.2045 387.232C67.0431 387.562 82.5468 387.666 98.0935 385.362C98.161 385.352 98.2286 385.338 98.2942 385.32Z" fill="#1F404D"/>
<path d="M172.501 303.564C158.99 310.804 135.827 314.183 120.867 313.701C120.501 310.027 120.042 306.301 119.594 302.516C118.855 296.362 118.131 290.067 117.813 283.686C117.576 289.884 117.017 296.149 116.529 302.401C116.225 306.33 115.95 310.249 115.801 314.145C98.6117 316.505 81.2975 314.183 64.8904 308.874C64.6202 302.077 64.8953 295.479 65.6577 288.996C67.2791 275.176 71.1106 261.902 76.5781 248.473C76.5781 248.473 104.045 249.245 113.204 248.54C122.6 247.816 150.786 242.743 150.786 242.743C159.318 259.623 166.522 277.45 170.861 295.874C171.464 298.428 172.014 300.991 172.501 303.564Z" fill="#7A94A1"/>
<path d="M102.506 301.088C107.163 301.734 111.839 302.169 116.529 302.4C116.225 306.33 115.95 310.249 115.801 314.145C98.6117 316.505 81.2975 314.183 64.8904 308.874C64.6202 302.077 64.8953 295.478 65.6577 288.996C76.607 295.652 89.6892 299.306 102.506 301.088Z" fill="#5D7D89"/>
<path d="M172.502 303.564C158.99 310.804 135.827 314.183 120.868 313.701C120.501 310.027 120.043 306.301 119.594 302.516C136.884 303.033 154.251 300.75 170.861 295.874C171.464 298.428 172.014 300.991 172.502 303.564Z" fill="#5D7D89"/>
<path d="M102.113 316.757C89.9203 316.757 77.2801 314.659 64.3697 310.481C63.696 310.263 63.2299 309.648 63.2019 308.941C62.4095 289.001 66.1619 269.583 75.0101 247.834C75.3619 246.97 76.3463 246.555 77.2116 246.906C78.0753 247.258 78.4908 248.244 78.1395 249.108C69.6547 269.964 65.9564 288.595 66.5359 307.625C83.0361 312.813 99.0484 314.503 114.171 312.651C114.383 308.029 114.759 303.335 115.122 298.781C115.521 293.792 115.934 288.633 116.126 283.623C116.16 282.719 116.9 282.003 117.805 281.998C117.808 281.998 117.811 281.998 117.814 281.998C118.714 281.998 119.456 282.704 119.501 283.604C119.834 290.344 120.637 297.045 121.414 303.526C121.75 306.332 122.096 309.218 122.395 312.046C136.737 312.263 157.684 309.119 170.602 302.645C166.917 283.948 159.935 264.587 149.278 243.505C148.857 242.673 149.19 241.657 150.023 241.235C150.854 240.814 151.871 241.148 152.292 241.981C163.328 263.813 170.481 283.854 174.16 303.249C174.297 303.974 173.949 304.705 173.298 305.053C159.545 312.423 135.994 315.88 120.812 315.389C119.965 315.362 119.271 314.712 119.186 313.869C118.868 310.681 118.489 307.513 118.088 304.168C117.837 307.519 117.613 310.896 117.486 314.208C117.455 315.028 116.839 315.706 116.028 315.817C111.464 316.444 106.821 316.757 102.113 316.757Z" fill="#1F404D"/>
<path d="M181.663 206.577C181.663 206.727 181.663 206.876 181.658 207.021C181.648 207.764 181.615 208.503 181.561 209.237C181.547 209.459 181.528 209.676 181.504 209.898C181.465 210.328 181.417 210.752 181.359 211.177C181.33 211.399 181.296 211.626 181.257 211.843C181.224 212.041 181.19 212.239 181.151 212.437C181.113 212.645 181.069 212.852 181.026 213.055C181.026 213.074 181.021 213.098 181.011 213.122C180.973 213.306 180.929 213.489 180.881 213.673C180.789 214.049 180.683 214.411 180.572 214.778C180.563 214.817 180.553 214.851 180.538 214.884C180.485 215.044 180.432 215.203 180.379 215.362C180.355 215.439 180.326 215.512 180.297 215.589C180.234 215.758 180.172 215.922 180.104 216.091C180.032 216.274 179.955 216.458 179.872 216.641C179.795 216.815 179.713 216.989 179.631 217.158C179.607 217.216 179.578 217.269 179.549 217.322C179.448 217.52 179.347 217.718 179.236 217.916C179.096 218.167 178.951 218.413 178.792 218.654C178.637 218.9 178.473 219.137 178.304 219.373C178.198 219.518 178.087 219.663 177.976 219.803C177.88 219.924 177.783 220.044 177.682 220.16C177.551 220.315 177.411 220.469 177.271 220.619C177.151 220.749 177.025 220.879 176.895 221.005C176.75 221.145 176.606 221.28 176.456 221.415C176.306 221.55 176.157 221.681 176.002 221.806C175.848 221.932 175.689 222.057 175.529 222.178C175.37 222.299 175.206 222.414 175.042 222.525C174.878 222.641 174.709 222.752 174.54 222.859C174.405 222.941 174.27 223.023 174.13 223.105C174.043 223.158 173.956 223.206 173.865 223.259C173.715 223.341 173.565 223.418 173.411 223.501C173.261 223.578 173.112 223.65 172.957 223.723L172.953 223.727C172.948 223.727 172.948 223.727 172.943 223.732C172.9 223.747 172.851 223.771 172.808 223.79C172.653 223.863 172.494 223.925 172.34 223.993C172.171 224.065 171.997 224.133 171.828 224.196C171.577 224.292 171.322 224.379 171.066 224.461C170.935 224.505 170.81 224.543 170.68 224.577C170.419 224.654 170.159 224.722 169.893 224.785C169.758 224.814 169.628 224.842 169.493 224.871C169.353 224.9 169.208 224.929 169.063 224.953C168.909 224.982 168.754 225.007 168.6 225.031C168.474 225.05 168.354 225.065 168.228 225.079C168.113 225.093 167.997 225.108 167.886 225.118C167.76 225.132 167.635 225.142 167.509 225.151C167.365 225.161 167.22 225.171 167.07 225.18C166.94 225.185 166.805 225.19 166.67 225.195H166.66C164.913 225.233 163.161 224.978 161.511 224.403C160.811 224.162 160.141 223.867 159.489 223.525C159.369 223.462 159.248 223.394 159.132 223.332C158.968 223.24 158.804 223.143 158.645 223.047C158.495 222.96 158.35 222.863 158.206 222.772C158.012 222.646 157.82 222.516 157.631 222.381C157.506 222.289 157.39 222.202 157.269 222.11C156.772 221.734 156.299 221.328 155.846 220.894C155.764 220.812 155.682 220.735 155.6 220.653C155.465 220.522 155.339 220.387 155.214 220.252C154.567 219.567 153.973 218.823 153.447 218.041C153.221 218.215 152.975 218.34 152.709 218.427H152.704C152.714 219.262 152.719 220.102 152.719 220.937V221.415C152.724 221.575 152.719 221.734 152.714 221.898C152.719 222.27 152.714 222.641 152.709 223.013C152.704 223.476 152.7 223.935 152.69 224.398C152.685 224.905 152.675 225.417 152.661 225.929C152.651 226.484 152.637 227.039 152.617 227.599C152.603 228.202 152.589 228.805 152.564 229.409C152.516 230.765 152.458 232.122 152.391 233.483C152.367 234.062 152.338 234.646 152.309 235.23C152.265 236.109 152.217 236.982 152.164 237.861C152.154 238.035 152.145 238.204 152.13 238.373C152.106 238.846 152.077 239.319 152.043 239.792C152.014 240.265 151.981 240.743 151.952 241.216C151.889 242.162 151.826 243.113 151.759 244.069C151.479 244.141 151.194 244.218 150.914 244.291C150.909 244.291 150.909 244.291 150.904 244.291C150.9 244.291 150.9 244.291 150.9 244.291C150.417 244.421 149.934 244.542 149.447 244.662C148.984 244.783 148.521 244.894 148.057 245.005C147.546 245.135 147.034 245.256 146.523 245.372C146.035 245.488 145.548 245.599 145.061 245.71C144.573 245.821 144.086 245.932 143.594 246.033C143.106 246.144 142.614 246.246 142.122 246.347C141.654 246.448 141.181 246.545 140.713 246.637C140.148 246.752 139.579 246.863 139.014 246.97C138.551 247.061 138.092 247.148 137.629 247.23C137.359 247.283 137.084 247.332 136.814 247.38C135.627 247.592 134.439 247.795 133.248 247.983C132.755 248.065 132.258 248.143 131.761 248.215C131.148 248.307 130.536 248.398 129.923 248.485C129.701 248.519 129.474 248.548 129.252 248.582C128.6 248.669 127.949 248.756 127.298 248.838C126.936 248.886 126.574 248.929 126.217 248.973C125.71 249.036 125.203 249.094 124.697 249.151C122.419 249.407 120.146 249.624 117.863 249.798C117.516 249.827 117.169 249.851 116.821 249.875C115.885 249.943 114.949 250.006 114.017 250.054C113.506 250.083 112.994 250.112 112.488 250.136C111.928 250.165 111.373 250.189 110.818 250.209C109.814 250.247 108.811 250.281 107.812 250.305C107.281 250.32 106.755 250.329 106.224 250.334C105.828 250.344 105.433 250.349 105.037 250.349C104.463 250.353 103.884 250.358 103.305 250.358C101.061 250.358 98.8168 250.32 96.5729 250.238C94.3338 250.16 92.0947 250.04 89.8557 249.88C88.1763 249.764 86.5019 249.62 84.8274 249.456C83.7079 249.345 82.5931 249.224 81.4784 249.098C80.9476 249.036 80.4168 248.973 79.8812 248.905C79.2683 248.828 78.6506 248.746 78.0378 248.664C77.5166 248.596 76.9954 248.524 76.4743 248.447C76.4694 247.597 76.4646 246.748 76.4743 245.908C76.4743 245.719 76.4791 245.531 76.4791 245.348V245.266C76.4839 244.889 76.4888 244.513 76.4984 244.136C76.4984 243.929 76.5033 243.721 76.5129 243.518C76.5177 243.171 76.5273 242.823 76.537 242.485C76.537 242.423 76.537 242.355 76.5418 242.292C76.3391 242.674 76.1316 243.055 75.929 243.431C74.8094 245.522 73.6995 247.568 72.6041 249.586C71.6245 251.391 70.6546 253.172 69.6847 254.944C67.9667 258.096 66.2633 261.214 64.5406 264.371C63.6044 266.089 62.6634 267.822 61.7128 269.575C60.5498 271.723 59.3723 273.9 58.1804 276.13C49.6246 273.349 43.25 268.793 35.1768 264.83C35.7896 263.41 36.4073 261.996 37.0201 260.577C37.7826 258.82 38.545 257.058 39.3123 255.301C40.4463 252.68 41.5852 250.059 42.724 247.438C43.4865 245.666 44.2586 243.895 45.0258 242.123C45.7979 240.347 46.57 238.566 47.3373 236.789C48.1094 235.013 48.8815 233.232 49.6536 231.455C50.6573 229.143 51.6562 226.831 52.6647 224.519C53.4224 222.762 54.1896 221 54.9521 219.243C55.6277 217.684 56.3032 216.125 56.9788 214.566C57.7219 212.847 58.4699 211.134 59.2179 209.415C59.99 207.629 60.7621 205.848 61.539 204.062C62.3111 202.281 63.0832 200.5 63.8553 198.719C64.7673 196.609 65.6842 194.505 66.6011 192.395C66.8713 191.763 67.1464 191.13 67.4214 190.498C67.904 189.383 68.3866 188.268 68.8884 187.158C70.2155 184.194 71.639 181.278 73.3907 178.57C73.7623 177.996 74.1483 177.431 74.5488 176.876C74.8722 176.432 75.2051 175.993 75.5526 175.568C75.6732 175.418 75.7938 175.274 75.9193 175.124C76.0785 174.936 76.2378 174.747 76.4019 174.564C76.5901 174.347 76.7831 174.134 76.981 173.927C77.145 173.748 77.3139 173.574 77.4876 173.401C77.6227 173.261 77.7627 173.126 77.9026 172.986C77.9364 172.952 77.975 172.918 78.0088 172.889C78.1681 172.735 78.3225 172.585 78.4866 172.44C78.7037 172.237 78.9257 172.044 79.1477 171.861C79.3407 171.692 79.5337 171.533 79.7315 171.378C79.8811 171.253 80.0356 171.132 80.19 171.021C80.3879 170.871 80.5857 170.727 80.7836 170.582C81.3868 170.152 82.0044 169.756 82.6462 169.394C82.6462 169.394 82.6462 169.389 82.6511 169.389C82.8634 169.274 83.0757 169.158 83.2928 169.047C83.2928 169.042 83.2977 169.042 83.2977 169.037C83.4087 168.825 83.5438 168.617 83.6982 168.439C84.1711 167.893 84.7164 167.531 85.3148 167.299C86.6901 166.759 88.326 166.918 89.9474 167.135C90.4492 167.029 90.9511 166.976 91.453 166.966C91.7425 166.957 92.032 166.966 92.3215 166.986C105.249 165.301 118.09 162.535 130.912 160.223C130.946 160.218 130.979 160.218 131.013 160.213L130.854 160.093C131.588 160.03 132.384 160.006 133.223 160.02C133.368 160.02 133.518 160.025 133.663 160.03H133.831C133.928 160.02 134.015 160.02 134.106 160.03C134.174 160.03 134.232 160.039 134.295 160.049H134.328C134.357 160.054 134.382 160.054 134.406 160.059C135.752 160.131 137.18 160.276 138.604 160.513C138.855 160.551 139.106 160.595 139.357 160.643C139.574 160.682 139.786 160.725 139.999 160.773C140.327 160.841 140.655 160.913 140.978 160.99C141.022 160.995 141.06 161.005 141.099 161.019C141.369 161.087 141.639 161.155 141.909 161.227C142.064 161.266 142.218 161.309 142.368 161.357C142.522 161.396 142.672 161.439 142.817 161.488C143.005 161.546 143.193 161.603 143.376 161.666C143.743 161.787 144.105 161.917 144.457 162.048C144.636 162.115 144.81 162.183 144.983 162.255C145.118 162.308 145.254 162.366 145.389 162.429C145.514 162.482 145.64 162.54 145.765 162.598C145.905 162.661 146.04 162.728 146.175 162.796C146.306 162.858 146.431 162.921 146.552 162.989C146.677 163.052 146.798 163.119 146.918 163.187C147.039 163.254 147.155 163.322 147.271 163.394C147.444 163.496 147.613 163.602 147.777 163.713C147.941 163.819 148.096 163.93 148.25 164.046C148.438 164.186 148.622 164.331 148.805 164.48C148.96 164.596 149.109 164.722 149.259 164.852C149.351 164.924 149.442 165.002 149.534 165.089C149.635 165.171 149.732 165.258 149.833 165.349C150.041 165.533 150.243 165.721 150.441 165.914C150.456 165.924 150.465 165.933 150.475 165.943C150.692 166.151 150.9 166.363 151.107 166.575C151.122 166.59 151.131 166.599 151.146 166.614C151.344 166.817 151.537 167.024 151.73 167.237C151.759 167.266 151.783 167.299 151.812 167.328C152.014 167.55 152.217 167.782 152.41 168.014C152.574 168.197 152.728 168.39 152.888 168.583C152.912 168.612 152.941 168.646 152.965 168.68C153.187 168.955 153.404 169.23 153.621 169.51C153.805 169.747 153.983 169.988 154.157 170.229C154.205 170.292 154.253 170.36 154.297 170.422C154.514 170.722 154.726 171.026 154.939 171.33C155.711 172.435 156.435 173.574 157.144 174.723C157.4 175.134 157.651 175.549 157.902 175.959C158.239 176.519 158.567 177.074 158.871 177.62C158.915 177.692 158.958 177.764 158.997 177.837C159.142 177.972 159.277 178.126 159.383 178.31L160.334 179.888C160.425 179.966 160.512 180.048 160.599 180.144C161.251 180.858 161.81 181.607 162.288 182.403C162.51 182.775 162.717 183.156 162.901 183.547C162.901 183.552 162.906 183.552 162.906 183.557C164.435 183.938 165.955 184.353 167.471 184.807C167.823 184.913 168.175 185.019 168.532 185.135C168.88 185.241 169.227 185.352 169.579 185.468C169.589 185.468 169.594 185.468 169.604 185.473C169.734 185.517 169.864 185.555 169.995 185.603C170.284 185.7 170.574 185.797 170.863 185.893C171.616 186.144 172.364 186.405 173.112 186.68C174.048 187.013 174.984 187.365 175.916 187.732C176.253 187.863 176.591 187.998 176.929 188.133C176.967 188.142 177.006 188.162 177.045 188.176C177.194 188.234 177.349 188.297 177.498 188.36C177.518 188.365 177.537 188.374 177.556 188.384C177.769 188.466 177.976 188.553 178.188 188.645C178.193 188.645 178.193 188.645 178.193 188.645C179.096 189.011 179.993 189.388 180.886 189.779C180.953 191.068 181.026 192.361 181.093 193.65C181.229 196.112 181.359 198.574 181.494 201.036C181.537 201.784 181.576 202.542 181.605 203.304C181.61 203.396 181.61 203.483 181.615 203.57C181.629 203.912 181.639 204.255 181.644 204.593C181.653 204.752 181.653 204.907 181.653 205.061C181.668 205.568 181.668 206.075 181.663 206.577Z" fill="#BACAE4"/>
<path d="M181.494 199.308C181.347 197.737 181.549 195.987 181.228 194.447C181.201 194.318 181.167 194.192 181.131 194.065C172.427 193.577 163.933 190.681 155.996 186.912C155.538 188.794 154.973 190.648 154.322 192.499C162.985 196.498 172.122 199.382 181.54 199.798C181.524 199.635 181.509 199.473 181.494 199.308Z" fill="white"/>
<path d="M181.74 209.892C181.948 208.267 181.983 206.697 181.934 205.133C177.105 204.916 172.306 203.925 167.657 202.569C162.571 201.085 157.483 199.324 152.599 197.169C151.966 198.953 151.418 200.762 151.182 202.643C151.174 202.713 151.17 202.783 151.162 202.853C156.304 205.071 161.65 206.903 166.977 208.4C171.787 209.753 176.68 210.642 181.608 210.852C181.654 210.535 181.699 210.216 181.74 209.892Z" fill="white"/>
<path d="M178.834 219.3C179.198 218.711 179.512 218.119 179.789 217.522C175.046 217.377 170.35 216.791 165.704 215.289C160.593 213.636 155.794 211.211 151.152 208.513C151.41 211.033 151.979 213.535 152.736 215.981C156.414 217.901 160.203 219.593 164.165 220.874C168.053 222.132 171.989 222.798 175.958 223.111C177.02 221.929 177.992 220.665 178.834 219.3Z" fill="white"/>
<path d="M139.999 160.773C138.701 164.645 137.191 168.434 135.28 171.962C131.453 179.029 125.358 183.262 117.893 185.893C114.018 187.259 109.95 188.089 105.892 187.047C102.229 186.11 98.7933 184.03 95.8497 181.708C91.2895 178.112 87.7765 173.372 85.6001 168.028C85.5036 167.787 85.4071 167.546 85.3154 167.299C86.6907 166.759 88.3266 166.918 89.948 167.135C90.4499 167.029 90.9517 166.976 91.4536 166.966C93.2535 170.92 95.951 174.419 99.3869 177.171C101.693 179.015 104.541 180.757 107.431 181.462C110.963 182.321 114.554 181.037 117.83 179.763C124.176 177.291 128.461 173.092 131.328 166.942C132.37 164.707 133.282 162.395 134.102 160.04C134.107 160.035 134.107 160.035 134.107 160.03C134.175 160.03 134.233 160.04 134.295 160.049H134.329C135.7 160.117 137.152 160.266 138.605 160.513C138.855 160.551 139.106 160.595 139.357 160.643C139.575 160.682 139.787 160.725 139.999 160.773Z" fill="white"/>
<path d="M152.966 168.68C152.068 170.061 151.127 171.412 150.143 172.74C140.998 185.034 127.921 194.818 112.431 196.937C104.319 198.048 96.0285 197 89.0314 192.54C83.1876 188.814 78.0821 183.745 73.3916 178.571C73.7632 177.996 74.1492 177.431 74.5498 176.876C74.8731 176.432 75.206 175.993 75.5535 175.568C75.6741 175.419 75.7947 175.274 75.9202 175.124C76.0795 174.936 76.2387 174.748 76.4028 174.564C76.591 174.347 76.784 174.135 76.9819 173.927C81.8799 179.415 87.2942 185.039 93.6785 188.567C106.288 195.533 122.642 189.948 133.316 181.887C139.584 177.156 144.656 171.127 148.806 164.48C148.961 164.596 149.11 164.722 149.26 164.852C149.351 164.925 149.443 165.002 149.535 165.089C149.636 165.171 149.733 165.258 149.834 165.349C150.042 165.533 150.244 165.721 150.442 165.914C150.457 165.924 150.466 165.933 150.476 165.943C150.693 166.151 150.9 166.363 151.108 166.575C151.122 166.59 151.132 166.6 151.147 166.614C151.344 166.817 151.537 167.024 151.731 167.237C151.759 167.266 151.784 167.299 151.812 167.328C152.015 167.55 152.218 167.782 152.411 168.014C152.575 168.197 152.729 168.39 152.889 168.583C152.913 168.612 152.942 168.646 152.966 168.68Z" fill="white"/>
<path d="M155.247 186.315C155.361 185.81 155.505 185.317 155.707 184.848C155.776 184.652 155.846 184.456 155.921 184.261C156.24 183.433 156.865 182.783 157.658 182.565C158.786 181.83 160.114 181.474 161.432 181.146C161.172 180.805 160.897 180.47 160.6 180.144C160.513 180.048 160.426 179.966 160.334 179.888L159.383 178.31C159.277 178.126 159.142 177.972 158.997 177.837C158.959 177.764 158.915 177.692 158.872 177.62C155.745 180.738 152.473 183.697 149.018 186.41C144.535 189.943 139.738 193.066 134.541 195.581C127.414 199.028 119.563 201.238 111.624 201.417C103.45 201.6 95.5069 199.472 87.9838 196.416C83.8193 194.722 79.7803 192.728 75.7847 190.677C73.5215 189.518 71.1666 188.403 68.8889 187.158C68.387 188.268 67.9045 189.383 67.4219 190.498C67.1468 191.131 66.8718 191.763 66.6016 192.395C67.9093 193.11 69.2315 193.795 70.5634 194.49C74.3901 196.484 78.2457 198.434 82.1882 200.191C90.0829 203.7 98.3058 206.456 106.973 207.094C122.733 208.247 137.842 201.851 150.355 192.651C151.605 191.734 152.825 190.788 154.022 189.818C154.214 189.662 154.405 189.506 154.595 189.347C154.76 188.32 154.97 187.311 155.247 186.315Z" fill="white"/>
<path d="M149.631 207.361C149.803 205.975 150.13 204.635 150.56 203.324C147.991 204.315 145.381 205.207 142.726 205.978C133.427 208.681 123.911 209.473 114.26 209.574C104.551 209.68 94.5617 210.052 85.0745 207.667C84.148 207.436 83.2311 207.18 82.3191 206.91C75.8383 204.974 69.7194 202.073 63.8563 198.718C63.0842 200.499 62.3121 202.28 61.54 204.062C67.3742 207.363 73.4641 210.216 79.8725 212.219C80.1572 212.311 80.4468 212.398 80.7315 212.48C90.1462 215.255 99.8071 215.371 109.564 215.386C119.732 215.4 129.938 215.077 139.874 212.726C143.173 211.941 146.425 210.962 149.62 209.831C149.539 209.02 149.527 208.198 149.631 207.361Z" fill="white"/>
<path d="M151.086 215.352C128.126 221.435 103.653 221.801 80.5178 216.207C80.2959 216.154 80.0787 216.101 79.8567 216.043C75.3062 214.923 70.8087 213.571 66.3884 212.003C64.1349 211.201 61.6208 210.41 59.2176 209.415C58.4696 211.134 57.7217 212.847 56.9785 214.566C58.3538 215.135 59.7436 215.661 61.1141 216.197C65.322 217.834 69.6168 219.267 73.9647 220.484C75.5282 220.923 77.1013 221.333 78.6841 221.719C86.13 223.534 93.7303 224.756 101.369 225.412C118.544 226.884 136.041 225.369 152.719 220.937H152.723C153.381 220.761 154.039 220.579 154.697 220.394C153.168 219.089 151.946 217.496 151.086 215.352Z" fill="white"/>
<path d="M152.618 227.599C152.603 228.202 152.589 228.806 152.565 229.409C152.521 230.761 152.463 232.117 152.396 233.478C152.396 233.478 152.396 233.483 152.391 233.483C133.861 235.8 115.094 235.438 96.5587 233.28C90.1407 232.532 83.7516 231.586 77.3914 230.466C74.2886 229.921 71.1905 229.332 68.1021 228.704C62.905 227.642 57.5389 226.595 52.665 224.519C53.4227 222.762 54.1899 221 54.9524 219.243C56.8151 220.025 58.7694 220.624 60.7383 221.14C65.5349 222.395 70.4377 223.312 75.3116 224.225C76.2622 224.403 77.2129 224.577 78.1683 224.746C102.663 229.119 127.959 230.828 152.618 227.599Z" fill="white"/>
<path d="M152.131 238.373C152.107 238.846 152.078 239.319 152.044 239.792C152.015 240.265 151.981 240.743 151.952 241.216C151.889 242.162 151.827 243.113 151.759 244.069C151.479 244.141 151.195 244.218 150.915 244.291C150.91 244.291 150.91 244.291 150.905 244.291C150.9 244.291 150.9 244.291 150.9 244.291C133.374 246.651 115.582 246.974 97.9537 245.729C90.8021 245.222 83.6313 244.522 76.5135 243.518C76.3205 243.489 76.1226 243.46 75.9296 243.431C72.0353 242.876 68.1556 242.225 64.3047 241.472C58.5526 240.342 52.8294 238.855 47.3379 236.789C48.11 235.013 48.8821 233.232 49.6542 231.456C56.1688 233.884 63.0163 235.448 69.9024 236.63C72.1753 237.021 74.4627 237.388 76.7548 237.726C101.491 241.385 127.202 242.017 152.131 238.373Z" fill="white"/>
<path d="M72.6037 249.586C71.6241 251.391 70.6542 253.172 69.6843 254.944C60.5398 253.139 51.5255 250.532 42.7236 247.438C43.4861 245.666 44.2582 243.895 45.0255 242.123C54.0397 245.256 63.2565 247.858 72.6037 249.586Z" fill="white"/>
<path d="M64.5409 264.371C63.6048 266.09 62.6638 267.822 61.7131 269.575C53.2442 267.644 45.0069 264.308 37.0205 260.577C37.783 258.82 38.5454 257.058 39.3127 255.301C47.4197 259.129 55.8597 262.6 64.5409 264.371Z" fill="white"/>
<path d="M180.312 173.241C182.157 171.184 182.291 171.113 180.312 173.241V173.241Z" fill="#F6E2D7"/>
<path d="M151.787 168.916C151.254 167.905 150.775 166.86 150.441 165.765C150.182 164.918 149.663 163.444 150.101 162.6C151.357 160.181 154.619 163.863 155.54 164.765C157.778 166.957 160.015 169.149 162.254 171.341C164.228 165.736 167.399 160.596 171.101 155.974C172.037 154.805 173 153.65 174.021 152.555C174.818 151.701 175.863 150.737 177.14 151.035C180.36 151.787 176.736 156.614 175.959 157.974C174.196 161.059 172.434 164.144 170.672 167.229C173.193 163.023 176.317 159.171 179.951 155.876C180.767 154.985 182.246 153.772 183.525 154.578C184.643 155.64 183.932 157.337 183.287 158.361C181.703 160.877 180.226 163.46 178.635 165.977C180.999 163.052 183.945 160.679 187.581 158.922C188.416 158.732 189.183 159.216 189.629 160.212C189.657 161.302 188.756 162.165 188.273 162.933C185.343 166.45 183.086 170.034 180.313 173.239C183.342 170.195 186.205 167.351 189.837 164.991C190.415 164.64 191.249 164.45 191.761 164.773C192.719 166.091 192.168 167.532 191.106 168.651C188.499 171.656 185.54 174.083 183.862 177.316C182.022 180.805 181.045 185.196 177.976 188.432L159.946 182.521C157.218 178.015 154.246 173.576 151.787 168.916Z" fill="#F6E2D7"/>
<path d="M177.975 190.124C177.558 190.124 177.14 189.97 176.814 189.66C176.137 189.018 176.108 187.948 176.75 187.272C178.607 185.313 179.661 182.758 180.68 180.287C181.198 179.031 181.734 177.733 182.368 176.53C183.64 174.08 185.572 172.067 187.441 170.12C188.237 169.291 189.059 168.434 189.83 167.546C189.847 167.526 189.863 167.508 189.881 167.49C190.23 167.123 190.412 166.822 190.496 166.58C187.044 168.872 184.233 171.696 181.514 174.428C181.38 174.565 181.228 174.673 181.066 174.754C181.065 174.754 181.064 174.755 181.064 174.755C180.838 174.867 180.593 174.926 180.347 174.93C180.347 174.93 180.346 174.93 180.345 174.93C180.08 174.939 179.817 174.88 179.573 174.761C179.428 174.691 179.291 174.597 179.166 174.482C179.166 174.482 179.167 174.482 179.165 174.482C179.006 174.335 178.882 174.164 178.793 173.98L178.793 173.979C178.693 173.774 178.638 173.554 178.626 173.33C178.611 173.051 178.665 172.768 178.79 172.51C178.79 172.509 178.79 172.509 178.79 172.508C178.854 172.376 178.936 172.25 179.037 172.135C180.446 170.506 181.714 168.78 183.057 166.953C184.263 165.314 185.508 163.62 186.909 161.933C187.031 161.746 187.171 161.556 187.316 161.359C187.459 161.166 187.629 160.935 187.756 160.724C184.713 162.282 182.165 164.323 180.053 166.902C179.204 168.244 178.316 169.578 177.363 170.87C177.24 171.042 177.089 171.184 176.92 171.294C176.745 171.409 176.552 171.488 176.351 171.532C176.073 171.592 175.779 171.582 175.498 171.496C175.363 171.455 175.231 171.395 175.106 171.318C174.881 171.179 174.699 170.994 174.566 170.784C174.472 170.634 174.402 170.472 174.358 170.302C174.358 170.302 174.358 170.301 174.358 170.3C174.274 169.972 174.287 169.618 174.412 169.287C174.443 169.208 174.478 169.13 174.521 169.054C174.521 169.054 174.521 169.054 174.521 169.054C174.521 169.054 174.522 169.053 174.522 169.052C174.683 168.767 174.847 168.486 175.015 168.209C175.286 167.745 175.496 167.392 175.65 167.133C175.898 166.717 176.118 166.347 176.419 166.095C176.692 165.72 176.974 165.353 177.262 164.994C178.053 163.742 178.813 162.475 179.561 161.228C180.303 159.991 181.071 158.712 181.857 157.464C182.219 156.889 182.406 156.365 182.421 156.057C182.166 156.161 181.725 156.442 181.195 157.02C181.16 157.058 181.123 157.095 181.085 157.13C177.612 160.28 174.596 163.971 172.12 168.101C171.644 168.895 170.617 169.158 169.818 168.69C169.019 168.222 168.745 167.198 169.205 166.394L174.491 157.139C174.604 156.943 174.77 156.679 174.966 156.369C176.386 154.131 176.75 153.13 176.767 152.686C176.763 152.686 176.759 152.684 176.755 152.683C176.308 152.586 175.516 153.43 175.256 153.71C174.399 154.628 173.497 155.684 172.418 157.032C168.469 161.964 165.585 166.968 163.845 171.904C163.654 172.449 163.197 172.858 162.635 172.989C162.072 173.118 161.483 172.954 161.07 172.55L154.358 165.974C154.269 165.887 154.161 165.777 154.035 165.65C152.752 164.344 152.028 163.809 151.625 163.602C151.675 164.049 151.893 164.749 151.987 165.052L152.056 165.274C152.319 166.14 152.709 167.047 153.28 168.13C154.958 171.309 156.923 174.456 158.824 177.5C159.672 178.857 160.548 180.259 161.389 181.65C161.872 182.449 161.617 183.487 160.819 183.97C160.021 184.453 158.982 184.198 158.499 183.4C157.67 182.03 156.8 180.637 155.959 179.29C154.026 176.195 152.027 172.995 150.292 169.707C149.618 168.43 149.152 167.335 148.824 166.26L148.761 166.056C148.409 164.926 147.877 163.217 148.601 161.823C149.091 160.877 149.887 160.278 150.841 160.135C152.865 159.831 154.792 161.6 156.444 163.281C156.551 163.39 156.644 163.485 156.72 163.559L161.602 168.342C163.492 163.85 166.236 159.346 169.781 154.919C170.914 153.503 171.869 152.386 172.785 151.404C173.498 150.639 175.172 148.844 177.521 149.393C178.66 149.658 179.502 150.331 179.894 151.289C180.181 151.992 180.201 152.75 180.041 153.539C181.557 152.467 183.099 152.317 184.424 153.151C184.518 153.21 184.606 153.279 184.687 153.356C185.932 154.538 186.129 156.306 185.276 158.221C185.788 157.934 186.31 157.662 186.845 157.403C186.96 157.348 187.081 157.305 187.206 157.277C188.834 156.906 190.393 157.789 191.169 159.524C191.26 159.728 191.31 159.947 191.316 160.17C191.347 161.372 190.797 162.3 190.288 163.016C191.059 162.844 191.919 162.879 192.659 163.347C192.841 163.461 193 163.61 193.126 163.783C194.438 165.59 194.142 167.888 192.356 169.789C191.537 170.73 190.693 171.61 189.875 172.462C188.094 174.318 186.411 176.071 185.359 178.098C184.794 179.171 184.312 180.339 183.801 181.577C182.717 184.205 181.488 187.184 179.199 189.598C178.869 189.946 178.423 190.124 177.975 190.124Z" fill="#1F404D"/>
<path d="M171.277 183.424C170.693 183.424 170.126 183.121 169.813 182.579C168.337 180.024 166.207 177.893 163.654 176.416C162.846 175.949 162.571 174.915 163.038 174.108C163.505 173.299 164.538 173.025 165.345 173.491C168.41 175.264 170.966 177.822 172.738 180.889C173.205 181.697 172.928 182.73 172.12 183.197C171.854 183.35 171.564 183.424 171.277 183.424Z" fill="#1F404D"/>
<path d="M103.305 252.048C101.008 252.048 98.7223 252.007 96.5112 251.926C94.3083 251.85 92.0273 251.728 89.7356 251.565C88.1427 251.455 86.4821 251.315 84.6624 251.137C83.6046 251.036 82.4972 250.919 81.2816 250.776C80.7382 250.711 80.2064 250.649 79.6703 250.582C79.0526 250.504 78.4306 250.421 77.8134 250.338C77.2884 250.27 76.7575 250.196 76.2262 250.118C75.402 249.996 74.7897 249.29 74.7849 248.457C74.78 247.597 74.7752 246.737 74.7849 245.889L74.7902 245.193C74.795 244.826 74.7998 244.459 74.8095 244.094C74.809 243.91 74.8143 243.688 74.824 243.468C74.8288 243.128 74.8384 242.787 74.8476 242.456C74.8481 242.371 74.8524 242.291 74.8582 242.207C74.9036 240.631 74.9741 239.087 75.0681 237.618C75.2235 235.083 75.4402 232.61 75.7128 230.27C75.9387 228.278 76.2036 226.327 76.4994 224.478C76.6466 223.543 76.8179 222.539 77.022 221.417C77.3724 219.504 77.7719 217.569 78.2101 215.664C78.4649 214.539 78.7549 213.356 79.0951 212.054C79.5752 210.205 80.1162 208.305 80.7035 206.41C81.2821 204.552 81.9133 202.668 82.5802 200.809C82.8948 199.931 83.8609 199.474 84.7401 199.789C85.6179 200.104 86.0749 201.071 85.7598 201.95C85.1093 203.765 84.4935 205.603 83.9299 207.413C83.3585 209.256 82.8321 211.105 82.3645 212.906C82.0325 214.176 81.7511 215.323 81.5035 216.417C81.075 218.278 80.6861 220.163 80.3454 222.024C80.1461 223.118 79.9797 224.095 79.8358 225.009C79.5468 226.811 79.2891 228.71 79.0685 230.657C78.8026 232.94 78.5913 235.352 78.4393 237.829C78.3471 239.272 78.2781 240.786 78.2342 242.331C78.2342 242.372 78.2337 242.37 78.2304 242.411L78.2251 242.489C78.2149 242.863 78.2052 243.203 78.2009 243.542C78.2009 243.561 78.2005 243.58 78.1995 243.599C78.1908 243.775 78.1869 243.956 78.1869 244.137C78.1773 244.532 78.1729 244.884 78.1681 245.237L78.1676 245.288V245.348L78.1628 245.908C78.1589 246.265 78.157 246.621 78.157 246.976C78.1898 246.98 78.2226 246.984 78.255 246.988C78.8698 247.07 79.4831 247.152 80.0921 247.229C80.6195 247.295 81.1426 247.357 81.6652 247.419C82.8644 247.559 83.9477 247.675 84.9862 247.773C86.7784 247.948 88.4075 248.086 89.9715 248.194C92.2255 248.355 94.4651 248.474 96.6304 248.548C99.3569 248.648 102.214 248.684 105.021 248.659C105.419 248.659 105.801 248.654 106.183 248.645C106.728 248.639 107.244 248.631 107.764 248.616C108.761 248.591 109.757 248.558 110.752 248.52C111.305 248.501 111.849 248.477 112.4 248.449C112.866 248.427 113.33 248.4 113.794 248.375L113.922 248.367C114.849 248.319 115.774 248.257 116.699 248.19C117.044 248.167 117.384 248.142 117.723 248.114C119.937 247.946 122.216 247.73 124.507 247.472C125.017 247.415 125.513 247.358 126.009 247.296L126.119 247.283C126.434 247.245 126.753 247.207 127.073 247.164C127.725 247.081 128.364 246.996 129.003 246.912L129.757 246.803C130.337 246.72 130.917 246.638 131.498 246.547C132.003 246.473 132.488 246.397 132.969 246.317C134.083 246.141 135.239 245.945 136.516 245.717L136.667 245.69C136.879 245.652 137.092 245.615 137.302 245.573C137.786 245.487 138.233 245.402 138.685 245.313C139.257 245.205 139.818 245.096 140.373 244.982C140.845 244.89 141.307 244.794 141.764 244.695C142.27 244.591 142.747 244.493 143.219 244.386C143.717 244.283 144.178 244.178 144.638 244.073L144.686 244.063C145.177 243.955 145.654 243.842 146.132 243.729C146.646 243.612 147.144 243.495 147.64 243.369L147.726 243.348C148.158 243.244 148.59 243.14 149.021 243.028C149.411 242.932 149.786 242.838 150.157 242.741C150.195 242.193 150.23 241.648 150.267 241.104C150.3 240.626 150.329 240.157 150.358 239.689C150.391 239.209 150.42 238.747 150.444 238.285C150.445 238.267 150.446 238.25 150.448 238.232C150.461 238.08 150.469 237.927 150.478 237.77C150.531 236.887 150.579 236.019 150.622 235.147C150.656 234.558 150.685 233.983 150.709 233.409C150.782 231.93 150.837 230.609 150.877 229.355C150.902 228.747 150.916 228.153 150.93 227.558C150.949 226.989 150.963 226.444 150.973 225.898C150.988 225.38 150.997 224.879 151.002 224.382C151.012 223.91 151.021 223.459 151.021 223.012C151.027 222.633 151.031 222.276 151.027 221.919C151.027 221.895 151.027 221.872 151.027 221.848C151.037 221.541 151.036 221.239 151.036 220.936C151.036 220.108 151.031 219.275 151.022 218.446C151.017 217.901 151.008 217.366 150.998 216.826C150.981 215.893 151.723 215.123 152.656 215.106C152.666 215.105 152.677 215.105 152.687 215.105C153.605 215.105 154.359 215.841 154.375 216.764C154.385 217.315 154.395 217.861 154.4 218.412C154.41 219.248 154.414 220.095 154.414 220.936C154.414 221.26 154.414 221.583 154.405 221.911C154.409 222.286 154.404 222.661 154.399 223.036C154.399 223.483 154.389 223.958 154.379 224.434C154.375 224.93 154.365 225.453 154.35 225.975C154.34 226.522 154.326 227.086 154.306 227.656C154.292 228.25 154.277 228.862 154.253 229.475C154.212 230.736 154.157 232.077 154.084 233.56C154.059 234.14 154.03 234.734 153.995 235.327C153.952 236.197 153.904 237.077 153.85 237.962C153.841 238.133 153.831 238.309 153.816 238.485C153.792 238.96 153.763 239.436 153.728 239.911C153.7 240.371 153.671 240.85 153.637 241.333C153.575 242.274 153.511 243.228 153.444 244.186C153.393 244.91 152.886 245.52 152.183 245.702L151.336 245.925C151.306 245.933 151.275 245.94 151.244 245.946C150.782 246.07 150.321 246.186 149.854 246.301C149.422 246.413 148.968 246.523 148.516 246.632L148.453 246.647C147.949 246.775 147.423 246.899 146.897 247.018C146.417 247.133 145.92 247.25 145.422 247.359L145.389 247.367C144.906 247.477 144.423 247.586 143.935 247.687C143.475 247.792 142.976 247.895 142.477 247.998C142.002 248.101 141.518 248.199 141.04 248.294C140.48 248.408 139.901 248.521 139.327 248.629C138.869 248.719 138.399 248.809 137.925 248.893C137.728 248.932 137.495 248.974 137.264 249.015L137.114 249.042C135.812 249.274 134.634 249.474 133.512 249.651C133.023 249.733 132.514 249.812 132.005 249.886C131.428 249.977 130.831 250.062 130.234 250.147L129.509 250.251C129.498 250.253 129.461 250.258 129.45 250.26C128.803 250.346 128.157 250.431 127.51 250.513C127.19 250.556 126.857 250.597 126.527 250.637L126.421 250.649C125.919 250.711 125.412 250.769 124.906 250.827C122.554 251.091 120.235 251.311 117.992 251.482C117.648 251.51 117.294 251.535 116.938 251.56C115.996 251.628 115.048 251.691 114.106 251.74L113.985 251.747C113.512 251.774 113.038 251.8 112.568 251.823C112.006 251.852 111.442 251.876 110.877 251.895C109.872 251.934 108.859 251.968 107.852 251.993C107.318 252.007 106.781 252.017 106.241 252.022C105.855 252.032 105.446 252.036 105.037 252.036C104.473 252.043 103.889 252.048 103.305 252.048Z" fill="#1F404D"/>
<path d="M151.573 202.256C150.732 202.256 150.004 201.629 149.899 200.773C148.961 193.152 147.443 186.094 145.26 179.196C144.978 178.306 145.471 177.357 146.36 177.075C147.251 176.793 148.199 177.286 148.48 178.176C150.727 185.274 152.288 192.531 153.251 200.36C153.365 201.287 152.708 202.129 151.782 202.243C151.711 202.252 151.642 202.256 151.573 202.256Z" fill="#1F404D"/>
<path d="M58.1813 277.819C58.0076 277.819 57.832 277.792 57.6592 277.736C51.855 275.85 47.1409 273.231 42.1497 270.458C39.6858 269.089 37.1379 267.673 34.4336 266.345C33.6248 265.949 33.2696 264.987 33.6272 264.159L34.5364 262.061C34.8481 261.344 35.1598 260.626 35.4706 259.907L36.0304 258.616C36.6075 257.286 37.1852 255.953 37.7657 254.624C38.8978 252.007 40.0371 249.385 41.1764 246.764C41.6841 245.584 42.1985 244.399 42.7129 243.214L43.4777 241.451C44.2498 239.674 45.0215 237.894 45.7883 236.119L49.1242 228.433C49.7877 226.903 50.4507 225.373 51.1181 223.842C51.6803 222.539 52.2502 221.227 52.8196 219.916L55.4307 213.892C55.9789 212.625 56.53 211.36 57.0821 210.093L57.6713 208.74C58.4424 206.956 59.215 205.174 59.9924 203.386L62.3077 198.045C63.0147 196.41 63.7255 194.776 64.4368 193.141L65.0549 191.72C65.3203 191.099 65.5954 190.466 65.87 189.835C66.3598 188.703 66.8462 187.579 67.3519 186.461C68.4758 183.951 70.0195 180.675 71.9753 177.652C72.3599 177.057 72.7663 176.463 73.1817 175.887C73.5668 175.358 73.9143 174.905 74.2482 174.497C74.3679 174.348 74.4948 174.197 74.6265 174.039C74.7911 173.839 74.9706 173.627 75.1602 173.421C75.3349 173.219 75.5458 172.987 75.762 172.76C75.9202 172.587 76.1056 172.396 76.2967 172.205C76.424 172.073 76.5727 171.924 76.7319 171.77C76.7623 171.739 76.8149 171.692 76.867 171.645C77.0345 171.483 77.1991 171.326 77.3718 171.173C77.5788 170.979 77.8269 170.762 78.0749 170.558C78.2496 170.405 78.458 170.232 78.6723 170.064C78.8354 169.928 79.0034 169.797 79.1708 169.675C79.3841 169.505 79.6027 169.346 79.8261 169.191C80.4491 168.748 81.1049 168.328 81.7587 167.956C81.7785 167.944 81.7988 167.932 81.8191 167.92C82.0531 167.787 82.2929 167.654 82.5323 167.532C83.3333 167.115 84.1774 166.745 85.0291 166.438C85.3876 166.31 85.7481 166.193 86.1066 166.088C87.0018 165.824 87.9399 166.339 88.2024 167.234C88.4644 168.129 87.9515 169.068 87.0563 169.331C86.759 169.418 86.4623 169.514 86.1693 169.618C85.4638 169.873 84.7589 170.182 84.0789 170.535C83.8946 170.63 83.7189 170.727 83.5481 170.823C83.5249 170.838 83.5017 170.852 83.4781 170.865C82.8985 171.192 82.3383 171.549 81.765 171.958C81.5749 172.089 81.4084 172.211 81.2463 172.341C81.2245 172.358 81.2024 172.375 81.1797 172.391C81.0581 172.479 80.9365 172.574 80.8182 172.672C80.8033 172.685 80.7883 172.697 80.7734 172.709C80.6001 172.844 80.4308 172.984 80.2614 173.132C80.0293 173.325 79.8329 173.495 79.6413 173.675C79.4618 173.833 79.3266 173.965 79.1872 174.101C79.1645 174.123 79.1413 174.144 79.1172 174.165C79.109 174.173 79.0868 174.192 79.0782 174.2C78.9474 174.326 78.8262 174.448 78.7042 174.574C78.5266 174.751 78.3746 174.908 78.2269 175.069C78.0247 175.281 77.8495 175.474 77.6787 175.671C77.5002 175.866 77.3607 176.031 77.2256 176.196C77.0972 176.349 76.9829 176.487 76.8685 176.628C76.5679 176.996 76.2586 177.399 75.9159 177.869C75.5381 178.393 75.1646 178.939 74.8109 179.487C72.9906 182.301 71.5758 185.292 70.4316 187.847C69.9307 188.955 69.452 190.061 68.9733 191.168C68.6953 191.807 68.4232 192.433 68.1563 193.058L67.5339 194.489C66.8235 196.122 66.1142 197.754 65.4077 199.388L63.0909 204.733C62.314 206.519 61.5424 208.299 60.7703 210.084L60.1791 211.442C59.628 212.706 59.0784 213.969 58.5307 215.235L55.9181 221.262C55.3497 222.57 54.7812 223.88 54.2176 225.187C53.5483 226.721 52.8862 228.249 52.2241 229.776L48.8882 237.461C48.1224 239.236 47.3498 241.017 46.5772 242.795L45.8123 244.559C45.2994 245.741 44.7865 246.922 44.2778 248.105C43.1366 250.73 41.9982 253.35 40.8647 255.971C40.2832 257.303 39.7065 258.632 39.1308 259.961L38.572 261.249C38.2617 261.967 37.949 262.687 37.6368 263.407L37.3651 264.034C39.6066 265.178 41.7284 266.357 43.7919 267.503C48.2387 269.974 52.4591 272.319 57.3711 274.068C58.3338 272.274 59.2869 270.513 60.2303 268.769C61.1824 267.014 62.1239 265.281 63.0605 263.562L64.6698 260.613C65.8483 258.454 67.0228 256.302 68.2041 254.135C69.175 252.362 70.144 250.583 71.1221 248.779C72.2166 246.764 73.3245 244.72 74.4426 242.633L74.6057 242.33C74.7549 242.055 74.9049 241.777 75.0526 241.499C75.1096 241.391 75.1781 241.29 75.2567 241.198C75.5665 240.829 76.0308 240.595 76.5491 240.595C77.4819 240.595 78.238 241.349 78.238 242.282C78.238 242.585 78.1564 242.882 78.0054 243.141C77.864 243.407 77.7202 243.673 77.5774 243.937L77.4176 244.232C76.2991 246.321 75.1872 248.371 74.0904 250.391C73.1098 252.198 72.1389 253.981 71.168 255.754C69.9877 257.92 68.8131 260.072 67.6337 262.232L66.0253 265.179C65.0901 266.896 64.1496 268.628 63.1995 270.379C62.0389 272.523 60.863 274.697 59.672 276.925C59.3704 277.488 58.7903 277.819 58.1813 277.819Z" fill="#1F404D"/>
<path d="M166.293 226.889C164.455 226.889 162.655 226.59 160.956 225.999C160.201 225.738 159.441 225.408 158.703 225.02C158.62 224.977 158.528 224.926 158.438 224.877L158.329 224.818C158.128 224.706 157.946 224.599 157.769 224.491C157.666 224.432 157.536 224.348 157.406 224.265L157.3 224.197C157.071 224.048 156.857 223.904 156.647 223.753C156.499 223.644 156.375 223.552 156.246 223.454C155.713 223.05 155.184 222.598 154.677 222.114L154.406 221.847C154.271 221.717 154.122 221.559 153.975 221.4C153.276 220.659 152.624 219.842 152.046 218.983C151.739 218.522 151.458 218.064 151.21 217.617C150.865 217 150.564 216.386 150.316 215.797C149.592 214.126 149.119 212.348 148.917 210.533C148.885 210.228 148.86 209.928 148.839 209.634C148.705 207.591 148.87 205.371 149.347 202.842C149.506 201.999 149.695 201.14 149.922 200.216C149.926 200.198 149.93 200.18 149.934 200.162C150.154 199.262 150.414 198.27 150.753 197.043C151.497 194.328 152.279 191.552 153.075 188.794C153.717 186.554 154.394 184.253 155.146 181.761C155.392 180.944 156.212 180.441 157.048 180.584C158.637 180.857 160.239 181.182 161.809 181.551C161.916 181.571 162.023 181.598 162.131 181.627C162.527 181.716 162.928 181.809 163.325 181.912C164.868 182.297 166.432 182.728 167.96 183.19C168.332 183.302 168.691 183.411 169.054 183.528C169.365 183.623 169.701 183.73 170.043 183.843C170.074 183.851 170.107 183.86 170.138 183.871L170.251 183.907C170.351 183.939 170.451 183.972 170.552 184.008L171.398 184.291C172.2 184.558 172.952 184.821 173.695 185.095C174.59 185.413 175.552 185.773 176.534 186.16C176.852 186.283 177.179 186.413 177.505 186.544C177.554 186.56 177.601 186.579 177.649 186.598C177.802 186.658 177.954 186.719 178.102 186.78C178.148 186.798 178.189 186.815 178.226 186.831C178.415 186.905 178.6 186.983 178.789 187.063C178.803 187.069 178.816 187.073 178.83 187.079C179.796 187.472 180.69 187.849 181.563 188.23C182.149 188.487 182.539 189.051 182.573 189.69L183.181 200.942C183.225 201.697 183.264 202.465 183.293 203.239L183.302 203.478C183.317 203.843 183.327 204.19 183.332 204.532C183.341 204.703 183.342 204.87 183.342 205.037C183.357 205.555 183.357 206.073 183.352 206.586C183.352 206.751 183.352 206.916 183.346 207.076C183.338 207.788 183.304 208.567 183.246 209.359C183.232 209.583 183.212 209.817 183.186 210.056C183.147 210.539 183.087 211.009 183.033 211.405C183.002 211.642 182.964 211.896 182.921 212.139C182.888 212.337 182.851 212.549 182.81 212.761C182.776 212.945 182.736 213.139 182.695 213.332C182.684 213.404 182.668 213.476 182.649 213.547C182.609 213.732 182.565 213.916 182.516 214.101C182.423 214.487 182.309 214.873 182.201 215.232C182.184 215.295 182.161 215.374 182.127 215.463L181.984 215.894C181.961 215.967 181.929 216.055 181.893 216.147C181.815 216.358 181.747 216.536 181.674 216.718C181.595 216.918 181.508 217.124 181.417 217.33C181.338 217.506 181.253 217.687 181.168 217.863C181.129 217.95 181.087 218.033 181.043 218.115C180.935 218.324 180.828 218.533 180.711 218.742C180.528 219.07 180.366 219.338 180.202 219.586C180.05 219.829 179.867 220.094 179.678 220.359C179.549 220.534 179.425 220.698 179.3 220.855C179.184 221 179.071 221.139 178.954 221.273C178.825 221.427 178.665 221.604 178.505 221.774C178.371 221.921 178.222 222.074 178.068 222.222C177.91 222.374 177.752 222.523 177.588 222.671C177.418 222.825 177.246 222.975 177.067 223.12C176.9 223.256 176.725 223.393 176.55 223.526C176.367 223.665 176.178 223.799 175.989 223.927C175.83 224.04 175.636 224.167 175.441 224.29C175.433 224.295 175.391 224.32 175.384 224.325C175.252 224.405 175.121 224.484 174.985 224.563C174.941 224.591 174.87 224.633 174.797 224.674L174.716 224.721C174.565 224.804 174.454 224.863 174.341 224.923L174.204 224.995C174.024 225.087 173.868 225.165 173.707 225.244C173.663 225.265 173.618 225.285 173.573 225.302C173.564 225.305 173.556 225.309 173.547 225.312L173.497 225.335C173.408 225.377 173.288 225.428 173.168 225.479L173.018 225.543C172.811 225.632 172.611 225.709 172.416 225.782C172.155 225.882 171.869 225.98 171.582 226.072C171.445 226.118 171.293 226.165 171.134 226.207C170.852 226.29 170.57 226.362 170.282 226.431L169.85 226.525C169.672 226.561 169.506 226.595 169.34 226.622C169.219 226.645 169.066 226.67 168.912 226.694C168.91 226.694 168.859 226.702 168.856 226.702C168.71 226.725 168.569 226.742 168.424 226.759C168.306 226.774 168.179 226.789 168.055 226.8C167.927 226.815 167.799 226.825 167.67 226.835C167.663 226.836 167.626 226.838 167.619 226.839L166.729 226.885C166.71 226.886 166.69 226.886 166.67 226.886C166.545 226.887 166.419 226.889 166.293 226.889ZM173.503 225.326C173.496 225.329 173.49 225.331 173.483 225.333C173.489 225.331 173.497 225.329 173.503 225.326ZM153.23 200.91C153.225 200.931 153.221 200.952 153.216 200.973C152.997 201.857 152.818 202.673 152.666 203.469C152.238 205.745 152.093 207.632 152.21 209.406C152.227 209.655 152.25 209.915 152.277 210.172C152.44 211.641 152.827 213.092 153.425 214.473C153.632 214.964 153.876 215.462 154.16 215.971C154.367 216.342 154.6 216.723 154.854 217.104C155.324 217.804 155.86 218.475 156.443 219.092C156.556 219.215 156.659 219.327 156.771 219.435L157.041 219.699C157.427 220.068 157.855 220.434 158.289 220.763C158.406 220.852 158.514 220.933 158.631 221.018C158.784 221.128 158.955 221.243 159.126 221.354L159.235 221.424C159.32 221.478 159.405 221.534 159.492 221.584C159.664 221.688 159.809 221.774 159.956 221.856L160.063 221.914C160.131 221.951 160.2 221.989 160.269 222.025C160.872 222.342 161.456 222.596 162.063 222.805C163.5 223.306 165.027 223.541 166.624 223.505L167.401 223.465C167.502 223.457 167.597 223.45 167.692 223.439C167.709 223.437 167.727 223.435 167.744 223.433C167.832 223.426 167.923 223.414 168.014 223.403C168.139 223.388 168.24 223.376 168.345 223.361L168.385 223.354C168.509 223.334 168.633 223.315 168.757 223.292C168.912 223.265 169.035 223.24 169.155 223.216L169.538 223.132C169.741 223.084 169.971 223.025 170.201 222.957C170.22 222.951 170.238 222.946 170.256 222.941C170.348 222.917 170.436 222.89 170.528 222.86C170.777 222.779 171.002 222.704 171.222 222.619C171.386 222.558 171.533 222.501 171.675 222.44L171.857 222.362C171.935 222.33 172.014 222.297 172.091 222.261C172.095 222.258 172.133 222.241 172.137 222.239C172.176 222.221 172.216 222.204 172.256 222.187C172.274 222.179 172.292 222.171 172.31 222.163C172.421 222.109 172.529 222.055 172.64 221.998L172.767 221.93C172.864 221.88 172.959 221.829 173.056 221.777L173.251 221.662C173.399 221.576 173.515 221.505 173.632 221.434C173.785 221.338 173.929 221.243 174.068 221.145C174.237 221.031 174.376 220.933 174.511 220.831C174.654 220.722 174.798 220.609 174.937 220.495C175.07 220.387 175.197 220.277 175.324 220.163C175.461 220.038 175.593 219.915 175.724 219.789C175.831 219.686 175.934 219.579 176.033 219.472C176.16 219.336 176.281 219.203 176.392 219.071C176.497 218.951 176.578 218.849 176.659 218.747C176.752 218.63 176.849 218.504 176.942 218.377C177.082 218.181 177.227 217.973 177.363 217.755C177.52 217.517 177.643 217.306 177.763 217.092C177.863 216.911 177.955 216.732 178.047 216.552C178.055 216.536 178.064 216.52 178.073 216.503C178.086 216.473 178.099 216.449 178.114 216.419C178.187 216.268 178.261 216.112 178.33 215.957C178.403 215.791 178.471 215.63 178.536 215.469C178.599 215.309 178.657 215.157 178.715 215.002C178.717 214.996 178.736 214.947 178.738 214.941C178.749 214.911 178.761 214.882 178.771 214.851L178.937 214.352C178.94 214.34 178.945 214.328 178.949 214.316C178.952 214.306 178.955 214.297 178.957 214.287C179.06 213.95 179.158 213.617 179.242 213.272C179.29 213.087 179.328 212.93 179.36 212.774C179.363 212.76 179.367 212.746 179.37 212.733C179.372 212.722 179.374 212.712 179.376 212.701C179.417 212.513 179.457 212.32 179.493 212.128C179.532 211.93 179.563 211.746 179.594 211.562C179.631 211.356 179.66 211.156 179.686 210.96C179.738 210.574 179.79 210.172 179.821 209.767C179.823 209.748 179.824 209.73 179.826 209.713C179.848 209.517 179.865 209.325 179.877 209.129C179.931 208.389 179.962 207.678 179.97 207C179.976 206.839 179.975 206.708 179.975 206.577C179.975 206.571 179.975 206.565 179.975 206.56C179.98 206.079 179.98 205.595 179.966 205.11C179.966 205.094 179.965 205.078 179.965 205.061C179.965 204.942 179.966 204.821 179.959 204.698C179.957 204.671 179.956 204.644 179.955 204.617C179.951 204.295 179.942 203.968 179.928 203.642C179.925 203.601 179.924 203.542 179.922 203.482L179.919 203.391C179.889 202.617 179.851 201.871 179.809 201.133L179.256 190.915C178.73 190.691 178.189 190.466 177.623 190.236C177.588 190.224 177.553 190.21 177.519 190.195C177.327 190.112 177.141 190.034 176.948 189.96C176.922 189.95 176.896 189.939 176.87 189.928C176.861 189.924 176.853 189.921 176.845 189.918C176.71 189.861 176.57 189.804 176.434 189.751C176.427 189.749 176.409 189.742 176.392 189.735C176.362 189.725 176.331 189.714 176.301 189.702C175.969 189.569 175.638 189.437 175.306 189.309C174.35 188.932 173.424 188.585 172.546 188.273C171.819 188.005 171.099 187.754 170.329 187.498L169.459 187.207C169.442 187.201 169.425 187.195 169.409 187.189C169.346 187.166 169.282 187.146 169.219 187.125L169.155 187.105C169.12 187.096 169.085 187.085 169.05 187.074C168.71 186.963 168.375 186.855 168.039 186.752C167.67 186.633 167.335 186.532 167.001 186.431C165.506 185.979 163.996 185.562 162.491 185.188C162.104 185.087 161.727 185 161.355 184.917C161.328 184.911 161.301 184.905 161.274 184.897C161.237 184.887 161.204 184.877 161.171 184.869C161.135 184.863 161.111 184.858 161.076 184.85C160.042 184.607 158.994 184.383 157.946 184.182C157.368 186.114 156.833 187.94 156.32 189.729C155.528 192.475 154.751 195.237 154.009 197.94C153.682 199.128 153.441 200.046 153.23 200.91ZM176.491 189.764C176.496 189.766 176.502 189.767 176.507 189.768C176.502 189.766 176.496 189.765 176.491 189.764Z" fill="#1F404D"/>
<path d="M149.833 167.038C149.434 167.038 149.033 166.897 148.711 166.611C143.919 162.346 136.42 161.318 130.997 161.775C130.073 161.857 129.251 161.164 129.172 160.234C129.093 159.305 129.783 158.488 130.712 158.409C138.639 157.735 146.208 159.86 150.956 164.086C151.653 164.707 151.715 165.775 151.096 166.472C150.762 166.847 150.299 167.038 149.833 167.038Z" fill="#1F404D"/>
<path d="M122.11 164.201C122.141 165.626 122.052 167.045 121.786 168.454C120.977 172.72 118.118 176.896 113.899 177.929C109.1 179.105 104.108 175.816 101.693 171.503C100.846 169.993 100.244 168.386 99.8035 166.724C98.9822 163.637 98.7119 160.359 98.4648 157.156C105.897 156.965 113.77 157.54 120.929 155.532C121.488 158.389 122.047 161.304 122.11 164.201Z" fill="#F6E2D7"/>
<g opacity="0.5">
<path d="M122.11 164.201C119.803 166.084 116.792 167.576 113.258 168.258C108.447 169.19 103.636 168.425 99.8035 166.724C98.9822 163.638 98.7119 160.359 98.4648 157.156C105.897 156.965 113.77 157.541 120.929 155.532C121.488 158.389 122.047 161.304 122.11 164.201Z" fill="#E2B8A3"/>
</g>
<path d="M111.888 179.684C107.052 179.684 102.595 176.213 100.373 172.242C97.7504 167.559 97.3286 162.094 96.9565 157.273C96.9251 156.86 97.0642 156.451 97.3416 156.144C97.6191 155.836 98.0114 155.655 98.4255 155.644C100.146 155.6 101.914 155.596 103.625 155.592C109.316 155.58 115.201 155.567 120.521 154.075C120.927 153.961 121.363 154.022 121.722 154.244C122.082 154.465 122.333 154.827 122.414 155.241C123.227 159.404 124.15 164.121 123.273 168.736C122.249 174.123 118.711 178.308 114.258 179.398C113.464 179.593 112.67 179.684 111.888 179.684ZM100.099 158.639C100.438 162.728 100.983 167.139 103.012 170.764C105.036 174.379 109.298 177.498 113.539 176.46C117.297 175.54 119.643 171.634 120.301 168.172C120.972 164.645 120.429 160.982 119.749 157.393C114.5 158.595 108.983 158.607 103.632 158.618C102.468 158.62 101.277 158.623 100.099 158.639Z" fill="#1F404D"/>
<path d="M170.267 81.5022C171.209 79.4797 173.027 77.8839 175.154 77.2134C177.281 76.5424 179.685 76.8064 181.616 77.9234C184.518 79.6013 186.109 82.96 186.554 86.2829C187.093 90.297 186.17 94.4917 183.995 97.9083C181.821 101.325 178.412 103.937 174.548 105.147C171.695 105.046 169.355 103.226 168.072 100.674C166.789 98.1226 166.589 95.1535 166.825 92.307C167.127 88.6578 168.722 84.8208 170.267 81.5022Z" fill="#F6E2D7"/>
<path d="M174.753 106.667L174.495 106.658C171.238 106.542 168.332 104.559 166.72 101.353C165.471 98.8669 165.012 95.8665 165.318 92.181C165.64 88.289 167.308 84.2758 168.897 80.8631C170.012 78.4689 172.181 76.5646 174.7 75.7701C177.219 74.9756 180.087 75.2908 182.373 76.6129C185.411 78.3699 187.482 81.8208 188.053 86.0807C188.636 90.4192 187.622 95.0261 185.271 98.7197C182.921 102.412 179.177 105.281 175 106.59L174.753 106.667ZM177.555 78.3607C176.895 78.3607 176.237 78.4582 175.609 78.6557C173.885 79.1992 172.401 80.5021 171.638 82.1408C170.162 85.3112 168.615 89.0131 168.332 92.4311C168.074 95.546 168.43 98.0198 169.422 99.9936C170.487 102.111 172.317 103.451 174.353 103.62C177.756 102.486 180.795 100.12 182.72 97.0945C184.693 93.9936 185.545 90.1252 185.055 86.4832C184.616 83.2076 183.048 80.4972 180.86 79.2321C179.865 78.6572 178.709 78.3607 177.555 78.3607Z" fill="#1F404D"/>
<path d="M167.913 99.6563C167.679 99.6563 167.442 99.6017 167.219 99.4869C166.477 99.1031 166.187 98.1898 166.571 97.4479C169.435 91.9127 174.14 87.456 179.822 84.8986C180.583 84.5559 181.479 84.8952 181.822 85.6574C182.165 86.4191 181.825 87.315 181.064 87.6577C176.002 89.9366 171.809 93.9073 169.257 98.8386C168.989 99.3584 168.461 99.6563 167.913 99.6563Z" fill="#1F404D"/>
<path d="M34.0095 101.803C32.5715 100.097 30.399 99.0341 28.1706 98.9438C25.9421 98.8535 23.6909 99.7383 22.1197 101.322C19.7585 103.701 19.1032 107.359 19.5428 110.683C20.0737 114.698 22.0633 118.504 25.0561 121.232C28.0494 123.96 32.0228 125.588 36.0686 125.744C38.796 124.898 40.5781 122.529 41.148 119.73C41.7179 116.931 41.1336 114.013 40.1608 111.328C38.9138 107.886 36.3697 104.601 34.0095 101.803Z" fill="#F6E2D7"/>
<path d="M36.2698 127.265L36.0112 127.255C31.6377 127.086 27.274 125.298 24.0389 122.35C20.8033 119.402 18.6188 115.221 18.0445 110.881C17.4809 106.62 18.5753 102.747 21.0474 100.255C22.9072 98.3809 25.5807 97.3277 28.2333 97.4315C30.8719 97.5381 33.4642 98.8071 35.1672 100.826C37.5935 103.703 40.2534 107.141 41.5838 110.812C42.8437 114.289 43.1864 117.305 42.6319 120.031C41.9163 123.548 39.6304 126.223 36.5179 127.188L36.2698 127.265ZM27.8598 100.45C26.1361 100.45 24.4085 101.164 23.1944 102.387C21.4138 104.181 20.6098 107.208 21.0427 110.484C21.5248 114.129 23.3594 117.638 26.0757 120.114C28.7255 122.529 32.2776 124.016 35.8587 124.219C37.7793 123.523 39.1946 121.751 39.6676 119.428C40.1086 117.263 39.8051 114.782 38.7401 111.844C37.5718 108.619 35.1097 105.452 32.8552 102.778C31.6898 101.397 29.9165 100.528 28.1107 100.456C28.0268 100.452 27.9428 100.45 27.8598 100.45Z" fill="#1F404D"/>
<path d="M40.6371 118.759C40.2279 118.759 39.821 118.595 39.5223 118.269C36.7746 115.275 30.0661 111.346 25.2004 110.572C24.3757 110.44 23.8135 109.665 23.9448 108.84C24.0765 108.015 24.8525 107.452 25.6762 107.584C30.8483 108.408 38.2093 112.364 41.7503 116.224C42.3154 116.839 42.2744 117.796 41.6586 118.361C41.3691 118.628 41.0024 118.759 40.6371 118.759Z" fill="#1F404D"/>
<path d="M178.617 115.982C176.923 133.656 165.042 146.516 149.445 153.948C141.061 157.941 132.043 160.419 123.005 162.56C98.5123 168.359 59.7569 174.405 43.9202 148.564C35.9334 135.532 33.6706 119.82 34.7424 104.696C34.8664 102.966 35.0305 101.242 35.239 99.5298C37.8318 78.0596 46.0464 55.6656 61.7711 40.8403C67.558 35.3862 74.363 30.9574 82.2785 27.9729C85.6549 26.7019 89.1463 25.75 92.6945 25.1205C102.933 23.2925 113.648 24.1122 123.501 27.4443C123.533 27.453 123.564 27.4645 123.596 27.4761C126.648 28.5125 129.615 29.7893 132.458 31.3084C132.481 31.318 132.503 31.3306 132.523 31.3436C133.571 31.8997 134.599 32.4914 135.612 33.1156C145.554 39.2473 153.452 47.866 159.799 57.592C162.29 61.4121 164.62 65.3384 166.757 69.3685C168.745 73.1138 170.624 77.0141 172.279 81.0278C176.861 92.1256 179.761 104.083 178.617 115.982Z" fill="#F6E2D7"/>
<g opacity="0.5">
<path d="M145.035 57.5404C148.9 67.0554 151.439 77.1869 151.717 87.454C144.218 88.1095 136.702 88.526 129.203 89.1811C127.18 74.1642 120.497 60.2748 110.312 49.0616C116.065 61.4956 118.601 75.314 118.449 89.0146C109.544 93.3879 98.9642 95.5948 89.05 95.3529C87.9671 89.0927 86.8876 82.0988 85.8077 75.8387C85.3488 82.791 84.9714 89.2472 84.512 96.1962C76.9894 98.7444 67.6596 99.1895 59.7171 99.1393C59.6192 88.5198 60.0037 76.471 59.9053 65.8486C54.9706 77.1043 52.0202 89.8926 52.6645 102.165C46.9003 104.079 40.8215 104.805 34.7412 104.696C34.8652 102.966 35.0293 101.242 35.2378 99.5297C37.8306 78.0596 46.0452 55.6655 61.7699 40.8402C70.7113 33.1565 81.3416 27.4404 92.6933 25.1205C96.1688 24.408 99.7098 24.0137 103.294 23.9799C110.189 23.9123 117.002 25.1664 123.5 27.4443C123.531 27.4529 123.563 27.4645 123.595 27.4761C126.626 28.5419 129.587 29.8288 132.457 31.3083C132.479 31.318 132.502 31.3305 132.522 31.3435C133.57 31.8996 134.597 32.4914 135.61 33.1155C145.553 39.2473 153.451 47.866 159.798 57.592C162.289 61.4121 164.619 65.3384 166.756 69.3685C168.743 73.1138 170.623 77.014 172.278 81.0277C169.469 82.8871 165.983 84.3801 163.332 85.1225C160.519 73.4271 154.913 64.7022 145.035 57.5404Z" fill="#E2B8A3"/>
</g>
<path d="M87.2859 168.981C86.5905 168.981 85.8971 168.975 85.2046 168.965C73.6444 168.788 52.7186 165.991 42.4584 149.252C32.121 132.385 31.9029 112.687 33.5402 99.1323C35.4946 82.9564 40.3496 67.9849 47.5818 55.8362C56.1347 41.4686 67.6003 31.4969 81.6607 26.1978C99.3677 19.5258 120.371 21.5503 136.477 31.4829C145.813 37.2406 154.128 45.6492 161.191 56.4739C167.587 66.2752 172.507 76.0664 175.819 85.5747C180.072 97.7895 183.672 115.382 176.671 129.825C171.471 140.551 161.349 149.818 148.17 155.92C130.159 164.259 108.086 168.981 87.2859 168.981ZM103.439 25.6846C96.4077 25.6846 89.3937 26.8943 82.8521 29.36C58.2637 38.6264 41.0831 64.8609 36.894 99.5378C35.3208 112.559 35.509 131.448 45.3388 147.486C54.7536 162.847 74.3895 165.42 85.2567 165.587C106.163 165.907 128.582 161.265 146.751 152.854C159.224 147.079 168.771 138.377 173.631 128.351C180.127 114.951 176.672 98.2978 172.628 86.6868C169.408 77.4367 164.608 67.8937 158.363 58.3217C151.573 47.9165 143.614 39.8544 134.704 34.3598C125.42 28.633 114.411 25.6846 103.439 25.6846Z" fill="#1F404D"/>
<path d="M144.333 51.2256C148.198 60.7406 150.737 70.872 151.015 81.1396C143.517 81.7947 136.001 82.2117 128.502 82.8668C126.478 67.8498 119.795 53.9606 109.609 42.7474C115.363 55.1813 117.899 68.9997 117.746 82.7002C108.842 87.0735 98.2619 89.2804 88.3477 89.0386C87.2649 82.7784 86.1854 75.7845 85.1054 69.5243C84.6465 76.4767 84.2691 82.9324 83.8097 89.8819C76.2871 92.4301 66.9573 92.8751 59.0148 92.8249C58.9168 82.2055 59.3015 70.1567 59.203 59.5343C54.2683 70.79 51.318 83.5783 51.9622 95.8505C43.7268 98.5846 34.8506 98.894 26.2432 97.8156C27.5268 92.9939 28.9537 88.1804 30.5717 83.4373C35.3964 69.3081 41.9254 55.7803 51.4231 44.3422C64.1087 29.0637 82.7404 17.8567 102.591 17.6651C118.432 17.5087 133.818 24.338 146.009 34.4569C152.135 39.5407 157.517 45.4104 162.329 51.7546C167.094 58.0399 171.296 64.7871 175.096 71.697C172.468 74.8848 166.609 77.6951 162.63 78.8077C159.817 67.1123 154.211 58.3879 144.333 51.2256Z" fill="#5F0A87"/>
<path d="M162.329 51.7549C151.281 42.0077 137.534 35.3281 123.022 32.7669C105.89 29.7456 87.7953 32.4878 72.3268 40.4505C54.2902 49.731 40.4179 65.5858 30.5723 83.4372C35.3969 69.308 41.926 55.7802 51.4237 44.3421C64.1093 29.0635 82.7409 17.8566 102.592 17.665C118.433 17.5086 133.819 24.3379 146.01 34.4568C152.136 39.5411 157.518 45.4108 162.329 51.7549Z" fill="#2F004F" fill-opacity="0.72"/>
<path d="M35.1895 99.9063C32.2415 99.9063 29.1942 99.7098 26.0551 99.3154C25.6218 99.2609 25.2333 99.0219 24.9896 98.6599C24.7455 98.2979 24.6702 97.8475 24.7822 97.4256C31.0217 73.9711 39.1171 56.796 50.2599 43.3749C64.2609 26.5116 83.8191 16.3348 102.578 16.1514C117.713 16.0196 133.482 22.0915 146.976 33.2936C157.777 42.2594 167.408 54.5828 176.42 70.9691C176.719 71.5122 176.656 72.1827 176.262 72.661C173.515 75.9922 167.531 79.0081 163.04 80.2655C162.645 80.3761 162.221 80.3215 161.866 80.1135C161.512 79.9054 161.257 79.5622 161.161 79.163C158.815 69.409 154.588 62.0377 147.694 55.8648C150.685 64.5106 152.308 72.9777 152.527 81.0997C152.549 81.8995 151.944 82.5782 151.147 82.6472C147.385 82.9749 143.563 83.2481 139.867 83.5122C136.182 83.7757 132.372 84.0475 128.634 84.3734C127.82 84.4438 127.112 83.8689 127.004 83.0686C125.476 71.7352 121.246 60.9757 114.647 51.4882C117.799 61.204 119.379 71.8274 119.258 82.7186C119.252 83.2892 118.925 83.8081 118.412 84.0596C109.373 88.499 98.6756 90.8087 88.3107 90.5519C87.5888 90.5345 86.9803 90.0089 86.8573 89.2969C86.4982 87.2169 86.1354 85.0332 85.7768 82.8475C85.6296 85.1939 85.4795 87.5582 85.3198 89.9828C85.2798 90.5935 84.8754 91.1196 84.2959 91.316C76.0252 94.1167 65.9016 94.3837 59.0068 94.3393C58.1806 94.3339 57.5113 93.6668 57.5041 92.8409C57.4544 87.5114 57.5272 81.7373 57.5972 76.1534C57.6329 73.3262 57.6691 70.4507 57.6903 67.611C54.4533 77.1743 53.0032 86.783 53.4737 95.7733C53.5089 96.4535 53.0858 97.0738 52.4396 97.2881C47.1807 99.0316 41.4058 99.9063 35.1895 99.9063ZM28.1615 96.5109C36.3327 97.3493 43.8003 96.7619 50.4008 94.7606C50.0051 83.2819 52.5602 70.9208 57.8168 58.9276C58.1029 58.2745 58.8036 57.9105 59.5052 58.0529C60.2035 58.1958 60.7073 58.8079 60.7141 59.5208C60.7638 64.8451 60.6904 70.6129 60.6205 76.1915C60.5568 81.2391 60.4911 86.4432 60.5162 91.318C66.818 91.3079 75.2787 90.9478 82.3675 88.7602C82.5692 85.6665 82.7569 82.6626 82.9447 79.6583C83.1551 76.2885 83.3654 72.9188 83.5961 69.425C83.6463 68.6604 84.2606 68.0541 85.0255 68.014C85.7869 67.9745 86.4645 68.5117 86.5953 69.2671C87.1372 72.4042 87.6868 75.7769 88.2181 79.0385C88.6794 81.8676 89.1543 84.7803 89.6243 87.5447C98.8219 87.5838 108.173 85.541 116.238 81.7469C116.265 68.0131 113.504 54.7672 108.236 43.3826C107.922 42.7049 108.15 41.8993 108.773 41.4866C109.394 41.0748 110.225 41.1767 110.728 41.7299C120.961 52.9962 127.534 66.6286 129.794 81.2377C133.093 80.9625 136.42 80.7251 139.65 80.4943C142.865 80.2646 146.175 80.028 149.45 79.7553C149.022 70.7988 146.832 61.4 142.933 51.7952C142.679 51.1696 142.869 50.4518 143.401 50.0352C143.932 49.6186 144.676 49.6047 145.222 50.001C154.737 56.9003 160.64 65.475 163.704 76.8871C167.054 75.7281 170.997 73.6824 173.244 71.4774C164.571 55.9039 155.34 44.168 145.045 35.6222C132.1 24.8762 117.026 19.0403 102.608 19.1774C84.7263 19.3522 66.0271 29.1211 52.5873 45.3091C42.0018 58.0573 34.22 74.3596 28.1615 96.5109Z" fill="#1F404D"/>
<path d="M166.898 58.2605C154.663 44.0304 137.651 29.6685 118.357 26.3065C99.0597 22.945 81.0665 27.8005 64.905 38.8327C48.746 49.8615 36.3881 66.035 29.8987 84.4014C28.9456 66.2092 36.1401 47.9403 48.5747 34.5072C50.2975 32.6473 52.1211 30.8763 54.0359 29.2143C69.7804 15.5529 91.3373 9.03104 112.168 10.636C127.031 11.7849 142.628 19.3609 152.444 30.4839C153.551 31.7365 154.565 32.9997 155.504 34.2711C160.869 41.5551 163.748 49.2625 166.898 58.2605Z" fill="#FBF6BE"/>
<path d="M166.898 58.2606C154.663 44.0305 137.651 29.6687 118.357 26.3066C99.0597 22.9451 81.0665 27.8006 64.905 38.8328C48.746 49.8616 36.3881 66.0351 29.8987 84.4015C28.9456 66.2093 36.1401 47.9405 48.5747 34.5073C48.028 37.4692 47.4841 40.4339 46.9374 43.3958C63.4675 32.0088 81.8651 22.0612 101.879 20.5755C118.317 19.3513 134.767 23.9829 149.582 31.2099C151.581 32.1869 153.553 33.2059 155.504 34.2708C160.869 41.5553 163.748 49.2626 166.898 58.2606Z" fill="#F2EAA0"/>
<path d="M29.8986 86.0904C29.8185 86.0904 29.7374 86.0846 29.6559 86.073C28.8582 85.9576 28.2531 85.2944 28.2111 84.4892C27.1263 63.7803 36.5975 42.1117 52.9283 27.94C68.778 14.1854 90.4141 7.26678 112.297 8.95334C127.785 10.1485 143.654 17.9702 153.71 29.3664C161.195 37.8494 164.558 46.4613 168.492 57.7016C168.761 58.4681 168.446 59.3172 167.742 59.7231C167.038 60.1286 166.146 59.977 165.618 59.3616C154.956 46.9629 138.051 31.4526 118.065 27.9714C99.9577 24.8169 82.393 28.9406 65.8576 40.2282C50.0851 50.9949 37.8797 66.8826 31.4901 84.9642C31.2488 85.6463 30.6051 86.0904 29.8986 86.0904ZM105.802 12.0817C86.9889 12.0817 68.8089 18.6315 55.1423 30.4921C41.9366 41.9519 33.4368 58.5367 31.7956 75.3299C38.9273 60.1248 50.1169 46.8822 63.9539 37.4367C81.2406 25.6365 99.6426 21.3332 118.645 24.6422C136.239 27.7068 151.418 39.4935 162.359 50.7786C159.543 43.6177 156.408 37.5294 151.178 31.6022C141.68 20.8399 126.683 13.4521 112.037 12.3226C109.956 12.1614 107.873 12.0817 105.802 12.0817Z" fill="#1F404D"/>
<path d="M79.3092 124.97C83.3767 124.518 86.1395 119.344 85.4799 113.415C84.8203 107.487 80.9883 103.047 76.9207 103.5C72.8531 103.953 70.0903 109.126 70.7499 115.055C71.4095 120.984 75.2416 125.423 79.3092 124.97Z" fill="#1F404D"/>
<path d="M76.675 110.971C76.4366 109.253 75.4797 107.884 74.4055 108.004C73.4037 108.116 72.6065 109.685 72.844 111.398C73.0824 113.116 74.0398 114.485 75.1135 114.366C76.1152 114.254 76.9124 112.683 76.675 110.971Z" fill="white"/>
<path d="M68.3336 95.4554C67.9393 95.4554 67.5447 95.3019 67.2484 94.9959C66.6669 94.3963 66.6808 93.4386 67.2802 92.857C70.7783 89.4626 76.1965 88.3244 80.7634 90.0269C81.5461 90.3184 81.9442 91.1897 81.6528 91.9727C81.3613 92.7556 80.4874 93.1529 79.708 92.8618C76.2659 91.5798 72.0223 92.4704 69.3865 95.0282C69.0931 95.3135 68.7134 95.4554 68.3336 95.4554Z" fill="#1F404D"/>
<path d="M126.445 119.107C130.512 118.654 133.275 113.481 132.616 107.552C131.956 101.623 128.124 97.184 124.056 97.6367C119.989 98.0895 117.226 103.263 117.886 109.192C118.545 115.121 122.377 119.56 126.445 119.107Z" fill="#1F404D"/>
<path d="M125.909 104.881C125.764 103.152 126.397 101.607 127.471 101.487C128.473 101.376 129.596 102.732 129.74 104.454C129.886 106.183 129.252 107.728 128.179 107.848C127.177 107.96 126.054 106.604 125.909 104.881Z" fill="white"/>
<path d="M118.941 88.0394C118.448 88.0394 117.964 87.7976 117.674 87.353C117.217 86.6536 117.414 85.7162 118.113 85.2595C122.195 82.5955 127.731 82.5135 131.889 85.0544C132.602 85.4903 132.826 86.4214 132.391 87.1344C131.955 87.8473 131.023 88.0713 130.313 87.6364C127.178 85.7205 122.843 85.7852 119.767 87.7933C119.512 87.9598 119.225 88.0394 118.941 88.0394Z" fill="#1F404D"/>
<path d="M63.2756 152.745C71.2936 152.745 77.7934 146.244 77.7934 138.223C77.7934 130.203 71.2936 123.701 63.2756 123.701C55.2576 123.701 48.7578 130.203 48.7578 138.223C48.7578 146.244 55.2576 152.745 63.2756 152.745Z" fill="#F9CCC5"/>
<path d="M111.804 116.961C111.933 118.123 108.808 119.425 104.824 119.869C100.839 120.312 97.5043 119.73 97.375 118.567C97.2456 117.404 100.371 116.102 104.355 115.658C108.34 115.215 111.675 115.798 111.804 116.961Z" fill="#F9CCC5"/>
<path d="M148.28 141.205C156.263 140.454 162.126 133.373 161.375 125.387C160.625 117.402 153.545 111.538 145.562 112.288C137.58 113.039 131.717 120.121 132.467 128.106C133.218 136.091 140.297 141.956 148.28 141.205Z" fill="#F9CCC5"/>
<path d="M120.399 119.841C120.962 124.929 120.871 129.792 120.233 134.149C118.72 144.511 114.105 152.005 107.821 152.788C101.433 153.58 95.0278 147.223 91.0428 137.276C89.446 133.32 88.2449 128.788 87.5713 123.918L120.399 119.841Z" fill="#F9CCC5"/>
<path d="M120.234 134.149C118.721 144.51 114.106 152.005 107.822 152.788C101.434 153.579 95.0289 147.223 91.0439 137.276C95.608 135.282 100.466 133.973 105.424 133.443C110.359 132.916 115.371 133.166 120.234 134.149Z" fill="#EF9289"/>
<path d="M119.659 119.936C116.152 124.069 111.229 127.019 105.884 127.959C99.7655 129.04 93.263 127.448 88.2207 123.836L119.659 119.936Z" fill="white"/>
<path d="M106.75 154.061C100.372 154.061 94.0168 147.943 89.9228 137.725C88.2474 133.574 87.054 128.983 86.3755 124.083C86.3316 123.763 86.417 123.439 86.6139 123.183C86.8103 122.927 87.1013 122.76 87.4217 122.721L88.0201 122.646C88.0374 122.643 88.0544 122.641 88.0717 122.638L120.25 118.643C120.571 118.6 120.893 118.693 121.146 118.893C121.399 119.093 121.562 119.386 121.598 119.708C122.16 124.786 122.103 129.703 121.427 134.324C119.776 145.623 114.62 153.158 107.97 153.986C107.565 154.036 107.157 154.061 106.75 154.061ZM88.9451 124.962C89.6173 129.211 90.6973 133.196 92.1619 136.824C96.0315 146.483 102.122 152.286 107.673 151.59C113.198 150.901 117.554 144.152 119.041 133.974C119.633 129.926 119.727 125.63 119.323 121.19L88.9451 124.962Z" fill="#1F404D"/>
</svg>
