<svg width="138" height="138" viewBox="0 0 138 138" fill="none" xmlns="http://www.w3.org/2000/svg">
<g filter="url(#filter0_d_2_143)">
<circle cx="69.1628" cy="68.8373" r="56.8373" fill="#D9D9D9"/>
<path d="M88.1831 100.538C84.6865 100.538 81.843 97.6943 81.843 94.1977V83.1215C82.3407 83.4734 82.775 83.7936 83.0571 84.0123C83.6372 84.4688 84.3251 84.6875 85.013 84.6875C85.9514 84.6875 86.8834 84.2723 87.5079 83.4734C88.5889 82.0944 88.3479 80.1036 86.9721 79.0226C84.2808 76.9114 77.164 72.0073 69.1659 72.0073C61.1679 72.0073 54.0479 76.9146 51.3597 79.0226C49.9807 80.1036 49.7398 82.0944 50.824 83.4734C51.9081 84.8524 53.8989 85.0933 55.2747 84.0091C55.5537 83.7904 55.9912 83.4702 56.4889 83.1184V94.1945C56.4889 97.6911 53.6453 100.535 50.1488 100.535C48.3989 100.535 46.9787 101.955 46.9787 103.705C46.9787 105.455 48.3989 106.875 50.1488 106.875H88.1894C89.9393 106.875 91.3595 105.455 91.3595 103.705C91.3595 101.955 89.9393 100.535 88.1894 100.535L88.1831 100.538ZM61.1203 100.538C62.2013 98.6707 62.8226 96.5055 62.8226 94.1977V79.6725C64.7912 78.9054 66.9627 78.3474 69.1628 78.3474C71.3628 78.3474 73.5343 78.9085 75.5029 79.6725V94.1977C75.5029 96.5055 76.121 98.6707 77.2052 100.538H61.1203ZM43.8023 92.6127C43.8023 95.2375 41.672 97.3678 39.0472 97.3678C36.4224 97.3678 34.2921 95.2375 34.2921 92.6127C34.2921 89.9879 36.4224 87.8576 39.0472 87.8576C41.672 87.8576 43.8023 89.9879 43.8023 92.6127ZM107.203 102.123C107.203 104.748 105.073 106.878 102.448 106.878C99.8235 106.878 97.6933 104.748 97.6933 102.123C97.6933 99.498 99.8235 97.3678 102.448 97.3678C105.073 97.3678 107.203 99.498 107.203 102.123ZM98.5048 93.047C97.8771 93.8046 96.9737 94.1977 96.0607 94.1977C95.3506 94.1977 94.6342 93.96 94.0445 93.4718C92.6941 92.3559 92.5039 90.3588 93.6197 89.0083C98.2924 83.3498 100.866 76.1886 100.866 68.8373C100.866 51.3576 86.6456 37.1367 69.1659 37.1367C51.6862 37.1367 37.4622 51.3576 37.4622 68.8373C37.4622 71.7759 37.8616 74.6828 38.6541 77.4852C39.1296 79.1685 38.1501 80.9215 36.4668 81.397C34.7867 81.8757 33.0304 80.893 32.5549 79.2097C31.6039 75.8463 31.1221 72.356 31.1221 68.8373C31.1221 47.861 48.1865 30.7966 69.1628 30.7966C90.139 30.7966 107.203 47.861 107.203 68.8373C107.203 77.6595 104.113 86.2567 98.5048 93.047ZM86.7693 55.6245L81.2153 59.3271L86.7693 63.0297C88.2243 63.9997 88.6174 65.9684 87.6474 67.4266C87.0355 68.3427 86.0306 68.8373 85.0067 68.8373C84.4044 68.8373 83.7926 68.6661 83.2505 68.3047L73.7403 61.9646C72.859 61.3749 72.3296 60.3859 72.3296 59.3271C72.3296 58.2683 72.859 57.2792 73.7403 56.6896L83.2505 50.3495C84.7024 49.3763 86.6773 49.7725 87.6474 51.2276C88.6174 52.6826 88.2243 54.6544 86.7693 55.6245ZM51.5531 63.0297L57.107 59.3271L51.5531 55.6245C50.098 54.6544 49.7049 52.6858 50.675 51.2276C51.645 49.7725 53.6105 49.3763 55.0718 50.3495L64.582 56.6896C65.4633 57.2792 65.9927 58.2683 65.9927 59.3271C65.9927 60.3859 65.4633 61.3749 64.582 61.9646L55.0718 68.3047C54.5329 68.6661 53.9211 68.8373 53.3156 68.8373C52.2917 68.8373 51.2868 68.3427 50.675 67.4266C49.7049 65.9715 50.098 63.9997 51.5531 63.0297Z" fill="#2F004F"/>
</g>
<defs>
<filter id="filter0_d_2_143" x="0.3255" y="0" width="137.674" height="137.674" filterUnits="userSpaceOnUse" color-interpolation-filters="sRGB">
<feFlood flood-opacity="0" result="BackgroundImageFix"/>
<feColorMatrix in="SourceAlpha" type="matrix" values="0 0 0 0 0 0 0 0 0 0 0 0 0 0 0 0 0 0 127 0" result="hardAlpha"/>
<feOffset/>
<feGaussianBlur stdDeviation="6"/>
<feComposite in2="hardAlpha" operator="out"/>
<feColorMatrix type="matrix" values="0 0 0 0 0 0 0 0 0 0 0 0 0 0 0 0 0 0 0.25 0"/>
<feBlend mode="normal" in2="BackgroundImageFix" result="effect1_dropShadow_2_143"/>
<feBlend mode="normal" in="SourceGraphic" in2="effect1_dropShadow_2_143" result="shape"/>
</filter>
</defs>
</svg>
