<svg width="351" height="409" viewBox="0 0 351 409" fill="none" xmlns="http://www.w3.org/2000/svg">
<path d="M164.893 290.678C162.22 298.087 159.371 307.222 155.764 314.914C152.797 321.242 149.319 326.593 145.005 329.197C141.593 331.257 134.43 330.763 128.932 329.503C106.349 324.339 85.0212 318.829 63.7826 309.575C59.6887 313.907 55.1048 318.19 51.0122 322.517C54.5236 309.058 59.0422 296.847 65.9806 284.793C77.1733 285.199 88.3437 285.671 99.484 286.383C114.138 287.324 128.753 288.678 143.321 290.843L164.893 290.678Z" fill="#F6E2D7"/>
<path d="M164.894 290.678C162.22 298.087 159.371 307.222 155.764 314.914C135.2 309.735 115.774 299.956 99.4844 286.383C114.138 287.324 128.753 288.678 143.321 290.843L164.894 290.678Z" fill="#E8C5B3"/>
<path d="M137.97 332.166C134.848 332.166 131.486 331.694 128.582 331.03C104.383 325.498 84.1133 320.031 64.1612 311.447C62.319 313.367 60.3812 315.291 58.4996 317.159C56.3757 319.267 54.1796 321.448 52.1507 323.594C51.6593 324.115 50.8795 324.234 50.2534 323.888C49.6281 323.541 49.3174 322.816 49.4975 322.123C53.3451 307.369 58.1509 295.259 64.6206 284.011C64.9105 283.508 65.4593 283.22 66.035 283.227C89.4729 284.079 116.712 285.32 143.43 289.274L164.882 289.111C164.886 289.111 164.89 289.111 164.893 289.111C165.401 289.111 165.878 289.358 166.172 289.773C166.468 290.191 166.54 290.728 166.366 291.209C165.699 293.059 165.028 294.994 164.318 297.043C159.732 310.277 154.534 325.277 145.812 330.539C143.867 331.711 141.034 332.166 137.97 332.166ZM63.7819 308.009C63.9926 308.009 64.2052 308.052 64.4072 308.139C84.4624 316.879 104.845 322.39 129.28 327.976C135.564 329.413 141.698 329.363 144.196 327.855C151.948 323.178 157.167 308.118 161.361 296.016C161.809 294.722 162.242 293.473 162.669 292.26L143.333 292.406C143.237 292.407 143.17 292.401 143.092 292.389C116.853 288.498 90.0434 287.241 66.869 286.391C61.6372 295.639 57.5303 305.526 54.143 317.075C54.8627 316.355 55.5824 315.641 56.2947 314.934C58.4185 312.826 60.6146 310.645 62.6435 308.499C62.9455 308.18 63.36 308.009 63.7819 308.009Z" fill="#1F404D"/>
<path d="M169.482 292.134C172.694 299.327 176.206 308.226 180.37 315.632C183.794 321.724 187.657 326.805 192.151 329.084C195.705 330.887 202.812 329.867 208.203 328.206C230.345 321.393 251.208 314.327 271.708 303.535C276.11 307.554 280.996 311.487 285.397 315.502C280.904 302.338 275.499 290.492 267.692 278.982C256.56 280.211 245.454 281.504 234.397 283.034C219.852 285.052 205.376 287.478 191.008 290.71L169.482 292.134Z" fill="#F6E2D7"/>
<path d="M169.482 292.134C172.694 299.327 176.206 308.226 180.37 315.632C200.497 308.953 219.151 297.77 234.398 283.034C219.853 285.052 205.377 287.478 191.008 290.71L169.482 292.134Z" fill="#E8C5B3"/>
<path d="M197.373 331.604C195.093 331.604 193.017 331.279 191.442 330.481C182.357 325.876 176.07 311.301 170.522 298.442C169.663 296.45 168.852 294.569 168.05 292.773C167.841 292.305 167.874 291.764 168.138 291.326C168.402 290.887 168.864 290.605 169.376 290.572L190.782 289.153C217.138 283.242 244.211 279.999 267.522 277.424C268.092 277.36 268.663 277.621 268.989 278.102C276.27 288.843 281.954 300.566 286.877 314.997C287.108 315.674 286.85 316.421 286.253 316.813C285.655 317.205 284.867 317.142 284.339 316.66C282.157 314.667 279.805 312.654 277.531 310.707C275.518 308.983 273.445 307.208 271.467 305.429C252.201 315.459 232.388 322.404 208.662 329.703C205.191 330.771 201.021 331.604 197.373 331.604ZM171.815 293.549C172.331 294.728 172.855 295.942 173.398 297.201C178.47 308.96 184.784 323.595 192.858 327.687C195.461 329.006 201.582 328.604 207.742 326.71C231.7 319.34 251.622 312.342 270.98 302.15C271.564 301.843 272.278 301.934 272.765 302.379C274.946 304.37 277.295 306.382 279.567 308.327C280.33 308.98 281.102 309.641 281.873 310.306C277.646 299.038 272.822 289.48 266.924 280.642C243.876 283.196 217.233 286.423 191.35 292.236C191.27 292.254 191.19 292.266 191.11 292.271L171.815 293.549Z" fill="#1F404D"/>
<path d="M224.465 283.715C212.905 293.573 187.6 309.713 171.206 307.804C169.757 302.301 169.279 295.324 168.636 288.264C168.265 284.159 167.839 280.027 167.131 276.141C166.853 280.125 166.38 284.104 165.815 287.972C164.736 295.407 163.333 302.426 162.407 308.267C141.131 309.337 128.599 295.759 113.316 283.715C114.456 279.087 115.729 274.969 117.114 271.165C121.347 259.528 126.617 250.782 132.23 239.076L204.287 237.477C213.586 251.695 219.569 266.371 224.066 282.283C224.201 282.761 224.335 283.238 224.465 283.715Z" fill="#7A94A1"/>
<path d="M117.114 271.165C131.744 280.291 148.629 285.966 165.815 287.972C164.736 295.407 163.333 302.426 162.407 308.267C141.131 309.338 128.599 295.76 113.316 283.715C114.456 279.087 115.729 274.969 117.114 271.165Z" fill="#5D7D89"/>
<path d="M224.067 282.283C224.201 282.761 224.335 283.238 224.465 283.715C212.906 293.573 187.601 309.713 171.207 307.804C169.757 302.301 169.28 295.324 168.636 288.264C187.263 290.01 206.098 287.657 224.067 282.283Z" fill="#5D7D89"/>
<path d="M173.77 309.813C172.749 309.813 171.754 309.759 170.787 309.647C170.125 309.569 169.577 309.094 169.407 308.449C168.105 303.505 167.523 297.695 166.999 291.513C166.455 295.12 165.864 298.6 165.305 301.892C164.921 304.149 164.559 306.28 164.24 308.29C164.12 309.047 163.485 309.616 162.72 309.655C140.94 310.753 125.345 297.561 112.424 285.114C112.008 284.713 111.836 284.12 111.974 283.559C115.651 268.617 120.505 258.955 126.126 247.767C127.628 244.777 129.181 241.686 130.769 238.374C131.156 237.567 132.123 237.227 132.931 237.613C133.739 238 134.079 238.969 133.692 239.777C132.091 243.115 130.531 246.22 129.023 249.224C123.605 260.006 118.911 269.349 115.349 283.428C127.38 294.951 141.813 306.893 161.25 306.464C161.516 304.832 161.806 303.13 162.109 301.349C163.416 293.657 164.898 284.939 165.516 276.027C165.573 275.197 166.25 274.545 167.082 274.519C167.91 274.504 168.63 275.101 168.74 275.926C169.319 280.297 169.682 284.672 170.034 288.904C170.568 295.34 171.076 301.443 172.269 306.524C187.9 307.511 212.804 292.444 223.781 283.376C219.383 267.819 212.557 253.084 202.932 238.366C202.442 237.616 202.653 236.611 203.402 236.121C204.15 235.63 205.156 235.841 205.645 236.59C215.663 251.91 222.709 267.26 227.186 283.516C227.353 284.124 227.154 284.773 226.675 285.181C217.202 293.257 191.655 309.812 173.77 309.813Z" fill="#1F404D"/>
<path d="M264.626 107.696C260.721 87.9563 252.505 68.8618 241.742 52.5965C222.978 24.2378 194.904 0.294061 158.917 1.67919C141.89 2.3347 125.958 9.33125 113.142 20.4262C91.8302 38.8749 84.6899 69.055 78.4934 95.5675C74.0558 114.554 69.6182 133.54 65.1801 152.526C62.865 162.431 60.5383 172.682 62.394 182.684C63.806 190.294 67.593 197.307 72.3306 203.427C106.355 247.379 176.427 247.321 220.113 219.334C242.995 204.675 259.266 181.63 264.87 154.953C268.112 139.525 267.734 123.406 264.626 107.696Z" fill="#5F0A87"/>
<path d="M88.2155 101.654C88.4902 109.43 89.3321 117.17 91.0882 124.776C94.8969 141.272 103.711 158.349 118.281 167.788C132.701 177.131 150.759 179.201 167.444 176.413C168.459 176.244 169.472 176.055 170.48 175.85C187.657 172.346 204.057 164.255 218.732 154.823C230.721 147.115 241.886 136.787 247.588 123.481C256.639 102.358 248.486 80.5139 237.192 62.0541C228.096 47.1882 215.651 32.0527 200.52 23.1657C191.299 17.7497 180.798 14.3462 170.107 14.0928C156.234 13.7644 142.915 18.6804 130.663 24.7671C119.091 30.5161 108.255 37.3033 100.624 47.9971C89.064 64.1966 87.5348 82.3882 88.2155 101.654Z" fill="#C37FE2" fill-opacity="0.52"/>
<path d="M172.993 238.617C162.932 240.231 152.641 240.714 142.481 239.974C112.477 237.791 87.1087 225.164 71.0492 204.419C65.5766 197.349 62.1281 190.136 60.8008 182.979C58.8525 172.477 61.376 161.682 63.6027 152.156L76.916 95.198C83.1732 68.4279 90.2644 38.086 112.081 19.1996C125.796 7.32728 141.97 0.707386 158.855 0.0583661C175.955 -0.599456 192.387 4.30593 207.695 14.6398C220.737 23.4439 232.647 35.9129 243.094 51.7016C254.393 68.7771 262.389 88.0309 266.217 107.382C269.533 124.144 269.613 140.261 266.457 155.286C263.636 168.715 258.2 181.261 250.301 192.578C242.473 203.792 232.611 213.253 220.988 220.699C206.913 229.716 190.295 235.842 172.993 238.617ZM150.82 4.10817C137.645 6.222 125.121 12.2003 114.202 21.6516C93.1816 39.8497 86.2167 69.6472 80.0721 95.9364L66.7588 152.894C64.6053 162.11 62.1638 172.555 63.988 182.388C65.2204 189.031 68.4585 195.776 73.6121 202.433C107.3 245.951 176.109 245.599 219.239 217.968C242.142 203.296 257.784 180.798 263.285 154.619C266.35 140.024 266.267 124.343 263.036 108.011C259.289 89.0705 251.458 70.2179 240.39 53.4911C227.539 34.0706 199.876 1.72469 158.979 3.29883C156.239 3.40445 153.515 3.67595 150.82 4.10817Z" fill="#1F404D"/>
<path d="M20.7466 202.067C18.1703 203.134 18.2791 203.038 20.7466 202.067V202.067Z" fill="#F6E2D7"/>
<path d="M35.1879 205.06C31.25 206.735 26.9759 206.139 23.2209 206.628C19.7526 207.055 16.5794 208.901 13.0055 210.235C11.6435 210.817 10.1628 210.83 9.29959 209.525C9.18056 208.956 9.62984 208.273 10.137 207.867C13.4779 205.395 16.9948 203.769 20.7489 202.065C16.9379 203.488 12.9583 204.315 8.81058 205.773C7.96029 205.949 6.88031 206.469 5.911 206.081C5.16677 205.345 4.99029 204.494 5.43997 203.807C5.64189 203.614 5.84343 203.427 6.04442 203.244C6.19679 203.105 6.34864 202.97 6.50471 202.84C7.22393 202.22 7.96355 201.652 8.72306 201.131C8.91201 200.999 9.10048 200.876 9.29314 200.753C9.3075 200.745 9.31723 200.736 9.33158 200.728C9.51498 200.613 9.69329 200.499 9.87622 200.389C10.0689 200.271 10.2662 200.157 10.463 200.044C10.6409 199.943 10.8136 199.847 10.9909 199.751C11.015 199.738 11.0345 199.726 11.0581 199.718C11.4369 199.513 11.8195 199.322 12.2062 199.146C12.2497 199.121 12.2923 199.101 12.34 199.085C12.5211 199.003 12.7026 198.921 12.8878 198.844C13.1551 198.725 13.4214 198.616 13.6919 198.516C13.9104 198.432 14.1337 198.348 14.3565 198.269C14.4565 198.228 14.5606 198.193 14.6643 198.162C14.6884 198.15 14.7121 198.142 14.7403 198.134C14.7454 198.13 14.75 198.13 14.7547 198.131C14.7639 198.131 14.769 198.127 14.7783 198.123C13.7303 198.343 12.679 198.544 11.6277 198.745C10.4125 198.974 9.19264 199.197 7.97649 199.435C7.44159 199.537 6.91085 199.645 6.37503 199.756C5.23807 199.994 3.47552 200.064 2.89384 198.702C2.5993 197.278 4.18542 196.357 5.26031 195.92C9.43624 193.758 13.9488 192.239 18.5754 191.38C15.2113 191.93 11.8468 192.483 8.48223 193.033C7.00118 193.278 1.44654 194.916 1.84946 191.77C2.0083 190.522 3.224 189.904 4.26092 189.474C5.58868 188.923 6.94888 188.443 8.31229 187.992C13.7085 186.21 19.3905 185.081 25.0906 185.187C23.8735 182.436 22.6518 179.689 21.4296 176.943C20.9271 175.812 18.7144 171.642 21.3088 171.324C22.2155 171.212 23.364 172.172 24.0425 172.691C24.9117 173.356 25.6902 174.141 26.4206 174.955C28.8195 177.647 31.0351 180.537 33.2465 183.413C32.6926 190.226 32.907 197.074 35.2564 203.361L35.1879 205.06Z" fill="#F6E2D7"/>
<path d="M11.3567 212.229C9.95113 212.229 8.73309 211.607 7.9481 210.42C7.8351 210.249 7.75541 210.059 7.71326 209.858C7.43215 208.513 8.29821 207.263 9.12534 206.602C9.14109 206.59 9.1573 206.577 9.17351 206.565C11.9619 204.502 14.9384 202.974 17.7407 201.663C17.8496 201.557 17.9755 201.466 18.1163 201.392C18.3956 201.247 19.8679 200.67 20.1606 200.555C20.9766 200.237 21.9023 200.626 22.2431 201.436C22.5844 202.245 22.2191 203.179 21.4198 203.542C18.0562 205.069 14.5804 206.647 11.3441 208.994C11.597 208.991 11.9222 208.936 12.37 208.745C12.3931 208.736 12.4163 208.726 12.439 208.717C13.4972 208.322 14.5457 207.869 15.5595 207.431C17.9334 206.404 20.3884 205.343 23.0235 205.019C24.3114 204.852 25.6624 204.805 26.9693 204.759C29.5289 204.671 32.1761 204.58 34.5546 203.569C35.3776 203.216 36.3303 203.603 36.6804 204.427C37.031 205.25 36.647 206.203 35.8227 206.553C32.8897 207.801 29.8035 207.907 27.0809 208.001C25.7934 208.045 24.5769 208.087 23.4307 208.236C21.2466 208.505 19.1088 209.429 16.8456 210.408C15.805 210.858 14.7291 211.323 13.606 211.743C12.8289 212.069 12.0685 212.229 11.3567 212.229Z" fill="#1F404D"/>
<path d="M6.6814 207.846C6.24283 207.846 5.78104 207.777 5.30912 207.588C5.10767 207.507 4.9248 207.387 4.77104 207.235C3.47663 205.954 3.20658 204.26 4.08326 202.92C4.15134 202.816 4.23151 202.719 4.32229 202.633C4.533 202.432 4.74374 202.237 4.95353 202.046C5.12211 201.891 5.29246 201.74 5.46798 201.594C5.50457 201.563 5.54162 201.53 5.57867 201.499C3.5743 201.629 2.0506 200.855 1.4027 199.339C1.36009 199.239 1.32815 199.136 1.30592 199.03C1.00211 197.559 1.65656 196.223 3.12695 195.22C2.36374 195.099 1.68845 194.827 1.15169 194.332C0.422285 193.66 0.0991121 192.677 0.241289 191.564C0.533979 189.263 2.79113 188.328 3.64095 187.976C4.83533 187.48 6.11958 187.01 7.80302 186.453C12.9719 184.745 17.9416 183.788 22.6126 183.596C21.7262 181.597 20.8375 179.599 19.9492 177.602C19.908 177.51 19.8548 177.396 19.7936 177.265C18.8354 175.213 17.8925 172.881 18.8433 171.164C19.2921 170.354 20.0979 169.84 21.1116 169.715C22.6071 169.532 23.9635 170.58 24.8619 171.276L25.0269 171.403C25.8661 172.045 26.6923 172.83 27.6273 173.872C30.0216 176.56 32.2483 179.455 34.4008 182.255L34.5314 182.425C35.0774 183.135 34.9445 184.152 34.2345 184.699C33.525 185.245 32.5076 185.112 31.9616 184.402L31.8314 184.232C29.7136 181.478 27.5231 178.629 25.2103 176.033C24.417 175.149 23.7319 174.495 23.0576 173.979L22.8775 173.84C22.6367 173.654 22.08 173.223 21.6952 173.03C21.7461 173.462 21.9832 174.294 22.7297 175.892C22.8006 176.044 22.8627 176.176 22.9104 176.284C24.133 179.031 25.3552 181.779 26.5723 184.531C26.796 185.038 26.7459 185.623 26.4398 186.085C26.1336 186.546 25.5992 186.817 25.0597 186.809C20.0455 186.728 14.5766 187.631 8.82049 189.532C7.21626 190.063 6.00154 190.507 4.88219 190.972C4.54272 191.112 3.51223 191.539 3.45665 191.974C3.45619 191.979 3.45576 191.983 3.4553 191.987C3.86052 192.12 4.88537 192.129 7.37879 191.6C7.71779 191.528 8.00586 191.468 8.21797 191.433L18.3144 189.78C19.1888 189.635 20.0196 190.227 20.1724 191.102C20.3248 191.978 19.7446 192.812 18.8711 192.975C14.3261 193.819 9.99734 195.294 6.00527 197.361C5.96127 197.384 5.91635 197.404 5.87004 197.423C5.17073 197.707 4.7687 198.01 4.58901 198.204C4.87105 198.293 5.4059 198.303 6.04315 198.17C6.58824 198.057 7.12737 197.948 7.67107 197.843C8.54126 197.673 9.41842 197.509 10.2951 197.346L11.3278 197.153C12.3949 196.954 13.3744 196.762 14.3228 196.566C14.7346 196.427 15.1565 196.298 15.5862 196.178C15.7645 196.084 15.997 196.009 16.3147 195.935L16.3143 195.932C16.324 195.931 16.3356 195.929 16.3485 195.927C16.7334 195.838 17.2395 195.749 17.9189 195.629L18.0022 195.614C18.0819 195.599 18.1616 195.584 18.2412 195.572C18.3987 195.543 18.5655 195.515 18.741 195.485L18.8966 195.458C18.8975 195.458 18.8984 195.458 18.8988 195.458C19.3082 195.387 19.7065 195.478 20.0325 195.682C20.0335 195.682 20.0345 195.683 20.0345 195.683C20.1762 195.772 20.3035 195.883 20.4119 196.012C20.4128 196.013 20.4132 196.014 20.4137 196.014C20.4137 196.014 20.4137 196.015 20.4141 196.015C20.5809 196.214 20.7023 196.456 20.7583 196.727C20.7852 196.855 20.7958 196.984 20.7917 197.109C20.7819 197.401 20.6943 197.678 20.5447 197.917C20.4396 198.084 20.3044 198.233 20.1441 198.353C19.9867 198.471 19.8057 198.562 19.6061 198.618C18.3019 198.993 16.8969 199.336 15.1954 199.695C15.1717 199.703 15.1481 199.71 15.1245 199.717C15.0698 199.733 15.0151 199.752 14.9623 199.773C14.9332 199.784 14.9045 199.795 14.8753 199.805C14.6831 199.87 14.4904 199.943 14.301 200.019C14.2857 200.026 14.2704 200.031 14.2542 200.037C14.0162 200.125 13.7814 200.221 13.5471 200.326C13.5244 200.336 13.5013 200.345 13.4786 200.355C13.3295 200.413 13.184 200.479 13.0381 200.549C13.0089 200.562 12.9797 200.576 12.9506 200.587C12.9274 200.599 12.9043 200.61 12.8811 200.621C12.5292 200.782 12.1753 200.958 11.8294 201.145C11.8007 201.16 11.772 201.175 11.7423 201.189C11.7363 201.191 11.7321 201.194 11.7289 201.196C11.5974 201.268 11.432 201.36 11.2625 201.456C11.074 201.561 10.8972 201.667 10.7235 201.773C10.5383 201.885 10.3826 201.977 10.2306 202.079C10.2283 202.08 10.2261 202.082 10.2238 202.084C10.2052 202.096 10.1853 202.11 10.1659 202.121L10.1663 202.122C9.99311 202.231 9.82453 202.342 9.65503 202.46C8.92655 202.959 8.22822 203.497 7.56411 204.07C7.40572 204.202 7.27236 204.32 7.13898 204.443C7.09359 204.484 7.04857 204.525 7.00319 204.566C7.23428 204.523 7.49644 204.448 7.71595 204.385C7.94103 204.32 8.16007 204.259 8.368 204.212C10.3534 203.518 12.2934 202.966 14.1695 202.431C16.2647 201.834 18.2444 201.27 20.1826 200.547C21.0116 200.238 21.9336 200.649 22.2569 201.472C22.5811 202.294 22.187 203.224 21.371 203.564C20.9023 203.758 19.8557 204.191 19.4704 204.335C19.2486 204.426 19.0119 204.465 18.7762 204.454C17.5591 204.837 16.3286 205.188 15.0569 205.55C13.1965 206.08 11.2736 206.627 9.34795 207.304C9.27987 207.328 9.20997 207.348 9.13911 207.362C8.971 207.397 8.79229 207.449 8.60612 207.503C8.06752 207.656 7.40572 207.846 6.6814 207.846Z" fill="#1F404D"/>
<path d="M31.4128 198.407C30.9455 198.407 30.4824 198.206 30.1619 197.818C27.9987 195.196 26.5561 192.039 25.9892 188.688C25.8401 187.805 26.4347 186.968 27.3174 186.819C28.2015 186.671 29.0366 187.264 29.1857 188.147C29.6576 190.939 30.8593 193.569 32.6618 195.753C33.2314 196.444 33.1342 197.466 32.4437 198.036C32.1417 198.285 31.7758 198.407 31.4128 198.407Z" fill="#1F404D"/>
<path d="M333.157 134.888C335.804 134.746 335.943 134.788 333.157 134.888V134.888Z" fill="#F6E2D7"/>
<path d="M321.266 143.614C325.543 143.501 329.183 141.182 332.802 140.065C336.133 139.011 339.787 139.371 343.592 139.1C345.072 139.063 346.425 138.459 346.667 136.913C346.539 136.346 345.847 135.912 345.217 135.753C341.152 134.894 337.277 134.877 333.155 134.887C337.212 134.596 341.176 133.695 345.554 133.297C346.4 133.104 347.598 133.128 348.319 132.372C348.69 131.393 348.497 130.546 347.802 130.108C347.539 130.017 347.277 129.93 347.018 129.848C346.822 129.784 346.628 129.725 346.432 129.672C345.52 129.407 344.612 129.197 343.704 129.04C343.477 128.998 343.255 128.964 343.028 128.932C343.011 128.93 342.999 128.927 342.982 128.925C342.768 128.898 342.558 128.867 342.346 128.844C342.122 128.816 341.896 128.795 341.669 128.774C341.466 128.756 341.269 128.74 341.067 128.727C341.041 128.725 341.017 128.721 340.993 128.724C340.563 128.696 340.136 128.682 339.711 128.682C339.661 128.677 339.614 128.676 339.564 128.681C339.365 128.682 339.166 128.683 338.966 128.69C338.673 128.693 338.386 128.704 338.098 128.726C337.864 128.74 337.627 128.757 337.391 128.777C337.284 128.782 337.174 128.793 337.066 128.808C337.04 128.807 337.015 128.809 336.986 128.814C336.98 128.812 336.976 128.814 336.972 128.816C336.963 128.821 336.957 128.819 336.947 128.819C337.991 128.584 339.031 128.33 340.071 128.076C341.271 127.778 342.473 127.474 343.678 127.185C344.207 127.056 344.734 126.933 345.268 126.812C346.401 126.556 348.033 125.887 347.996 124.406C347.672 122.988 345.847 122.81 344.688 122.86C339.991 122.63 335.256 123.124 330.691 124.266C333.979 123.367 337.27 122.472 340.558 121.573C342.007 121.18 347.739 120.361 346.066 117.667C345.404 116.598 344.041 116.541 342.919 116.581C341.482 116.632 340.046 116.761 338.618 116.917C332.969 117.54 327.332 118.875 322.192 121.342C322.156 118.333 322.126 115.327 322.096 112.321C322.084 111.084 322.363 106.371 319.872 107.161C319.001 107.435 318.355 108.786 317.954 109.54C317.439 110.507 317.057 111.544 316.731 112.589C315.668 116.035 314.854 119.584 314.037 123.12C317.371 129.086 320.021 135.404 320.496 142.098L321.266 143.614Z" fill="#F6E2D7"/>
<path d="M321.265 145.236C320.39 145.236 319.669 144.538 319.646 143.657C319.622 142.762 320.328 142.017 321.223 141.993C323.806 141.925 326.25 140.908 328.615 139.924C329.823 139.421 331.072 138.902 332.324 138.515C334.845 137.718 337.52 137.663 340.105 137.609C341.209 137.586 342.351 137.563 343.477 137.483C343.502 137.481 343.527 137.479 343.552 137.479C344.039 137.467 344.367 137.387 344.589 137.279C340.67 136.49 336.856 136.501 333.158 136.509C333.157 136.509 333.156 136.509 333.154 136.509C332.278 136.509 331.56 135.812 331.534 134.936C331.508 134.057 332.186 133.318 333.063 133.269C333.378 133.251 334.969 133.163 335.275 133.181C335.432 133.19 335.582 133.22 335.724 133.27C338.817 133.298 342.159 133.45 345.552 134.167C345.572 134.172 345.592 134.176 345.612 134.181C346.64 134.44 347.946 135.216 348.249 136.556C348.294 136.756 348.301 136.962 348.269 137.164C347.936 139.284 346.176 140.643 343.672 140.719C342.476 140.804 341.305 140.828 340.172 140.851C337.706 140.902 335.378 140.951 333.29 141.611C332.174 141.955 331.05 142.423 329.86 142.918C327.344 143.964 324.494 145.15 321.309 145.235C321.295 145.236 321.28 145.236 321.265 145.236Z" fill="#1F404D"/>
<path d="M333.153 136.509C332.295 136.509 331.582 135.837 331.536 134.974C331.489 134.092 332.157 133.334 333.039 133.27C335.103 133.123 337.138 132.813 339.293 132.484C341.221 132.19 343.214 131.886 345.308 131.692C345.516 131.649 345.741 131.614 345.973 131.579C346.198 131.545 346.468 131.504 346.697 131.447C346.64 131.429 346.583 131.41 346.526 131.392C346.35 131.336 346.181 131.284 346.011 131.237C345.143 130.985 344.284 130.786 343.428 130.638C343.206 130.597 343.007 130.567 342.804 130.538V130.538C342.781 130.535 342.757 130.531 342.735 130.528C342.732 130.527 342.73 130.527 342.727 130.526C342.549 130.498 342.371 130.478 342.194 130.459C341.953 130.43 341.749 130.406 341.549 130.391C341.342 130.373 341.161 130.359 340.978 130.346C340.947 130.345 340.916 130.344 340.886 130.342C340.495 130.316 340.111 130.295 339.714 130.304C339.71 130.313 339.661 130.304 339.634 130.302C339.601 130.303 339.567 130.304 339.536 130.303C339.374 130.3 339.217 130.3 339.058 130.309C339.034 130.311 339.009 130.311 338.984 130.312C338.728 130.315 338.474 130.324 338.222 130.343C338.205 130.345 338.188 130.346 338.171 130.347C337.968 130.355 337.762 130.369 337.561 130.391C337.528 130.394 337.494 130.397 337.461 130.398C337.405 130.4 337.348 130.407 337.292 130.415C337.27 130.418 337.247 130.42 337.225 130.423C335.527 130.804 334.106 131.077 332.763 131.277C332.556 131.31 332.352 131.302 332.158 131.259C331.961 131.215 331.775 131.135 331.609 131.025C331.609 131.025 331.609 131.025 331.609 131.024C331.38 130.872 331.19 130.661 331.062 130.407C331.061 130.407 331.061 130.407 331.061 130.407C331.002 130.291 330.957 130.165 330.927 130.033C330.866 129.761 330.877 129.488 330.948 129.236C330.949 129.235 330.948 129.235 330.949 129.234C330.991 129.084 331.055 128.942 331.137 128.81C331.138 128.81 331.138 128.809 331.139 128.809C331.139 128.809 331.139 128.808 331.139 128.807C331.347 128.48 331.672 128.225 332.073 128.114C332.074 128.113 332.075 128.113 332.075 128.113C332.075 128.113 332.076 128.112 332.078 128.112C332.079 128.112 332.08 128.112 332.08 128.111C332.081 128.111 332.083 128.111 332.084 128.111C332.084 128.111 332.088 128.11 332.086 128.11C332.088 128.11 332.088 128.11 332.089 128.11C332.09 128.109 332.091 128.109 332.092 128.109C332.093 128.109 332.093 128.107 332.095 128.108L332.238 128.07C332.414 128.023 332.581 127.979 332.739 127.94C332.82 127.916 332.902 127.895 332.984 127.875L333.054 127.858C333.723 127.683 334.221 127.554 334.608 127.475C334.621 127.471 334.631 127.468 334.64 127.465L334.641 127.468C334.961 127.404 335.203 127.377 335.404 127.385C335.846 127.316 336.284 127.259 336.715 127.214C337.656 126.999 338.627 126.766 339.678 126.503L340.72 126.244C341.579 126.03 342.44 125.816 343.301 125.609C343.832 125.479 344.368 125.354 344.91 125.231C345.545 125.087 346.027 124.858 346.246 124.66C346.003 124.555 345.509 124.447 344.759 124.48C344.709 124.482 344.66 124.483 344.611 124.48C340.121 124.26 335.569 124.717 331.086 125.84C330.226 126.055 329.349 125.538 329.125 124.677C328.9 123.818 329.408 122.937 330.266 122.702L340.132 120.01C340.343 119.953 340.629 119.888 340.967 119.812C343.456 119.256 344.384 118.823 344.698 118.533C344.696 118.529 344.693 118.526 344.692 118.523C344.46 118.149 343.345 118.189 342.979 118.202C341.768 118.245 340.478 118.346 338.796 118.53C332.772 119.194 327.422 120.632 322.895 122.804C322.397 123.044 321.809 123.012 321.339 122.72C320.869 122.428 320.58 121.916 320.574 121.362C320.538 118.352 320.508 115.345 320.478 112.338C320.477 112.221 320.478 112.075 320.479 111.906C320.494 110.143 320.365 109.287 320.231 108.873C319.962 109.209 319.635 109.831 319.493 110.101L319.387 110.303C318.989 111.051 318.637 111.931 318.28 113.072C317.26 116.381 316.453 119.874 315.672 123.251L315.618 123.485C315.417 124.358 314.546 124.903 313.674 124.7C312.802 124.498 312.258 123.628 312.46 122.755L312.514 122.521C313.307 119.088 314.127 115.537 315.185 112.111C315.604 110.767 316.03 109.71 316.526 108.779L316.624 108.594C317.151 107.588 317.949 106.068 319.388 105.615C320.359 105.307 321.306 105.44 322.05 105.991C323.629 107.157 323.74 109.67 323.721 111.935C323.72 112.08 323.719 112.205 323.72 112.306C323.742 114.492 323.763 116.678 323.787 118.865C328.116 117.098 333.034 115.903 338.443 115.307C340.209 115.114 341.572 115.008 342.865 114.962C343.782 114.93 346.223 114.841 347.447 116.814C348.038 117.766 348.152 118.794 347.768 119.709C347.486 120.382 346.985 120.91 346.34 121.337C348.095 121.639 349.245 122.582 349.579 124.047C349.603 124.152 349.616 124.259 349.619 124.366C349.66 126.016 348.595 127.349 346.718 128.068C346.775 128.084 346.831 128.1 346.887 128.116C347.077 128.167 347.296 128.234 347.518 128.305C347.783 128.39 348.055 128.481 348.33 128.575C348.449 128.615 348.563 128.67 348.669 128.738C350.024 129.593 350.481 131.246 349.836 132.948C349.759 133.151 349.643 133.336 349.494 133.492C348.564 134.467 347.347 134.652 346.459 134.786C346.268 134.815 346.083 134.841 345.916 134.879C345.845 134.895 345.773 134.907 345.702 134.913C343.669 135.098 341.693 135.399 339.783 135.691C338.474 135.89 337.209 136.083 335.941 136.24C335.735 136.347 335.505 136.41 335.267 136.421C334.883 136.449 333.843 136.488 333.213 136.509C333.192 136.508 333.172 136.509 333.153 136.509ZM341.139 130.339C341.095 130.343 341.051 130.345 341.006 130.346C341.045 130.346 341.092 130.343 341.139 130.339Z" fill="#1F404D"/>
<path d="M321.262 136.14C321.124 136.14 320.983 136.122 320.843 136.084C319.978 135.853 319.464 134.964 319.696 134.099C320.427 131.363 320.428 128.471 319.697 125.735C319.466 124.87 319.98 123.981 320.845 123.75C321.71 123.521 322.598 124.033 322.83 124.899C323.707 128.182 323.706 131.653 322.827 134.937C322.634 135.662 321.978 136.14 321.262 136.14Z" fill="#1F404D"/>
<path d="M320.769 146.338C316.4 148.776 312.016 151.152 307.622 153.477C305.906 154.386 304.191 155.285 302.468 156.174C299.226 157.854 295.976 159.501 292.715 161.119C290.95 161.997 289.177 162.865 287.403 163.723C282.816 165.944 278.204 168.107 273.568 170.209C271.798 171.012 270.029 171.806 268.252 172.585C264.619 174.195 260.971 175.762 257.306 177.295C255.474 178.057 253.643 178.815 251.802 179.558C247.855 181.163 243.883 182.72 239.889 184.233C237.89 184.995 235.888 185.742 233.876 186.475C229.298 188.157 224.686 189.778 220.041 191.34C219.534 191.514 219.032 191.683 218.525 191.852C217.025 192.351 215.497 192.844 213.947 193.298C213.4 193.46 212.848 193.617 212.296 193.769C212.527 196.247 212.465 198.745 212.315 201.233C211.713 211.24 209.129 220.946 206.461 230.583C206.437 230.59 206.413 230.603 206.385 230.61C206.249 231.011 206.118 231.411 205.979 231.811C205.386 233.558 204.756 235.325 204.09 237.132C189.35 240.523 172.371 241.273 156.032 240.628C148.066 240.32 140.254 239.673 132.928 238.838C132.803 237.897 132.687 236.986 132.582 236.098C132.325 233.896 132.124 231.847 131.982 229.889C131.812 227.549 131.713 225.338 131.681 223.169C131.656 221.2 131.68 219.262 131.743 217.284C131.824 215.019 131.954 212.707 132.126 210.229C132.258 208.344 132.414 206.367 132.588 204.252C132.618 203.911 132.644 203.564 132.674 203.218C132.221 203.339 131.768 203.46 131.316 203.577C131.203 203.607 131.089 203.637 130.976 203.667C129.133 204.155 127.282 204.61 125.424 205.041C125.292 205.07 125.16 205.099 125.028 205.128C122.798 205.644 120.552 206.117 118.294 206.552C116.407 206.916 114.517 207.257 112.619 207.565C108.369 208.265 104.085 208.833 99.7811 209.27C97.8907 209.463 95.9966 209.632 94.1001 209.773C90.9959 210.008 87.8869 210.174 84.7771 210.274C82.8153 210.342 80.8456 210.381 78.8825 210.388C74.5426 210.419 70.206 210.32 65.8814 210.097C63.8326 209.992 61.7852 209.86 59.7396 209.694C55.9207 209.395 52.1172 208.999 48.333 208.506C46.2059 208.23 44.0811 207.925 41.9721 207.585C40.221 207.308 38.476 207.007 36.737 206.689C36.1669 205.601 35.6769 204.491 35.2578 203.361C32.9084 197.075 32.694 190.226 33.2479 183.413C33.2743 183.048 33.3058 182.684 33.3414 182.319C33.3831 182.322 34.1931 182.273 35.5343 182.196C36.9084 182.107 38.8409 181.987 41.0717 181.847C44.6952 181.615 49.1995 181.325 53.3361 181.045C55.3016 180.917 57.1836 180.789 58.856 180.677C62.1594 180.444 64.6477 180.264 65.3442 180.181C67.5866 179.926 69.8258 179.643 72.0663 179.342C73.8952 179.099 75.7203 178.838 77.5464 178.563C80.8192 178.068 84.0811 177.527 87.3363 176.939C89.1513 176.611 90.9676 176.271 92.7798 175.911C94.2965 175.613 95.8091 175.305 97.3221 174.983C98.6753 174.698 100.029 174.398 101.38 174.085C103.186 173.674 104.989 173.245 106.788 172.805C108.766 172.321 110.739 171.818 112.709 171.315C114.495 170.852 116.282 170.389 118.068 169.925C120.213 169.368 122.352 168.81 124.5 168.266C124.764 168.194 125.033 168.126 125.297 168.058C126.824 167.672 128.35 167.291 129.875 166.919C130.139 166.851 130.408 166.789 130.671 166.725C132.362 166.312 134.06 165.918 135.758 165.533C136.068 165.463 136.374 165.393 136.684 165.328C138.189 164.997 139.702 164.675 141.214 164.376C141.566 164.304 141.914 164.237 142.266 164.17C144.43 163.748 146.601 163.364 148.784 163.027C148.924 163.002 149.069 162.983 149.21 162.964C150.938 162.692 152.673 162.458 154.416 162.261C154.509 162.248 154.598 162.24 154.691 162.232C156.261 162.048 157.839 161.897 159.423 161.778L174.145 160.377L184.861 158.632C185.214 158.542 185.571 158.467 185.928 158.391C186.472 158.145 187.058 157.962 187.691 157.857C187.977 157.804 188.271 157.771 188.579 157.752C190.144 157.656 191.709 157.551 193.27 157.432C194.482 157.342 195.69 157.239 196.902 157.131C198.722 156.971 200.537 156.792 202.354 156.596C203.82 156.438 205.282 156.271 206.746 156.09C208.592 155.862 210.43 155.62 212.269 155.355C213.743 155.147 215.218 154.925 216.693 154.693C218.52 154.404 220.348 154.101 222.172 153.775C226.093 153.083 230.004 152.306 233.897 151.455C235.712 151.058 237.519 150.643 239.321 150.213C242.357 149.486 245.382 148.712 248.397 147.891C250.166 147.413 251.931 146.916 253.688 146.396C256.753 145.503 259.807 144.56 262.841 143.564C264.597 142.987 266.353 142.397 268.097 141.787C272.632 140.208 277.128 138.516 281.579 136.719C283.296 136.024 285.009 135.316 286.713 134.587C289.784 133.282 292.831 131.921 295.858 130.506C297.542 129.722 299.219 128.922 300.888 128.104C305.018 126.078 309.103 123.953 313.139 121.736C314.564 130.176 317.253 138.534 320.769 146.338Z" fill="#BACAE4"/>
<path d="M134.394 193.496C136.95 197.586 140.92 199.7 145.505 200.825C150.749 202.116 156.157 202.84 161.543 203.155C167.169 203.489 172.811 203.328 178.429 202.873C183.534 202.461 188.518 201.749 193.051 199.205C197.248 196.845 201.222 193.637 204.746 190.363C208.27 187.09 210.543 183.31 211.505 178.578C213.06 170.949 212.955 163.128 212.268 155.354C210.428 155.619 208.591 155.862 206.744 156.089C207.185 161.397 207.338 166.72 206.846 172.046C206.443 176.427 205.832 180.882 202.886 184.339C200.225 187.464 196.599 190.132 193.264 192.507C185.567 197.984 175.461 197.918 166.358 197.774C161.579 197.7 156.796 197.309 152.083 196.529C147.917 195.837 142.563 195.139 139.785 191.575C136.93 187.903 135.418 182.652 133.779 178.353C132.34 174.586 131.048 170.772 129.874 166.919C128.348 167.291 126.822 167.673 125.296 168.059C125.032 168.126 124.763 168.194 124.499 168.266C125.627 171.964 126.867 175.63 128.213 179.257C129.982 184.013 131.694 189.175 134.394 193.496Z" fill="white"/>
<path d="M161.229 192.114C169.281 193.681 178.253 192.462 185.751 189.141C189.331 187.551 191.976 184.935 194.367 181.895C196.884 178.696 199.351 175.322 200.685 171.43C202.154 167.151 202.274 162.522 202.34 158.043C202.346 157.561 202.351 157.079 202.353 156.596C200.536 156.793 198.72 156.971 196.901 157.131C196.862 159.709 196.736 162.277 196.453 164.817C196.044 168.455 194.846 171.631 192.807 174.664C190.978 177.385 188.929 180.348 186.333 182.396C183.665 184.495 180.115 185.428 176.864 186.174C173.204 187.012 169.478 187.409 165.727 187.137C159.371 186.675 153.072 184.105 148.832 179.227C146.39 176.416 145.049 172.948 143.895 169.453C143.314 167.706 142.77 165.942 142.265 164.171C141.913 164.238 141.565 164.306 141.213 164.377C139.701 164.676 138.188 164.998 136.683 165.329C138.131 170.87 140.003 176.463 143.165 180.974C147.361 186.954 154.143 190.741 161.229 192.114Z" fill="white"/>
<path d="M173.219 182.923C185.53 180.412 192.79 169.186 193.27 157.432C191.708 157.551 190.143 157.656 188.578 157.752C188.271 157.771 187.977 157.804 187.69 157.857C187.136 166.669 182.006 175.057 172.809 177.32C163.24 179.672 157.221 170.993 154.691 162.232C154.597 162.24 154.508 162.249 154.415 162.262C152.673 162.459 150.937 162.692 149.209 162.964C152.322 174.369 160.452 185.529 173.219 182.923Z" fill="white"/>
<path d="M216.693 154.693C218.371 167.585 216.87 180.656 213.947 193.298C215.496 192.844 217.024 192.351 218.525 191.852C219.031 191.683 219.533 191.514 220.04 191.341C222.626 178.975 223.82 166.317 222.171 153.775C220.347 154.101 218.52 154.404 216.693 154.693Z" fill="white"/>
<path d="M233.896 151.455C236.118 163.024 236.131 174.915 233.876 186.475C235.888 185.742 237.891 184.994 239.89 184.233C241.686 172.962 241.512 161.433 239.32 150.213C237.518 150.643 235.711 151.059 233.896 151.455Z" fill="white"/>
<path d="M248.396 147.891C251.123 158.15 251.729 168.888 251.802 179.558C253.642 178.815 255.474 178.057 257.306 177.295C257.127 166.86 256.344 156.432 253.687 146.396C251.93 146.916 250.164 147.413 248.396 147.891Z" fill="white"/>
<path d="M262.839 143.564C265.43 153.076 267.25 162.783 268.251 172.585C270.028 171.806 271.797 171.012 273.567 170.209C272.493 160.612 270.671 151.104 268.096 141.788C266.352 142.397 264.595 142.988 262.839 143.564Z" fill="white"/>
<path d="M281.578 136.719C284.568 145.471 286.518 154.536 287.403 163.723C289.176 162.865 290.95 161.997 292.715 161.119C291.689 152.096 289.674 143.189 286.712 134.588C285.007 135.315 283.294 136.024 281.578 136.719Z" fill="white"/>
<path d="M300.886 128.104C299.217 128.922 297.541 129.721 295.856 130.506C298.848 138.841 301.058 147.439 302.467 156.174C304.191 155.285 305.907 154.386 307.622 153.477C306.123 144.848 303.874 136.354 300.886 128.104Z" fill="white"/>
<path d="M173.431 211.02C165.892 211.484 158.249 211.2 150.747 210.363C144.18 209.629 138.319 207.248 132.589 204.253C132.415 206.368 132.259 208.345 132.126 210.23C137.339 212.809 142.718 214.864 148.607 215.687C156.944 216.858 165.569 217.076 173.964 216.514C187.535 215.6 200.953 211.995 212.197 204.321C211.853 202.217 211.612 200.092 211.526 197.965C200.677 206.357 186.991 210.186 173.431 211.02Z" fill="white"/>
<path d="M180.384 221.694C171.149 222.419 161.615 223.646 152.36 222.712C145.249 221.991 138.427 219.784 131.744 217.284C131.68 219.262 131.657 221.201 131.682 223.17C136.277 224.83 140.934 226.303 145.734 227.274C153.224 228.788 160.634 228.608 168.218 228.104C182.015 227.177 196.148 226.888 209.204 221.991C209.705 219.992 210.247 218.003 210.896 216.053C210.968 215.761 211.043 215.47 211.117 215.179C209.463 215.948 207.776 216.651 206.056 217.277C197.779 220.287 189.091 221.017 180.384 221.694Z" fill="white"/>
<path d="M167.115 235.422C158.913 235.397 150.587 235.067 142.558 233.256C138.923 232.434 135.375 231.333 131.982 229.89C132.124 231.848 132.326 233.897 132.583 236.098C140.039 238.798 148.048 240.088 156.033 240.63C172.371 241.275 189.351 240.524 204.091 237.133C204.756 235.326 205.387 233.559 205.979 231.812C201.393 233.003 196.691 233.815 191.991 234.353C183.745 235.3 175.408 235.448 167.115 235.422Z" fill="white"/>
<path d="M118.068 169.927C116.281 170.39 114.495 170.853 112.709 171.316C113.844 176.736 115.014 182.195 116.922 187.34C119.186 193.44 122.399 199.249 125.423 205.042C127.282 204.611 129.133 204.156 130.976 203.668C127.905 197.728 124.587 191.802 122.173 185.586C120.24 180.625 119.15 175.236 118.068 169.927Z" fill="white"/>
<path d="M106.787 172.807C104.988 173.246 103.186 173.676 101.379 174.087C102.2 180.429 103.938 186.535 106.266 192.643C108.194 197.697 110.316 202.675 112.62 207.566C114.517 207.258 116.408 206.917 118.295 206.553C115.961 201.697 113.804 196.754 111.843 191.731C109.418 185.528 107.551 179.308 106.787 172.807Z" fill="white"/>
<path d="M87.335 176.94C88.7864 188.05 90.5759 199.175 94.0993 209.774C95.9963 209.632 97.8899 209.464 99.7808 209.271C96.0374 198.547 94.247 187.204 92.779 175.912C90.9663 176.272 89.1504 176.613 87.335 176.94Z" fill="white"/>
<path d="M72.0659 179.343C72.9255 189.962 75.2151 200.407 78.8825 210.388C80.8457 210.381 82.8149 210.342 84.7771 210.275C80.8318 200.129 78.3759 189.437 77.5455 178.564C75.7199 178.839 73.8948 179.1 72.0659 179.343Z" fill="white"/>
<path d="M53.3359 181.046C54.0908 190.856 56.2517 200.514 59.7399 209.695C61.7855 209.86 63.8324 209.992 65.8817 210.097C62.0244 200.722 59.6436 190.796 58.8558 180.677C57.1835 180.79 55.3014 180.918 53.3359 181.046Z" fill="white"/>
<path d="M35.5342 182.197C36.7781 190.899 38.7472 199.497 41.9719 207.586C44.081 207.926 46.2063 208.23 48.3329 208.507C44.5599 200.121 42.398 191.025 41.0711 181.849C38.8408 181.988 36.9082 182.108 35.5342 182.197Z" fill="white"/>
<path d="M213.1 194.63C212.379 194.63 211.721 194.145 211.532 193.414C211.307 192.548 211.828 191.663 212.694 191.438C248.196 182.238 284.144 166.746 319.557 145.387C318.31 141.481 317.054 137.587 315.797 133.693C314.611 130.018 313.426 126.343 312.248 122.658C271.122 145.354 224.662 158.62 177.759 161.041C176.852 161.08 176.103 160.4 176.056 159.506C176.01 158.612 176.697 157.849 177.591 157.803C224.662 155.373 271.277 141.908 312.398 118.864C312.823 118.626 313.333 118.592 313.785 118.77C314.238 118.949 314.586 119.322 314.734 119.786C316.109 124.1 317.496 128.398 318.883 132.697C320.271 136.999 321.659 141.302 323.035 145.62C323.262 146.333 322.971 147.11 322.331 147.498C286.294 169.364 249.68 185.204 213.507 194.577C213.371 194.613 213.234 194.63 213.1 194.63Z" fill="#1F404D"/>
<path d="M166.45 242.472C154.146 242.472 142.384 241.549 132.744 240.45C132.006 240.366 131.42 239.791 131.322 239.054C129.526 225.594 129.895 217.469 130.871 205.376C100.947 213.145 68.3507 214.156 36.4433 208.285C35.9528 208.195 35.5318 207.884 35.3007 207.443C34.714 206.324 34.1883 205.141 33.7373 203.926C31.6171 198.253 30.948 191.692 31.6315 183.282C31.6584 182.918 31.6902 182.539 31.7273 182.162C31.7889 181.534 32.2085 180.999 32.8031 180.79C32.9777 180.729 33.1588 180.699 33.3371 180.699C34.8381 180.639 62.7099 178.851 65.1594 178.571C75.8245 177.35 86.5327 175.609 96.9852 173.398C103.931 171.928 110.92 170.11 117.679 168.351C131.117 164.856 145.011 161.242 159.301 160.163C160.194 160.1 160.972 160.765 161.039 161.658C161.107 162.551 160.437 163.329 159.545 163.397C145.545 164.453 131.794 168.031 118.495 171.49C111.7 173.257 104.674 175.085 97.6563 176.57C87.1041 178.803 76.2945 180.56 65.5275 181.793C63.9617 181.972 54.157 182.623 48.4523 182.995C44.6205 183.245 40.8711 183.485 38.0781 183.66C36.7513 183.744 35.6397 183.812 34.8376 183.861C34.2356 191.632 34.8534 197.653 36.7753 202.794C37.0866 203.633 37.4366 204.452 37.8196 205.239C69.7937 211.006 102.429 209.769 132.247 201.655C132.757 201.515 133.303 201.635 133.709 201.973C134.116 202.31 134.332 202.826 134.288 203.353C133.2 216.498 132.699 224.162 134.371 237.37C153.389 239.465 180.186 240.778 202.872 235.747C209.519 217.551 212.848 201.947 209.134 181.059C208.978 180.178 209.565 179.335 210.446 179.178C211.333 179.024 212.169 179.61 212.326 180.491C216.225 202.416 212.647 218.634 205.611 237.695C205.421 238.208 204.986 238.591 204.453 238.714C192.369 241.492 179.123 242.472 166.45 242.472Z" fill="#1F404D"/>
<path d="M185.169 160.561C185.119 160.561 185.068 160.558 185.017 160.553C184.126 160.468 183.472 159.677 183.557 158.785C183.631 158.008 184.242 157.411 184.989 157.328C186.188 157.174 187.406 157.075 188.607 157.033C188.656 157.031 188.705 157.032 188.754 157.035C188.78 157.036 188.807 157.038 188.834 157.041C189.724 157.13 190.374 157.924 190.285 158.815C190.207 159.6 189.581 160.198 188.823 160.269C188.77 160.274 188.703 160.273 188.663 160.276C187.58 160.316 186.483 160.406 185.401 160.545C185.325 160.555 185.247 160.561 185.169 160.561Z" fill="#1F404D"/>
<path d="M132.38 207.114C132.347 207.114 132.315 207.114 132.282 207.112C131.388 207.058 130.707 206.29 130.76 205.396C131.165 198.631 132.182 191.859 133.785 185.271C133.997 184.4 134.877 183.866 135.743 184.079C136.614 184.29 137.147 185.167 136.935 186.037C135.378 192.439 134.389 199.018 133.997 205.59C133.945 206.451 133.231 207.114 132.38 207.114Z" fill="#1F404D"/>
<path d="M180.531 160.646C180.429 162.009 180.213 163.357 179.828 164.677C178.659 168.678 175.542 172.401 171.417 172.997C166.723 173.676 162.26 170.072 160.352 165.728C159.683 164.208 159.257 162.616 158.99 160.988C158.491 157.964 158.536 154.807 158.598 151.725C165.714 152.231 173.182 153.51 180.207 152.255C180.475 155.036 180.739 157.873 180.531 160.646Z" fill="#F6E2D7"/>
<g opacity="0.5">
<path d="M180.531 160.646C178.153 162.23 175.138 163.376 171.7 163.701C167.018 164.145 162.493 162.969 158.99 160.988C158.491 157.964 158.536 154.807 158.598 151.725C165.714 152.231 173.182 153.51 180.207 152.255C180.475 155.036 180.739 157.873 180.531 160.646Z" fill="#E2B8A3"/>
</g>
<path d="M169.333 174.488C164.714 174.04 160.779 170.311 159.022 166.312C156.952 161.598 157.055 156.338 157.145 151.697C157.153 151.299 157.324 150.922 157.618 150.654C157.911 150.385 158.303 150.249 158.699 150.277C160.348 150.394 162.038 150.554 163.673 150.709C169.11 151.225 174.732 151.758 179.952 150.827C180.35 150.755 180.76 150.854 181.084 151.099C181.406 151.344 181.612 151.712 181.651 152.116C182.043 156.168 182.486 160.761 181.222 165.086C179.745 170.136 175.978 173.806 171.623 174.434C170.847 174.547 170.081 174.561 169.333 174.488ZM160.021 153.292C159.967 157.231 160.078 161.497 161.68 165.145C163.28 168.786 167.066 172.159 171.209 171.562C174.884 171.031 177.486 167.518 178.436 164.271C179.402 160.967 179.223 157.416 178.907 153.924C173.782 154.585 168.512 154.086 163.399 153.601C162.287 153.495 161.149 153.387 160.021 153.292Z" fill="#1F404D"/>
<path d="M230.041 85.7089C231.128 83.8643 233.013 82.5083 235.106 82.065C237.201 81.6212 239.473 82.0965 241.214 83.3417C243.831 85.2137 245.038 88.5686 245.156 91.7845C245.299 95.6689 244.029 99.5903 241.635 102.652C239.241 105.715 235.744 107.894 231.94 108.692C229.224 108.331 227.157 106.375 226.168 103.819C225.179 101.263 225.263 98.4076 225.752 95.711C226.379 92.2533 228.258 88.7363 230.041 85.7089Z" fill="#F6E2D7"/>
<path d="M231.994 110.164L231.749 110.131C228.649 109.719 226.056 107.555 224.814 104.343C223.851 101.853 223.69 98.9451 224.323 95.4517C224.992 91.7651 226.957 88.0855 228.79 84.9724V84.9719C230.077 82.7876 232.326 81.1695 234.805 80.6442C237.286 80.1193 239.997 80.6859 242.058 82.1609C244.797 84.1204 246.455 87.6088 246.606 91.7313C246.761 95.9302 245.365 100.237 242.778 103.547C240.19 106.857 236.349 109.25 232.238 110.113L231.994 110.164ZM231.291 86.446C229.587 89.3385 227.766 92.7323 227.179 95.9696C226.645 98.9214 226.756 101.318 227.521 103.295C228.342 105.416 229.966 106.865 231.895 107.216C235.251 106.448 238.372 104.469 240.492 101.758C242.664 98.9793 243.835 95.3636 243.705 91.8378C243.589 88.6687 242.342 85.9341 240.369 84.5221C238.958 83.5131 237.103 83.1254 235.406 83.4849C233.71 83.8448 232.171 84.9515 231.291 86.446Z" fill="#1F404D"/>
<path d="M226.111 102.833C225.888 102.811 225.666 102.737 225.464 102.606C224.792 102.171 224.599 101.272 225.034 100.599C228.282 95.5778 233.19 91.7559 238.854 89.8395C239.614 89.5814 240.436 89.99 240.694 90.7493C240.951 91.5086 240.544 92.3327 239.784 92.5898C234.737 94.2978 230.364 97.7023 227.471 102.176C227.166 102.647 226.634 102.883 226.111 102.833Z" fill="#1F404D"/>
<path d="M98.0056 92.4745C96.7899 90.7123 94.8133 89.4948 92.6927 89.2021C90.5721 88.9093 88.3399 89.5458 86.6921 90.9129C84.2163 92.967 83.2516 96.4002 83.3637 99.6161C83.4989 103.501 85.0466 107.321 87.653 110.204C90.2595 113.087 93.9042 115.01 97.755 115.534C100.438 114.979 102.361 112.881 103.164 110.26C103.967 107.64 103.68 104.798 102.999 102.143C102.127 98.74 100.001 95.3662 98.0056 92.4745Z" fill="#F6E2D7"/>
<path d="M97.8056 117.006L97.5597 116.973C93.3977 116.406 89.3945 114.294 86.5769 111.177C83.7597 108.062 82.0597 103.866 81.9133 99.6665C81.7698 95.5435 83.1739 91.9458 85.7659 89.7954C87.7161 88.1768 90.3781 87.4147 92.891 87.764C95.4016 88.1101 97.7603 89.5629 99.2001 91.6489C101.252 94.6226 103.474 98.1516 104.405 101.782C105.286 105.22 105.334 108.133 104.552 110.686C103.542 113.979 101.111 116.323 98.0487 116.956L97.8056 117.006ZM92.2561 90.6126C90.6088 90.4528 88.892 90.9744 87.6193 92.0311C85.7525 93.5793 84.7045 96.3968 84.8147 99.5659C84.9379 103.092 86.3648 106.614 88.7304 109.231C91.0381 111.783 94.2933 113.534 97.6954 114.059C99.5946 113.572 101.11 112.01 101.777 109.835C102.399 107.808 102.339 105.41 101.594 102.504C100.776 99.3163 98.7175 96.0619 96.8118 93.299C95.8267 91.8713 94.2128 90.8776 92.4951 90.6404C92.4154 90.6293 92.3358 90.62 92.2561 90.6126Z" fill="#1F404D"/>
<path d="M102.765 109.286C102.375 109.248 102.001 109.054 101.746 108.715C99.399 105.6 93.3549 101.226 88.7788 100.035C88.0031 99.8334 87.5376 99.0403 87.7395 98.2644C87.9414 97.4884 88.7343 97.0247 89.5096 97.2253C94.3737 98.4914 101.039 102.953 104.064 106.968C104.546 107.608 104.418 108.518 103.779 109.001C103.477 109.228 103.115 109.32 102.765 109.286Z" fill="#1F404D"/>
<path d="M234.826 119.419C231.57 136.145 219.03 147.328 203.443 152.982C195.065 156.019 186.22 157.55 177.389 158.759C153.457 162.028 115.876 164.213 103.142 138.06C96.7192 124.872 96.013 109.654 98.4374 95.3067C98.7162 93.6649 99.0325 92.0342 99.39 90.4174C103.855 70.1491 113.776 49.5185 130.169 36.8142C136.202 32.1405 143.113 28.5405 150.95 26.423C154.293 25.5219 157.716 24.9359 161.164 24.6635C171.113 23.8663 181.272 25.6419 190.376 29.738C190.406 29.7491 190.435 29.7635 190.464 29.7774C193.283 31.0499 195.999 32.5449 198.574 34.2594C198.595 34.2705 198.616 34.2849 198.633 34.2993C199.583 34.9274 200.509 35.588 201.419 36.2778C210.349 43.0566 217.095 52.0211 222.257 61.8995C224.283 65.7793 226.145 69.7461 227.813 73.7935C229.364 77.5552 230.799 81.4553 232.008 85.4425C235.357 96.468 237.021 108.159 234.826 119.419Z" fill="#F6E2D7"/>
<g opacity="0.5">
<path d="M208.159 60.482C210.969 69.9291 212.457 79.8423 211.771 89.6758C204.548 89.6068 197.33 89.3085 190.106 89.2395C189.564 74.7076 184.466 60.8206 175.775 49.1656C180.12 61.5762 181.262 75.0106 179.847 88.0836C170.936 91.4362 160.626 92.5638 151.178 91.414C150.723 85.3337 150.34 78.5531 149.888 72.4729C148.806 79.0715 147.847 85.2031 146.765 91.799C139.344 93.5362 130.39 93.0965 122.808 92.3127C123.698 82.1595 125.181 70.6856 126.071 60.5302C120.315 70.8246 116.312 82.7669 115.791 94.5493C110.108 95.8436 104.234 95.9733 98.436 95.3062C98.7148 93.6644 99.0311 92.0338 99.3886 90.417C103.854 70.1487 113.774 49.5181 130.168 36.8138C139.42 30.3028 150.104 25.8277 161.162 24.6636C164.548 24.305 167.967 24.2564 171.394 24.5566C177.987 25.131 184.379 26.9599 190.375 29.7381C190.404 29.7492 190.433 29.7635 190.463 29.7774C193.259 31.0764 195.968 32.5801 198.573 34.2594C198.593 34.2706 198.614 34.2849 198.632 34.2993C199.581 34.9275 200.508 35.5881 201.418 36.2779C210.347 43.0567 217.093 52.0211 222.255 61.8996C224.282 65.7793 226.143 69.7461 227.812 73.7936C229.363 77.5552 230.797 81.4554 232.007 85.4426C229.151 86.9584 225.683 88.0614 223.083 88.5251C221.478 77.0925 216.931 68.2392 208.159 60.482Z" fill="#E2B8A3"/>
</g>
<path d="M142.672 161.581C142.008 161.517 141.348 161.448 140.688 161.374C129.661 160.133 109.932 155.523 101.681 138.581C93.3686 121.512 94.9849 102.676 97.8039 89.8798C101.168 74.6095 107.193 60.7582 115.226 49.8236C124.726 36.8913 136.602 28.4286 150.525 24.6702C168.057 19.9376 187.933 23.8192 202.397 34.7983C210.781 41.1634 217.945 49.9658 223.69 60.9607C228.89 70.9137 232.684 80.7222 234.967 90.1142C237.899 102.177 239.709 119.316 231.682 132.462C225.722 142.226 215.195 150.14 202.04 154.748C184.065 161.044 162.542 163.509 142.672 161.581ZM171.376 26.1985C164.659 25.5467 157.847 26.0525 151.37 27.8008C127.024 34.374 108.183 57.842 100.97 90.5779C98.2614 102.871 96.692 120.932 104.596 137.161C112.167 152.708 130.685 156.986 141.05 158.151C160.991 160.388 182.837 158.039 200.97 151.687C213.42 147.326 223.345 139.898 228.916 130.772C236.363 118.574 234.604 102.346 231.817 90.88C229.597 81.7437 225.896 72.1825 220.818 62.4625C215.295 51.8938 208.439 43.4552 200.437 37.3814C192.099 31.052 181.856 27.2153 171.376 26.1985Z" fill="#1F404D"/>
<path d="M208.073 54.385C210.883 63.8322 212.371 73.7454 211.686 83.5789C204.462 83.5099 197.244 83.2116 190.02 83.1425C189.478 68.6107 184.381 54.7237 175.689 43.0687C180.034 55.4793 181.176 68.9137 179.762 81.9867C170.85 85.3393 160.54 86.4668 151.092 85.317C150.637 79.2368 150.254 72.4562 149.802 66.3759C148.719 72.9746 147.761 79.1062 146.679 85.702C139.257 87.4392 130.304 86.9996 122.722 86.2158C123.611 76.0626 125.095 64.5887 125.985 54.4332C120.229 64.7277 116.226 76.6699 115.705 88.4524C107.586 90.3012 99.0777 89.774 90.9556 87.9465C92.6279 83.4594 94.4373 78.9941 96.4217 74.6131C102.339 61.5637 109.828 49.2466 119.96 39.201C133.492 25.7818 152.328 16.8035 171.308 18.4601C186.454 19.779 200.519 27.728 211.227 38.5237C216.608 43.9474 221.206 50.0531 225.214 56.5591C229.184 63.0048 232.572 69.8388 235.562 76.7918C232.757 79.5931 226.9 81.7347 222.996 82.4291C221.392 70.9955 216.846 62.1423 208.073 54.385Z" fill="#5F0A87"/>
<path d="M225.214 56.5587C215.563 46.2239 203.05 38.5695 189.425 34.7783C173.34 30.3046 155.801 31.2473 140.288 37.4202C122.199 44.6136 107.48 58.4733 96.4214 74.6131C102.339 61.5637 109.828 49.2466 119.96 39.201C133.492 25.7818 152.327 16.8035 171.308 18.4601C186.454 19.779 200.519 27.728 211.227 38.5237C216.608 43.947 221.206 50.0527 225.214 56.5587Z" fill="#C37FE2"/>
<path d="M99.3067 90.7719C96.4905 90.4986 93.5988 90.0289 90.6372 89.3614C90.2283 89.2696 89.8796 89.0051 89.6795 88.6363C89.4799 88.268 89.4493 87.8308 89.5961 87.4384C97.7284 65.6121 107.052 49.9569 118.939 38.1694C133.875 23.3577 153.5 15.4486 171.436 17.0125C171.607 17.0273 171.779 17.043 171.951 17.0597C186.252 18.4472 200.546 25.692 212.258 37.5018C221.745 47.0671 229.804 59.7315 236.895 76.2183C237.13 76.7645 237.007 77.3996 236.587 77.8198C233.655 80.7466 227.659 83.0731 223.252 83.8583C222.864 83.9283 222.465 83.8361 222.145 83.604C221.826 83.3728 221.615 83.0212 221.56 82.6311C220.223 73.0969 216.867 65.6635 210.853 59.1279C212.91 67.6652 213.676 75.9028 213.133 83.6813C213.079 84.4476 212.438 85.0396 211.671 85.0317C208.048 84.9965 204.371 84.9029 200.816 84.8126C197.272 84.7223 193.607 84.6296 190.006 84.5944C189.224 84.581 188.599 83.9714 188.57 83.1968C188.16 72.2283 185.116 61.5591 179.691 51.8849C181.801 61.4572 182.328 71.7521 181.204 82.1448C181.144 82.6896 180.784 83.1542 180.271 83.3474C171.224 86.7509 160.802 87.9674 150.916 86.7592C150.228 86.6758 149.695 86.1171 149.644 85.4259C149.493 83.4066 149.349 81.2877 149.209 79.1669C148.851 81.3942 148.489 83.6387 148.111 85.9392C148.017 86.5192 147.582 86.9839 147.01 87.1183C138.852 89.0269 129.163 88.3435 122.573 87.6625C121.784 87.581 121.207 86.882 121.276 86.0917C121.722 80.9972 122.326 75.4896 122.91 70.1636C123.206 67.4656 123.508 64.7199 123.79 62.0084C119.813 70.8436 117.537 79.8882 117.154 88.5191C117.125 89.1728 116.663 89.7255 116.026 89.8705C110.843 91.0476 105.244 91.3478 99.3067 90.7719ZM92.9088 86.8778C100.636 88.4357 107.824 88.5664 114.314 87.2665C114.999 76.266 118.585 64.6949 124.717 53.725C125.051 53.1274 125.757 52.8443 126.411 53.0463C127.065 53.2478 127.489 53.8788 127.43 54.5607C126.984 59.6523 126.38 65.1567 125.796 70.48C125.268 75.2946 124.724 80.2579 124.296 84.9159C130.316 85.4904 138.432 85.93 145.406 84.4976C145.888 81.5453 146.348 78.6777 146.807 75.8106C147.318 72.6267 147.828 69.4423 148.369 66.1425C148.488 65.4166 149.131 64.8945 149.865 64.9269C150.606 64.9626 151.194 65.5361 151.249 66.2699C151.476 69.3167 151.689 72.5892 151.894 75.7541C152.073 78.4989 152.256 81.3252 152.449 84.0093C152.525 84.0172 152.601 84.0246 152.677 84.0321C161.374 84.8756 170.422 83.7902 178.409 80.9379C179.706 67.8204 178.296 54.9119 174.317 43.5501C174.08 42.8733 174.373 42.1251 175.005 41.7883C175.637 41.4529 176.421 41.6275 176.85 42.2024C185.582 53.9121 190.598 67.5434 191.405 81.7084C194.581 81.751 197.781 81.8325 200.888 81.9113C203.981 81.99 207.165 82.0706 210.317 82.1132C210.738 73.5189 209.517 64.3382 206.681 54.8007C206.497 54.1799 206.745 53.5114 207.292 53.1631C207.838 52.8138 208.548 52.8698 209.033 53.2992C217.484 60.772 222.329 69.5094 224.198 80.6943C227.506 79.897 231.462 78.309 233.812 76.4106C226.971 60.7308 219.239 48.6653 210.197 39.5475C198.962 28.2196 185.297 21.2731 171.67 19.9514C171.507 19.9356 171.346 19.9203 171.183 19.9064C154.086 18.4161 135.319 26.0149 120.982 40.2327C109.691 51.4286 100.748 66.2796 92.9088 86.8778Z" fill="#1F404D"/>
<path d="M228.975 63.1957C218.605 48.4688 203.685 33.1735 185.567 28.1741C167.445 23.1746 149.808 26.1455 133.348 35.1864C116.891 44.224 103.588 58.5284 95.6885 75.471C96.4633 58.0049 105.027 41.2212 118.149 29.5416C119.967 27.9244 121.873 26.4021 123.856 24.9915C140.161 13.4004 161.357 9.16857 181.106 12.6319C195.197 15.1066 209.394 23.7884 217.741 35.3235C218.682 36.6225 219.534 37.9233 220.313 39.2246C224.764 46.6802 226.799 54.3086 228.975 63.1957Z" fill="#FBF6BE"/>
<path d="M228.975 63.1958C218.605 48.4689 203.685 33.1736 185.567 28.1742C167.445 23.1747 149.808 26.1455 133.348 35.1864C116.891 44.2241 103.588 58.5285 95.6885 75.4711C96.4633 58.005 105.027 41.2213 118.149 29.5417C117.353 32.3203 116.559 35.1021 115.762 37.8807C132.606 28.5355 151.101 20.738 170.357 21.1739C186.172 21.5279 201.457 27.476 214.939 35.753C216.758 36.8713 218.548 38.028 220.313 39.2255C224.764 46.6802 226.799 54.3087 228.975 63.1958Z" fill="#F2EAA0"/>
<path d="M95.5325 77.0841C95.4556 77.0767 95.3787 77.0637 95.3023 77.0452C94.5511 76.8608 94.0347 76.1715 94.069 75.3988C94.9503 55.5164 106.004 35.6955 122.917 23.6717C139.33 12.0019 160.636 7.39618 181.385 11.0369C196.07 13.6131 210.504 22.5553 219.054 34.3734C225.417 43.1683 227.832 51.707 230.55 62.8098C230.735 63.5663 230.356 64.3483 229.647 64.6712C228.937 64.994 228.099 64.7657 227.651 64.1287C218.614 51.2975 203.903 34.9149 185.134 29.7376C168.129 25.0476 150.969 27.3583 134.129 36.6076C118.065 45.4308 104.935 59.4758 97.1572 76.1557C96.864 76.7853 96.2073 77.1499 95.5325 77.0841ZM174.891 13.4231C156.921 11.6799 138.948 16.2513 124.795 26.3146C111.119 36.0378 101.464 51.0927 98.3413 66.9819C106.562 53.1185 118.477 41.5052 132.569 33.7651C150.174 24.0947 168.151 21.6895 185.996 26.6111C202.518 31.1686 215.925 43.834 225.332 55.6275C223.305 48.5253 220.874 42.4187 216.428 36.2741C208.352 25.1129 194.711 16.6664 180.825 14.2297C178.851 13.8841 176.87 13.6154 174.891 13.4231Z" fill="#1F404D"/>
<path d="M129.285 95.109C128.908 95.0724 128.546 94.8889 128.291 94.5697C127.791 93.9425 127.893 93.0294 128.52 92.5296C132.176 89.6106 137.457 89.0269 141.662 91.0758C142.382 91.427 142.682 92.2961 142.331 93.0169C141.98 93.7377 141.112 94.0388 140.391 93.6858C137.221 92.1423 133.085 92.5995 130.331 94.7986C130.024 95.0436 129.648 95.1437 129.285 95.109Z" fill="#1F404D"/>
<path d="M144.612 109.176C144.699 108.679 144.531 108.151 144.115 107.806C140.513 104.821 135.244 104.139 131.002 106.111C130.275 106.448 129.959 107.312 130.297 108.039C130.469 108.41 130.778 108.674 131.136 108.799C131.327 108.865 131.532 108.888 131.738 108.87C131.377 109.098 131.023 109.339 130.688 109.607C130.061 110.107 129.959 111.021 130.458 111.648C130.714 111.967 131.076 112.15 131.453 112.187C131.815 112.222 132.191 112.122 132.498 111.876C135.254 109.677 139.39 109.22 142.558 110.764C143.279 111.117 144.148 110.816 144.499 110.095C144.643 109.798 144.672 109.477 144.612 109.176Z" fill="#1F404D"/>
<path d="M179.42 90.6265C178.948 90.5806 178.508 90.3055 178.272 89.8538C177.9 89.1432 178.176 88.2662 178.886 87.8947C183.03 85.7271 188.326 86.1612 192.064 88.9755C192.704 89.4577 192.832 90.3675 192.35 91.0082C191.868 91.6484 190.957 91.7781 190.318 91.295C187.501 89.1751 183.354 88.8346 180.23 90.4676C179.972 90.6038 179.69 90.6529 179.42 90.6265Z" fill="#1F404D"/>
<path d="M192.418 108.898C192.148 108.694 191.868 108.507 191.583 108.329C192.195 108.407 192.813 108.092 193.085 107.501C193.419 106.772 193.099 105.911 192.37 105.576C188.119 103.624 182.853 104.33 179.266 107.333C178.988 107.565 178.826 107.881 178.771 108.212C178.432 108.647 178.355 109.256 178.627 109.776C178.863 110.228 179.303 110.503 179.775 110.549C180.045 110.576 180.327 110.526 180.585 110.391C183.709 108.757 187.856 109.098 190.673 111.218C191.312 111.701 192.223 111.571 192.705 110.931C193.187 110.29 193.059 109.38 192.418 108.898Z" fill="#1F404D"/>
<path d="M135.443 135.445C138.426 128.35 135.093 120.18 128 117.196C120.907 114.213 112.739 117.546 109.756 124.641C106.774 131.737 110.106 139.907 117.199 142.891C124.293 145.874 132.46 142.541 135.443 135.445Z" fill="#F9CCC5"/>
<path d="M162.569 116.732C166.416 116.677 169.522 115.723 169.506 114.601C169.49 113.478 166.358 112.613 162.511 112.668C158.664 112.722 155.558 113.676 155.574 114.799C155.59 115.921 158.721 116.786 162.569 116.732Z" fill="#F9CCC5"/>
<path d="M213.376 136.656C218.817 131.213 218.817 122.389 213.376 116.946C207.935 111.503 199.113 111.503 193.672 116.946C188.231 122.389 188.231 131.213 193.672 136.656C199.113 142.098 207.935 142.098 213.376 136.656Z" fill="#F9CCC5"/>
<path d="M179.444 117.94C179.449 122.854 178.853 127.484 177.789 131.574C175.261 141.3 170.075 147.966 163.998 148.056C157.821 148.142 152.375 141.408 149.614 131.5C148.505 127.559 147.833 123.111 147.7 118.394L179.444 117.94Z" fill="#F9CCC5"/>
<path d="M177.789 131.574C175.261 141.3 170.075 147.967 163.998 148.056C157.821 148.142 152.375 141.408 149.614 131.501C154.177 130.077 158.949 129.336 163.734 129.35C168.497 129.364 173.252 130.127 177.789 131.574Z" fill="#EF9289"/>
<path d="M178.727 117.954C174.949 121.531 169.944 123.829 164.747 124.167C158.797 124.557 152.76 122.358 148.328 118.385L178.727 117.954Z" fill="white"/>
<path d="M163.882 149.215C157.381 149.215 151.496 142.565 148.499 131.812C147.335 127.676 146.676 123.172 146.542 118.427C146.534 118.117 146.649 117.817 146.864 117.593C147.078 117.369 147.373 117.24 147.683 117.236L148.265 117.228C148.28 117.227 148.295 117.226 148.311 117.226L179.427 116.782C179.433 116.782 179.439 116.782 179.444 116.782C179.748 116.782 180.04 116.901 180.256 117.115C180.477 117.333 180.601 117.629 180.602 117.939C180.607 122.843 180.037 127.528 178.91 131.865C176.153 142.472 170.446 149.119 164.015 149.214C163.971 149.215 163.926 149.215 163.882 149.215ZM148.902 119.535C149.098 123.658 149.711 127.573 150.729 131.187C153.394 140.749 158.55 146.898 163.885 146.899C163.918 146.899 163.95 146.899 163.982 146.898C169.324 146.819 174.185 140.836 176.669 131.283C177.657 127.483 178.197 123.395 178.276 119.115L148.902 119.535Z" fill="#1F404D"/>
</svg>
