<svg width="138" height="138" viewBox="0 0 138 138" fill="none" xmlns="http://www.w3.org/2000/svg">
<g filter="url(#filter0_d_2_144)">
<circle cx="69" cy="68.8373" r="56.8373" fill="#D9D9D9"/>
<path d="M108.127 58.2928C106.428 56.3885 104.327 54.8615 101.968 53.8151C99.6088 52.7688 97.0457 52.2275 94.4526 52.2281H79.9948L81.2126 45.0356C81.6435 42.5028 81.1236 39.9038 79.7479 37.7126C78.3721 35.5214 76.232 33.884 73.7181 33.0992C71.2041 32.3143 68.4837 32.4342 66.0531 33.437C63.6225 34.4399 61.6436 36.2588 60.4774 38.5621L53.5403 52.2281H43.7109C38.9064 52.2337 34.3003 54.0918 30.903 57.395C27.5057 60.6982 25.5946 65.1766 25.5888 69.848L25.5888 87.4679C25.5946 92.1393 27.5057 96.6177 30.903 99.9209C34.3003 103.224 38.9064 105.082 43.7109 105.088H91.9155C96.2773 105.07 100.488 103.531 103.781 100.75C107.074 97.9694 109.231 94.1314 109.86 89.9347L112.415 72.3148C112.775 69.8153 112.578 67.2699 111.839 64.8507C111.099 62.4316 109.833 60.1951 108.127 58.2928ZM32.8377 87.4679V69.848C32.8377 67.0441 33.9832 64.3551 36.0223 62.3725C38.0615 60.3899 40.8271 59.276 43.7109 59.276H50.9597V98.0398H43.7109C40.8271 98.0398 38.0615 96.926 36.0223 94.9434C33.9832 92.9608 32.8377 90.2717 32.8377 87.4679ZM105.221 71.3245L102.662 88.9444C102.288 91.4605 100.997 93.7625 99.0251 95.4316C97.0529 97.1008 94.5301 98.0263 91.9155 98.0398H58.2085V58.3387C58.5501 58.0493 58.8328 57.7003 59.0421 57.3096L66.9759 41.6808C67.2735 41.159 67.6941 40.7133 68.2033 40.3803C68.7124 40.0473 69.2956 39.8366 69.9048 39.7654C70.5141 39.6942 71.132 39.7645 71.7078 39.9707C72.2836 40.1769 72.8009 40.5129 73.2172 40.9513C73.5733 41.3539 73.8336 41.828 73.9796 42.3397C74.1255 42.8513 74.1536 43.388 74.0617 43.9115L72.148 55.1882C72.064 55.6921 72.0936 56.2077 72.2347 56.6993C72.3758 57.191 72.6251 57.6469 72.9653 58.0357C73.3055 58.4244 73.7285 58.7367 74.205 58.9509C74.6816 59.165 75.2003 59.276 75.7253 59.276H94.4526C96.0089 59.2758 97.5471 59.6005 98.9633 60.228C100.38 60.8556 101.641 61.7714 102.661 62.9136C103.682 64.0558 104.439 65.3978 104.881 66.8488C105.322 68.2999 105.438 69.8261 105.221 71.3245Z" fill="#0085FF"/>
</g>
<defs>
<filter id="filter0_d_2_144" x="0.16272" y="0" width="137.674" height="137.674" filterUnits="userSpaceOnUse" color-interpolation-filters="sRGB">
<feFlood flood-opacity="0" result="BackgroundImageFix"/>
<feColorMatrix in="SourceAlpha" type="matrix" values="0 0 0 0 0 0 0 0 0 0 0 0 0 0 0 0 0 0 127 0" result="hardAlpha"/>
<feOffset/>
<feGaussianBlur stdDeviation="6"/>
<feComposite in2="hardAlpha" operator="out"/>
<feColorMatrix type="matrix" values="0 0 0 0 0 0 0 0 0 0 0 0 0 0 0 0 0 0 0.25 0"/>
<feBlend mode="normal" in2="BackgroundImageFix" result="effect1_dropShadow_2_144"/>
<feBlend mode="normal" in="SourceGraphic" in2="effect1_dropShadow_2_144" result="shape"/>
</filter>
</defs>
</svg>
