<svg width="513" height="114" viewBox="0 0 513 114" fill="none" xmlns="http://www.w3.org/2000/svg">
<path d="M187.117 58.8886C184.402 58.8886 182.139 58.3065 180.329 57.1421C178.519 55.9131 177.161 54.296 176.256 52.2908C175.351 50.2856 174.93 48.0863 174.995 45.693C174.995 42.6528 175.771 39.6449 177.323 36.6694C178.939 33.6939 181.428 31.2359 184.79 29.2954C188.216 27.2901 192.548 26.2875 197.785 26.2875C201.664 26.2875 205.285 26.5786 208.646 27.1608C212.073 27.6783 215.338 28.2281 218.441 28.8102C221.545 29.3924 224.616 29.6835 227.654 29.6835C230.305 29.6835 232.762 29.3601 235.025 28.7132C237.287 28.0664 239.356 26.8374 241.231 25.0262C242.395 25.8024 243.268 26.902 243.85 28.3251C244.431 29.6835 244.722 31.1712 244.722 32.7884C244.722 34.5348 244.302 36.2813 243.462 38.0278C242.686 39.7743 241.425 41.2297 239.68 42.394C237.999 43.4937 235.833 44.0435 233.182 44.0435C229.82 44.0435 226.749 43.5584 223.969 42.5881C221.189 41.5531 218.635 40.3565 216.308 38.9981C214.045 37.575 211.911 36.249 209.907 35.02L209.713 34.1467C208.291 33.5646 206.998 33.2088 205.834 33.0794C204.67 32.9501 203.442 32.8854 202.149 32.8854C198.787 32.8854 196.104 33.9527 194.1 36.0873C192.096 38.1572 191.093 41.262 191.093 45.4019C191.029 47.2777 191.158 49.0889 191.481 50.8354C191.869 52.5172 192.58 54.3607 193.615 56.3659C192.71 57.2715 191.643 57.9184 190.415 58.3065C189.186 58.6946 188.087 58.8886 187.117 58.8886ZM199.337 96.7292C197.138 96.7292 195.167 96.3087 193.421 95.4678C191.675 94.6916 190.673 93.6243 190.415 92.2659C191.384 91.8131 192.16 91.1986 192.742 90.4224C193.324 89.5815 193.776 88.5142 194.1 87.2205C194.488 85.8622 194.843 84.1157 195.167 81.9811L201.47 49.477C202.569 43.7201 204.8 39.3538 208.162 36.3784C211.588 33.3382 216.534 31.4947 222.999 30.8478L213.301 82.2721C212.72 85.4417 211.911 88.0938 210.877 90.2284C209.843 92.363 208.42 93.9801 206.61 95.0797C204.8 96.1794 202.375 96.7292 199.337 96.7292Z" fill="#5F0A87"/>
<path d="M275.895 96.5351C272.921 96.5351 270.496 95.7912 268.622 94.3035C266.747 92.7511 265.809 90.3901 265.809 87.2205C265.809 85.7975 266.003 84.0186 266.391 81.884C266.844 79.7494 267.328 77.4855 267.846 75.0921C268.428 72.6988 268.977 70.3055 269.494 67.9121C270.076 65.5188 270.561 63.2872 270.949 61.2173C271.337 59.0827 271.531 57.3039 271.531 55.8808C271.531 54.393 271.24 53.164 270.658 52.1938C270.076 51.1588 269.042 50.6413 267.555 50.6413C265.615 50.6413 263.999 51.4499 262.706 53.067C261.413 54.6841 260.346 56.657 259.506 58.9857C258.73 61.3143 258.116 63.5783 257.663 65.7775L252.135 94.5946L234.776 96.3411L243.601 51.4175L258.827 50.5443C260.766 48.0216 263.158 46.1781 266.003 45.0138C268.848 43.7847 271.919 43.1702 275.216 43.1702C279.224 43.1702 282.425 44.0758 284.817 45.887C287.209 47.6982 288.405 50.609 288.405 54.6194C288.405 56.3012 288.211 58.2418 287.823 60.4411C287.435 62.5757 286.95 64.8073 286.369 67.1359C285.851 69.4646 285.334 71.7609 284.817 74.0248C284.3 76.2241 283.847 78.294 283.459 80.2346C283.071 82.1104 282.877 83.6952 282.877 84.9889C282.877 86.3473 283.168 87.4793 283.75 88.3848C284.397 89.2904 285.496 89.8079 287.047 89.9373C286.336 92.2012 284.882 93.8507 282.683 94.8857C280.55 95.9853 278.287 96.5351 275.895 96.5351ZM258.342 53.8432L243.407 52.4848C243.989 49.7681 244.506 46.9866 244.959 44.1405C245.476 41.2944 245.896 38.4806 246.22 35.6992C246.543 32.9177 246.769 30.395 246.898 28.1311C246.963 27.2902 246.963 26.5139 246.898 25.8024C246.898 25.0909 246.866 24.4117 246.801 23.7648C248.288 22.9239 249.775 22.3418 251.262 22.0184C252.814 21.6302 254.269 21.4362 255.626 21.4362C258.019 21.4362 260.055 22.0507 261.736 23.2797C263.417 24.5087 264.225 26.611 264.161 29.5865C264.161 30.6214 264.064 31.8181 263.87 33.1765C263.676 34.5348 263.385 36.0226 262.997 37.6397C262.609 39.2568 262.156 40.971 261.639 42.7821C261.187 44.5286 260.669 46.3721 260.087 48.3127C259.57 50.1885 258.988 52.0321 258.342 53.8432Z" fill="#5F0A87"/>
<path d="M313.221 96.5351C309.277 96.5351 305.786 95.8236 302.747 94.4005C299.773 92.9775 297.446 90.8105 295.765 87.8997C294.084 84.9242 293.243 81.1402 293.243 76.5476C293.243 72.343 293.825 68.2679 294.989 64.3221C296.217 60.3764 298.06 56.8187 300.517 53.6492C303.038 50.4149 306.238 47.8599 310.118 45.984C313.997 44.1082 318.587 43.1702 323.889 43.1702C326.669 43.1702 329.222 43.526 331.55 44.2375C333.942 44.8844 335.882 46.0811 337.369 47.8275C338.856 49.5093 339.599 51.935 339.599 55.1046C339.599 58.4035 338.629 61.2496 336.69 63.643C334.815 66.0363 332.035 67.9121 328.35 69.2705C324.729 70.6289 320.3 71.4375 315.064 71.6962C314.223 71.6962 313.35 71.6962 312.445 71.6962C311.605 71.6962 310.796 71.6962 310.021 71.6962C309.956 72.4724 309.891 73.281 309.827 74.1219C309.762 74.8981 309.73 75.6096 309.73 76.2565C309.73 79.1026 310.344 81.3342 311.572 82.9513C312.801 84.5038 314.934 85.28 317.973 85.28C320.494 85.28 322.983 84.7302 325.44 83.6305C327.897 82.5309 329.74 80.9138 330.968 78.7792C331.873 79.2967 332.487 79.9435 332.811 80.7197C333.198 81.4312 333.392 82.3045 333.392 83.3394C333.392 85.9268 332.455 88.2231 330.58 90.2284C328.77 92.2336 326.313 93.786 323.21 94.8857C320.171 95.9853 316.841 96.5351 313.221 96.5351ZM310.603 67.33C312.865 67.33 314.902 67.0066 316.712 66.3597C318.587 65.7129 320.203 64.8073 321.561 63.643C322.919 62.4139 323.953 60.9585 324.664 59.2767C325.376 57.5949 325.731 55.7191 325.731 53.6492C325.731 51.9674 325.408 50.6737 324.761 49.7681C324.179 48.7978 323.177 48.3127 321.755 48.3127C320.527 48.3127 319.331 48.7331 318.167 49.574C317.003 50.4149 315.936 51.6439 314.967 53.2611C314.061 54.8782 313.221 56.8834 312.445 59.2767C311.734 61.6054 311.12 64.2898 310.603 67.33Z" fill="#5F0A87"/>
<path d="M378.39 96.5351C373.799 96.5351 370.017 95.5002 367.043 93.4303C364.069 91.2957 361.839 88.3202 360.352 84.5038C358.865 80.6227 358.121 76.1271 358.121 71.017C358.121 66.4244 358.638 62.0258 359.673 57.8213C360.772 53.6168 362.356 49.7681 364.425 46.2751C366.558 42.7175 369.144 39.6126 372.183 36.9605C375.222 34.3084 378.713 32.2709 382.657 30.8478C386.665 29.3601 391.094 28.6162 395.943 28.6162C398.27 28.6162 400.565 28.8426 402.828 29.2954C405.091 29.6835 407.128 30.3627 408.938 31.3329C410.748 32.2385 412.17 33.4675 413.205 35.02C414.304 36.5077 414.853 38.3836 414.853 40.6475C414.853 42.9115 414.304 44.9167 413.205 46.6632C412.106 48.4097 410.651 49.7681 408.841 50.7384C407.031 51.7086 405.059 52.1938 402.925 52.1938C402.279 52.1938 401.535 52.1291 400.695 51.9997C399.854 51.8057 399.143 51.5469 398.561 51.2235C398.82 50.2532 399.046 49.1859 399.24 48.0216C399.434 46.8573 399.531 45.4989 399.531 43.9465C399.531 42.7175 399.369 41.4561 399.046 40.1624C398.723 38.8687 398.141 37.7691 397.3 36.8635C396.46 35.8932 395.167 35.4081 393.421 35.4081C391.352 35.4081 389.445 36.1843 387.7 37.7367C385.954 39.2245 384.402 41.1974 383.045 43.6554C381.687 46.1134 380.523 48.8625 379.553 51.9027C378.584 54.9429 377.84 58.0154 377.323 61.1203C376.87 64.1604 376.644 67.0389 376.644 69.7557C376.644 71.6962 376.773 73.6044 377.032 75.4803C377.355 77.3561 377.872 79.1026 378.584 80.7197C379.295 82.2721 380.264 83.5335 381.493 84.5038C382.786 85.4094 384.467 85.8621 386.536 85.8621C387.506 85.8621 388.54 85.7328 389.639 85.474C390.738 85.2153 391.708 84.8272 392.548 84.3097C393.454 83.7922 394.003 83.1454 394.197 82.3692L394.1 90.7135C392.678 92.0719 391.061 93.1715 389.251 94.0124C387.441 94.8533 385.598 95.4678 383.723 95.8559C381.913 96.3087 380.135 96.5351 378.39 96.5351ZM390.318 114C387.732 114 385.404 113.353 383.335 112.059C381.267 110.83 380.038 108.793 379.65 105.947C380.038 106.011 380.426 106.044 380.814 106.044C381.202 106.108 381.558 106.141 381.881 106.141C383.626 106.141 385.178 105.688 386.536 104.782C387.893 103.877 389.057 102.518 390.027 100.707C390.997 98.9608 391.74 96.8262 392.258 94.3035C392.839 91.7161 393.163 88.773 393.227 85.474L396.719 63.74L413.69 61.9935C412.785 64.1281 411.976 66.5214 411.265 69.1735C410.619 71.8256 410.005 74.6394 409.423 77.6148C408.905 80.5903 408.324 83.7922 407.677 87.2205C407.031 90.9076 406.319 94.3682 405.544 97.6024C404.832 100.837 403.895 103.683 402.731 106.141C401.567 108.599 399.983 110.507 397.979 111.865C396.04 113.288 393.486 114 390.318 114Z" fill="#5F0A87"/>
<path d="M428.068 96.5351C425.094 96.5351 422.669 95.7912 420.794 94.3035C418.984 92.7511 418.079 90.4548 418.079 87.4146C418.079 86.2503 418.176 84.7948 418.37 83.0484C418.628 81.2372 418.919 79.3613 419.242 77.4208C419.63 75.4156 419.986 73.5397 420.309 71.7932C420.697 70.0467 421.02 68.5913 421.279 67.427L425.643 45.1108L443.099 43.3643L435.632 81.2048C435.567 81.7223 435.47 82.3692 435.341 83.1454C435.212 83.9216 435.147 84.6331 435.147 85.28C435.147 86.4443 435.47 87.5116 436.117 88.4819C436.763 89.3875 437.83 89.8726 439.317 89.9373C438.606 92.2012 437.151 93.8507 434.953 94.8857C432.755 95.9853 430.46 96.5351 428.068 96.5351ZM437.086 37.1546C434.306 37.1546 432.011 36.5401 430.201 35.3111C428.391 34.082 427.486 32.3032 427.486 29.9746C427.486 27.5165 428.423 25.673 430.298 24.444C432.238 23.1503 434.597 22.5035 437.377 22.5035C440.093 22.5035 442.323 23.1503 444.069 24.444C445.815 25.673 446.687 27.4519 446.687 29.7805C446.687 32.2385 445.75 34.082 443.875 35.3111C442.065 36.5401 439.802 37.1546 437.086 37.1546Z" fill="#5F0A87"/>
<path d="M445.99 113.03C443.339 113.03 441.141 112.577 439.395 111.671C437.649 110.83 436.453 109.601 435.807 107.984C437.682 107.337 439.298 106.529 440.656 105.559C441.949 104.588 443.112 103.198 444.147 101.386C445.117 99.5753 446.022 97.0849 446.862 93.9154C447.767 90.7458 448.705 86.6707 449.675 81.69L455.784 49.477H448.996L449.869 45.1108H456.657L458.209 38.61C459.373 34.082 461.474 30.6538 464.512 28.3251C467.616 25.9318 470.945 24.7351 474.501 24.7351C477.281 24.7351 479.544 25.1232 481.29 25.8994C483.1 26.611 484.425 27.5489 485.266 28.7132C486.106 29.8775 486.526 31.1389 486.526 32.4973C486.526 34.8259 485.848 36.5724 484.49 37.7367C483.197 38.9011 481.581 39.4832 479.641 39.4832C478.801 39.4832 477.928 39.4185 477.023 39.2892C476.182 39.0951 475.342 38.7717 474.501 38.3189C474.824 37.4133 475.115 36.4107 475.374 35.3111C475.633 34.2114 475.762 33.1765 475.762 32.2062C475.762 31.1712 475.633 30.395 475.374 29.8775C475.115 29.2954 474.663 29.0043 474.016 29.0043C473.046 29.0043 472.271 29.7158 471.689 31.1389C471.172 32.562 470.848 34.3731 470.719 36.5724C470.719 37.4133 470.751 38.3836 470.816 39.4832C470.945 40.5829 471.172 41.6178 471.495 42.5881C471.883 43.5584 472.4 44.3993 473.047 45.1108H482.453L481.871 49.477H472.756L466.355 82.8543C464.997 90.0343 463.478 95.8236 461.797 100.222C460.116 104.685 458.015 107.92 455.493 109.925C452.972 111.995 449.804 113.03 445.99 113.03Z" fill="#5F0A87"/>
<path d="M491.277 96.5351C488.432 96.5351 485.975 95.7589 483.907 94.2065C481.902 92.654 480.9 90.3901 480.9 87.4146C480.9 86.1209 481.062 84.4391 481.385 82.3692C481.708 80.2346 482.064 78.003 482.452 75.6743C482.904 73.3457 483.357 71.114 483.81 68.9794C484.262 66.8448 484.585 65.0984 484.779 63.74L487.689 49.477H481.676L482.064 46.5662C485.684 45.4019 489.305 43.8171 492.926 41.8119C496.611 39.8066 500.102 37.478 503.399 34.8259H507.666L505.436 45.1108H513L512.127 49.477H504.66L498.744 79.9435C498.615 80.8491 498.486 81.7223 498.356 82.5632C498.227 83.3394 498.13 84.1157 498.065 84.8919C498.065 87.0912 498.583 88.5466 499.617 89.2581C500.651 89.9049 502.138 90.002 504.078 89.5492C503.238 91.4897 502.138 92.9775 500.781 94.0124C499.423 94.9827 497.904 95.6295 496.223 95.953C494.606 96.3411 492.958 96.5351 491.277 96.5351Z" fill="#5F0A87"/>
<path d="M78.9585 39.952C78.9591 38.1791 78.6091 36.4235 77.9286 34.7865C77.2481 33.1495 76.2507 31.6634 74.9936 30.4138C72.4214 27.9581 69.0026 26.5879 65.4472 26.5879C61.8918 26.5879 58.473 27.9581 55.9007 30.4138L3.62662 82.7285C1.24075 85.2881 -0.0587319 88.6745 0.00203934 92.174C0.0628106 95.6735 1.47909 99.0127 3.95239 101.488C6.42569 103.963 9.76281 105.381 13.2604 105.442C16.7581 105.504 20.143 104.205 22.7019 101.818L74.9936 49.5034C76.2526 48.2526 77.2513 46.7644 77.9318 45.1249C78.6124 43.4854 78.9613 41.7272 78.9585 39.952ZM16.4727 95.5945C15.5821 96.4438 14.399 96.9176 13.1686 96.9176C11.9383 96.9176 10.7552 96.4438 9.86462 95.5945C8.98978 94.717 8.49849 93.5281 8.49849 92.2887C8.49849 91.0493 8.98978 89.8605 9.86462 88.983L44.0899 54.7354L50.72 61.3689L16.4727 95.5945ZM68.7732 43.2666L56.9316 55.1188L50.3235 48.4853L62.1696 36.6374C62.5919 36.1548 63.1087 35.764 63.6881 35.4894C64.2675 35.2147 64.8971 35.062 65.5378 35.0407C66.1786 35.0194 66.8169 35.13 67.4132 35.3656C68.0096 35.6013 68.5512 35.9569 69.0045 36.4105C69.4579 36.864 69.8133 37.4059 70.0488 38.0026C70.2843 38.5992 70.3948 39.2378 70.3735 39.8789C70.3523 40.5201 70.1996 41.15 69.9251 41.7296C69.6506 42.3093 69.26 42.8265 68.7776 43.249L68.7732 43.2666ZM21.0851 12.5848L27.9134 10.6366L29.8606 3.80468C30.1743 2.70843 30.8362 1.74417 31.7463 1.05773C32.6563 0.371293 33.765 0 34.9047 0C36.0444 0 37.1532 0.371293 38.0632 1.05773C38.9733 1.74417 39.6352 2.70843 39.9489 3.80468L41.8961 10.6366L48.7244 12.5848C49.8201 12.8986 50.7838 13.5609 51.4699 14.4714C52.156 15.382 52.5271 16.4913 52.5271 17.6316C52.5271 18.7719 52.156 19.8811 51.4699 20.7917C50.7838 21.7022 49.8201 22.3645 48.7244 22.6783L41.8961 24.6265L39.9489 31.4584C39.6352 32.5547 38.9733 33.5189 38.0632 34.2054C37.1532 34.8918 36.0444 35.2631 34.9047 35.2631C33.765 35.2631 32.6563 34.8918 31.7463 34.2054C30.8362 33.5189 30.1743 32.5547 29.8606 31.4584L27.9134 24.6265L21.0851 22.6783C19.9894 22.3645 19.0257 21.7022 18.3396 20.7917C17.6535 19.8811 17.2824 18.7719 17.2824 17.6316C17.2824 16.4913 17.6535 15.382 18.3396 14.4714C19.0257 13.5609 19.9894 12.8986 21.0851 12.5848ZM101.589 75.5704L94.7605 77.5186L92.8133 84.3505C92.4997 85.4468 91.8377 86.411 90.9277 87.0975C90.0176 87.7839 88.9089 88.1552 87.7692 88.1552C86.6295 88.1552 85.5208 87.7839 84.6107 87.0975C83.7007 86.411 83.0387 85.4468 82.725 84.3505L80.7779 77.5186L73.9495 75.5704C72.8539 75.2566 71.8901 74.5943 71.204 73.6838C70.518 72.7732 70.1469 71.6639 70.1469 70.5236C70.1469 69.3833 70.518 68.274 71.204 67.3635C71.8901 66.453 72.8539 65.7907 73.9495 65.4769L80.7779 63.5287L82.725 56.6968C83.0387 55.6005 83.7007 54.6363 84.6107 53.9498C85.5208 53.2634 86.6295 52.8921 87.7692 52.8921C88.9089 52.8921 90.0176 53.2634 90.9277 53.9498C91.8377 54.6363 92.4997 55.6005 92.8133 56.6968L94.7605 63.5287L101.589 65.4769C102.685 65.7907 103.648 66.453 104.334 67.3635C105.02 68.274 105.392 69.3833 105.392 70.5236C105.392 71.6639 105.02 72.7732 104.334 73.6838C103.648 74.5943 102.685 75.2566 101.589 75.5704ZM77.8791 11.02L83.8528 9.31427L85.5665 3.32865C85.8454 2.37579 86.4254 1.53901 87.2197 0.943718C88.0139 0.348423 88.9795 0.0266668 89.9719 0.0266668C90.9642 0.0266668 91.9299 0.348423 92.7241 0.943718C93.5183 1.53901 94.0983 2.37579 94.3773 3.32865L96.0821 9.30546L102.056 11.0112C103.008 11.2903 103.845 11.8706 104.439 12.6652C105.034 13.4599 105.356 14.426 105.356 15.4189C105.356 16.4118 105.034 17.3779 104.439 18.1726C103.845 18.9672 103.008 19.5475 102.056 19.8266L96.0821 21.5323L94.3773 27.5224C94.0983 28.4752 93.5183 29.312 92.7241 29.9073C91.9299 30.5026 90.9642 30.8244 89.9719 30.8244C88.9795 30.8244 88.0139 30.5026 87.2197 29.9073C86.4254 29.312 85.8454 28.4752 85.5665 27.5224L83.8616 21.55L77.8791 19.8354C76.9268 19.5563 76.0904 18.976 75.4954 18.1814C74.9005 17.3867 74.5789 16.4206 74.5789 15.4277C74.5789 14.4348 74.9005 13.4687 75.4954 12.6741C76.0904 11.8794 76.9268 11.2991 77.8791 11.02Z" fill="#5F0A87"/>
</svg>
