<svg width="268" height="67" viewBox="0 0 268 67" fill="none" xmlns="http://www.w3.org/2000/svg">
<path d="M70.9878 35.28C69.8678 35.28 68.9345 35.04 68.1878 34.56C67.4411 34.0533 66.8811 33.3867 66.5078 32.56C66.1345 31.7333 65.9611 30.8267 65.9878 29.84C65.9878 28.5867 66.3078 27.3467 66.9478 26.12C67.6145 24.8933 68.6411 23.88 70.0278 23.08C71.4411 22.2533 73.2278 21.84 75.3878 21.84C76.9878 21.84 78.4811 21.96 79.8678 22.2C81.2811 22.4133 82.6278 22.64 83.9078 22.88C85.1878 23.12 86.4545 23.24 87.7078 23.24C88.8011 23.24 89.8145 23.1067 90.7478 22.84C91.6811 22.5733 92.5345 22.0667 93.3078 21.32C93.7878 21.64 94.1478 22.0933 94.3878 22.68C94.6278 23.24 94.7478 23.8533 94.7478 24.52C94.7478 25.24 94.5745 25.96 94.2278 26.68C93.9078 27.4 93.3878 28 92.6678 28.48C91.9745 28.9333 91.0811 29.16 89.9878 29.16C88.6011 29.16 87.3345 28.96 86.1878 28.56C85.0411 28.1333 83.9878 27.64 83.0278 27.08C82.0945 26.4933 81.2145 25.9467 80.3878 25.44L80.3078 25.08C79.7211 24.84 79.1878 24.6933 78.7078 24.64C78.2278 24.5867 77.7211 24.56 77.1878 24.56C75.8011 24.56 74.6945 25 73.8678 25.88C73.0411 26.7333 72.6278 28.0133 72.6278 29.72C72.6011 30.4933 72.6545 31.24 72.7878 31.96C72.9478 32.6533 73.2411 33.4133 73.6678 34.24C73.2945 34.6133 72.8545 34.88 72.3478 35.04C71.8411 35.2 71.3878 35.28 70.9878 35.28ZM76.0278 50.88C75.1211 50.88 74.3078 50.7067 73.5878 50.36C72.8678 50.04 72.4545 49.6 72.3478 49.04C72.7478 48.8533 73.0678 48.6 73.3078 48.28C73.5478 47.9333 73.7345 47.4933 73.8678 46.96C74.0278 46.4 74.1745 45.68 74.3078 44.8L76.9078 31.4C77.3611 29.0267 78.2811 27.2267 79.6678 26C81.0811 24.7467 83.1211 23.9867 85.7878 23.72L81.7878 44.92C81.5478 46.2267 81.2145 47.32 80.7878 48.2C80.3611 49.08 79.7745 49.7467 79.0278 50.2C78.2811 50.6533 77.2811 50.88 76.0278 50.88ZM107.605 50.8C106.379 50.8 105.379 50.4933 104.605 49.88C103.832 49.24 103.445 48.2667 103.445 46.96C103.445 46.3733 103.525 45.64 103.685 44.76C103.872 43.88 104.072 42.9467 104.285 41.96C104.525 40.9733 104.752 39.9867 104.965 39C105.205 38.0133 105.405 37.0933 105.565 36.24C105.725 35.36 105.805 34.6267 105.805 34.04C105.805 33.4267 105.685 32.92 105.445 32.52C105.205 32.0933 104.779 31.88 104.165 31.88C103.365 31.88 102.699 32.2133 102.165 32.88C101.632 33.5467 101.192 34.36 100.845 35.32C100.525 36.28 100.272 37.2133 100.085 38.12L97.8053 50L90.6453 50.72L94.2853 32.2L100.565 31.84C101.365 30.8 102.352 30.04 103.525 29.56C104.699 29.0533 105.965 28.8 107.325 28.8C108.979 28.8 110.299 29.1733 111.285 29.92C112.272 30.6667 112.765 31.8667 112.765 33.52C112.765 34.2133 112.685 35.0133 112.525 35.92C112.365 36.8 112.165 37.72 111.925 38.68C111.712 39.64 111.499 40.5867 111.285 41.52C111.072 42.4267 110.885 43.28 110.725 44.08C110.565 44.8533 110.485 45.5067 110.485 46.04C110.485 46.6 110.605 47.0667 110.845 47.44C111.112 47.8133 111.565 48.0267 112.205 48.08C111.912 49.0133 111.312 49.6933 110.405 50.12C109.525 50.5733 108.592 50.8 107.605 50.8ZM100.365 33.2L94.2053 32.64C94.4453 31.52 94.6586 30.3733 94.8453 29.2C95.0586 28.0267 95.232 26.8667 95.3653 25.72C95.4986 24.5733 95.592 23.5333 95.6453 22.6C95.672 22.2533 95.672 21.9333 95.6453 21.64C95.6453 21.3467 95.632 21.0667 95.6053 20.8C96.2186 20.4533 96.832 20.2133 97.4453 20.08C98.0853 19.92 98.6853 19.84 99.2453 19.84C100.232 19.84 101.072 20.0933 101.765 20.6C102.459 21.1067 102.792 21.9733 102.765 23.2C102.765 23.6267 102.725 24.12 102.645 24.68C102.565 25.24 102.445 25.8533 102.285 26.52C102.125 27.1867 101.939 27.8933 101.725 28.64C101.539 29.36 101.325 30.12 101.085 30.92C100.872 31.6933 100.632 32.4533 100.365 33.2ZM123.001 50.8C121.374 50.8 119.934 50.5067 118.681 49.92C117.454 49.3333 116.494 48.44 115.801 47.24C115.108 46.0133 114.761 44.4533 114.761 42.56C114.761 40.8267 115.001 39.1467 115.481 37.52C115.988 35.8933 116.748 34.4267 117.761 33.12C118.801 31.7867 120.121 30.7333 121.721 29.96C123.321 29.1867 125.214 28.8 127.401 28.8C128.548 28.8 129.601 28.9467 130.561 29.24C131.548 29.5067 132.348 30 132.961 30.72C133.574 31.4133 133.881 32.4133 133.881 33.72C133.881 35.08 133.481 36.2533 132.681 37.24C131.908 38.2267 130.761 39 129.241 39.56C127.748 40.12 125.921 40.4533 123.761 40.56C123.414 40.56 123.054 40.56 122.681 40.56C122.334 40.56 122.001 40.56 121.681 40.56C121.654 40.88 121.628 41.2133 121.601 41.56C121.574 41.88 121.561 42.1733 121.561 42.44C121.561 43.6133 121.814 44.5333 122.321 45.2C122.828 45.84 123.708 46.16 124.961 46.16C126.001 46.16 127.028 45.9333 128.041 45.48C129.054 45.0267 129.814 44.36 130.321 43.48C130.694 43.6933 130.948 43.96 131.081 44.28C131.241 44.5733 131.321 44.9333 131.321 45.36C131.321 46.4267 130.934 47.3733 130.161 48.2C129.414 49.0267 128.401 49.6667 127.121 50.12C125.868 50.5733 124.494 50.8 123.001 50.8ZM121.921 38.76C122.854 38.76 123.694 38.6267 124.441 38.36C125.214 38.0933 125.881 37.72 126.441 37.24C127.001 36.7333 127.428 36.1333 127.721 35.44C128.014 34.7467 128.161 33.9733 128.161 33.12C128.161 32.4267 128.028 31.8933 127.761 31.52C127.521 31.12 127.108 30.92 126.521 30.92C126.014 30.92 125.521 31.0933 125.041 31.44C124.561 31.7867 124.121 32.2933 123.721 32.96C123.348 33.6267 123.001 34.4533 122.681 35.44C122.388 36.4 122.134 37.5067 121.921 38.76ZM149.881 50.8C147.987 50.8 146.427 50.3733 145.201 49.52C143.974 48.64 143.054 47.4133 142.441 45.84C141.827 44.24 141.521 42.3867 141.521 40.28C141.521 38.3867 141.734 36.5733 142.161 34.84C142.614 33.1067 143.267 31.52 144.121 30.08C145.001 28.6133 146.067 27.3333 147.321 26.24C148.574 25.1467 150.014 24.3067 151.641 23.72C153.294 23.1067 155.121 22.8 157.121 22.8C158.081 22.8 159.027 22.8933 159.961 23.08C160.894 23.24 161.734 23.52 162.481 23.92C163.227 24.2933 163.814 24.8 164.241 25.44C164.694 26.0533 164.921 26.8267 164.921 27.76C164.921 28.6933 164.694 29.52 164.241 30.24C163.787 30.96 163.187 31.52 162.441 31.92C161.694 32.32 160.881 32.52 160.001 32.52C159.734 32.52 159.427 32.4933 159.081 32.44C158.734 32.36 158.441 32.2533 158.201 32.12C158.307 31.72 158.401 31.28 158.481 30.8C158.561 30.32 158.601 29.76 158.601 29.12C158.601 28.6133 158.534 28.0933 158.401 27.56C158.267 27.0267 158.027 26.5733 157.681 26.2C157.334 25.8 156.801 25.6 156.081 25.6C155.227 25.6 154.441 25.92 153.721 26.56C153.001 27.1733 152.361 27.9867 151.801 29C151.241 30.0133 150.761 31.1467 150.361 32.4C149.961 33.6533 149.654 34.92 149.441 36.2C149.254 37.4533 149.161 38.64 149.161 39.76C149.161 40.56 149.214 41.3467 149.321 42.12C149.454 42.8933 149.667 43.6133 149.961 44.28C150.254 44.92 150.654 45.44 151.161 45.84C151.694 46.2133 152.387 46.4 153.241 46.4C153.641 46.4 154.067 46.3467 154.521 46.24C154.974 46.1333 155.374 45.9733 155.721 45.76C156.094 45.5467 156.321 45.28 156.401 44.96L156.361 48.4C155.774 48.96 155.107 49.4133 154.361 49.76C153.614 50.1067 152.854 50.36 152.081 50.52C151.334 50.7067 150.601 50.8 149.881 50.8ZM154.801 58C153.734 58 152.774 57.7333 151.921 57.2C151.067 56.6933 150.561 55.8533 150.401 54.68C150.561 54.7067 150.721 54.72 150.881 54.72C151.041 54.7467 151.187 54.76 151.321 54.76C152.041 54.76 152.681 54.5733 153.241 54.2C153.801 53.8267 154.281 53.2667 154.681 52.52C155.081 51.8 155.387 50.92 155.601 49.88C155.841 48.8133 155.974 47.6 156.001 46.24L157.441 37.28L164.441 36.56C164.067 37.44 163.734 38.4267 163.441 39.52C163.174 40.6133 162.921 41.7733 162.681 43C162.467 44.2267 162.227 45.5467 161.961 46.96C161.694 48.48 161.401 49.9067 161.081 51.24C160.787 52.5733 160.401 53.7467 159.921 54.76C159.441 55.7733 158.787 56.56 157.961 57.12C157.161 57.7067 156.107 58 154.801 58ZM170.371 50.8C169.144 50.8 168.144 50.4933 167.371 49.88C166.624 49.24 166.251 48.2933 166.251 47.04C166.251 46.56 166.291 45.96 166.371 45.24C166.478 44.4933 166.598 43.72 166.731 42.92C166.891 42.0933 167.038 41.32 167.171 40.6C167.331 39.88 167.464 39.28 167.571 38.8L169.371 29.6L176.571 28.88L173.491 44.48C173.464 44.6933 173.424 44.96 173.371 45.28C173.318 45.6 173.291 45.8933 173.291 46.16C173.291 46.64 173.424 47.08 173.691 47.48C173.958 47.8533 174.398 48.0533 175.011 48.08C174.718 49.0133 174.118 49.6933 173.211 50.12C172.304 50.5733 171.358 50.8 170.371 50.8ZM174.091 26.32C172.944 26.32 171.998 26.0667 171.251 25.56C170.504 25.0533 170.131 24.32 170.131 23.36C170.131 22.3467 170.518 21.5867 171.291 21.08C172.091 20.5467 173.064 20.28 174.211 20.28C175.331 20.28 176.251 20.5467 176.971 21.08C177.691 21.5867 178.051 22.32 178.051 23.28C178.051 24.2933 177.664 25.0533 176.891 25.56C176.144 26.0667 175.211 26.32 174.091 26.32ZM177.763 57.6C176.67 57.6 175.763 57.4133 175.043 57.04C174.323 56.6933 173.83 56.1867 173.563 55.52C174.336 55.2533 175.003 54.92 175.563 54.52C176.096 54.12 176.576 53.5467 177.003 52.8C177.403 52.0533 177.776 51.0267 178.123 49.72C178.496 48.4133 178.883 46.7333 179.283 44.68L181.803 31.4H179.003L179.363 29.6H182.163L182.803 26.92C183.283 25.0533 184.15 23.64 185.403 22.68C186.683 21.6933 188.056 21.2 189.523 21.2C190.67 21.2 191.603 21.36 192.323 21.68C193.07 21.9733 193.616 22.36 193.963 22.84C194.31 23.32 194.483 23.84 194.483 24.4C194.483 25.36 194.203 26.08 193.643 26.56C193.11 27.04 192.443 27.28 191.643 27.28C191.296 27.28 190.936 27.2533 190.563 27.2C190.216 27.12 189.87 26.9867 189.523 26.8C189.656 26.4267 189.776 26.0133 189.883 25.56C189.99 25.1067 190.043 24.68 190.043 24.28C190.043 23.8533 189.99 23.5333 189.883 23.32C189.776 23.08 189.59 22.96 189.323 22.96C188.923 22.96 188.603 23.2533 188.363 23.84C188.15 24.4267 188.016 25.1733 187.963 26.08C187.963 26.4267 187.976 26.8267 188.003 27.28C188.056 27.7333 188.15 28.16 188.283 28.56C188.443 28.96 188.656 29.3067 188.923 29.6H192.803L192.563 31.4H188.803L186.163 45.16C185.603 48.12 184.976 50.5067 184.283 52.32C183.59 54.16 182.723 55.4933 181.683 56.32C180.643 57.1733 179.336 57.6 177.763 57.6ZM196.442 50.8C195.269 50.8 194.256 50.48 193.403 49.84C192.576 49.2 192.163 48.2667 192.163 47.04C192.163 46.5067 192.229 45.8133 192.363 44.96C192.496 44.08 192.643 43.16 192.803 42.2C192.989 41.24 193.176 40.32 193.363 39.44C193.549 38.56 193.683 37.84 193.763 37.28L194.963 31.4H192.483L192.643 30.2C194.136 29.72 195.629 29.0667 197.123 28.24C198.643 27.4133 200.083 26.4533 201.443 25.36H203.203L202.283 29.6H205.403L205.043 31.4H201.963L199.523 43.96C199.469 44.3333 199.416 44.6933 199.363 45.04C199.309 45.36 199.269 45.68 199.243 46C199.243 46.9067 199.456 47.5067 199.883 47.8C200.309 48.0667 200.923 48.1067 201.723 47.92C201.376 48.72 200.923 49.3333 200.363 49.76C199.803 50.16 199.176 50.4267 198.483 50.56C197.816 50.72 197.136 50.8 196.442 50.8Z" fill="#E8E9EB"/>
<path d="M34.9677 28.1557C34.9679 27.4831 34.8351 26.8171 34.5768 26.1961C34.3185 25.5752 33.94 25.0114 33.4629 24.5374C32.4866 23.6058 31.189 23.086 29.8396 23.086C28.4902 23.086 27.1927 23.6058 26.2164 24.5374L6.37644 44.3828C5.47091 45.3537 4.97771 46.6384 5.00077 47.9659C5.02384 49.2934 5.56137 50.5601 6.50008 51.4991C7.43879 52.438 8.70535 52.9758 10.0328 52.9992C11.3603 53.0226 12.645 52.5297 13.6162 51.6243L33.4629 31.779C33.9407 31.3044 34.3197 30.7399 34.578 30.118C34.8363 29.496 34.9688 28.8291 34.9677 28.1557ZM11.252 49.2634C10.914 49.5856 10.4649 49.7654 9.99799 49.7654C9.53103 49.7654 9.08199 49.5856 8.74399 49.2634C8.41196 48.9305 8.22549 48.4796 8.22549 48.0094C8.22549 47.5392 8.41196 47.0883 8.74399 46.7554L21.7338 33.7637L24.2501 36.2801L11.252 49.2634ZM31.102 29.413L26.6077 33.9091L24.0997 31.3927L28.5957 26.8983C28.7559 26.7152 28.9521 26.567 29.172 26.4628C29.3919 26.3586 29.6308 26.3006 29.874 26.2926C30.1172 26.2845 30.3595 26.3265 30.5858 26.4158C30.8122 26.5052 31.0177 26.6401 31.1898 26.8122C31.3618 26.9842 31.4967 27.1898 31.5861 27.4161C31.6755 27.6425 31.7174 27.8847 31.7094 28.1279C31.7013 28.3711 31.6434 28.6101 31.5392 28.83C31.435 29.0499 31.2868 29.2461 31.1037 29.4063L31.102 29.413ZM13.0026 17.774L15.5942 17.0349L16.3332 14.4433C16.4523 14.0274 16.7035 13.6616 17.0489 13.4012C17.3943 13.1408 17.8151 13 18.2476 13C18.6802 13 19.101 13.1408 19.4464 13.4012C19.7918 13.6616 20.043 14.0274 20.1621 14.4433L20.9011 17.0349L23.4927 17.774C23.9086 17.893 24.2743 18.1443 24.5347 18.4897C24.7951 18.8351 24.936 19.2559 24.936 19.6885C24.936 20.121 24.7951 20.5418 24.5347 20.8873C24.2743 21.2327 23.9086 21.4839 23.4927 21.6029L20.9011 22.342L20.1621 24.9336C20.043 25.3495 19.7918 25.7153 19.4464 25.9757C19.101 26.2361 18.6802 26.3769 18.2476 26.3769C17.8151 26.3769 17.3943 26.2361 17.0489 25.9757C16.7035 25.7153 16.4523 25.3495 16.3332 24.9336L15.5942 22.342L13.0026 21.6029C12.5867 21.4839 12.2209 21.2327 11.9606 20.8873C11.7002 20.5418 11.5593 20.121 11.5593 19.6885C11.5593 19.2559 11.7002 18.8351 11.9606 18.4897C12.2209 18.1443 12.5867 17.893 13.0026 17.774ZM43.5567 41.6674L40.9651 42.4064L40.2261 44.9981C40.1071 45.4139 39.8558 45.7797 39.5104 46.0401C39.165 46.3005 38.7442 46.4414 38.3117 46.4414C37.8791 46.4414 37.4583 46.3005 37.1129 46.0401C36.7675 45.7797 36.5163 45.4139 36.3972 44.9981L35.6582 42.4064L33.0666 41.6674C32.6507 41.5483 32.285 41.2971 32.0246 40.9517C31.7642 40.6063 31.6233 40.1855 31.6233 39.7529C31.6233 39.3203 31.7642 38.8995 32.0246 38.5541C32.285 38.2087 32.6507 37.9575 33.0666 37.8384L35.6582 37.0994L36.3972 34.5077C36.5163 34.0919 36.7675 33.7261 37.1129 33.4657C37.4583 33.2053 37.8791 33.0644 38.3117 33.0644C38.7442 33.0644 39.165 33.2053 39.5104 33.4657C39.8558 33.7261 40.1071 34.0919 40.2261 34.5077L40.9651 37.0994L43.5567 37.8384C43.9726 37.9575 44.3384 38.2087 44.5988 38.5541C44.8592 38.8995 45 39.3203 45 39.7529C45 40.1855 44.8592 40.6063 44.5988 40.9517C44.3384 41.2971 43.9726 41.5483 43.5567 41.6674ZM34.558 17.1804L36.8253 16.5333L37.4757 14.2627C37.5815 13.9012 37.8017 13.5838 38.1031 13.358C38.4045 13.1322 38.771 13.0101 39.1477 13.0101C39.5243 13.0101 39.8908 13.1322 40.1922 13.358C40.4937 13.5838 40.7138 13.9012 40.8197 14.2627L41.4667 16.53L43.734 17.1771C44.0954 17.2829 44.4128 17.5031 44.6387 17.8045C44.8645 18.106 44.9865 18.4725 44.9865 18.8491C44.9865 19.2258 44.8645 19.5923 44.6387 19.8937C44.4128 20.1951 44.0954 20.4153 43.734 20.5211L41.4667 21.1682L40.8197 23.4405C40.7138 23.802 40.4937 24.1194 40.1922 24.3452C39.8908 24.5711 39.5243 24.6931 39.1477 24.6931C38.771 24.6931 38.4045 24.5711 38.1031 24.3452C37.8017 24.1194 37.5815 23.802 37.4757 23.4405L36.8286 21.1749L34.558 20.5245C34.1966 20.4186 33.8791 20.1985 33.6533 19.897C33.4275 19.5956 33.3055 19.2291 33.3055 18.8525C33.3055 18.4758 33.4275 18.1093 33.6533 17.8079C33.8791 17.5064 34.1966 17.2863 34.558 17.1804Z" fill="#E8E9EB"/>
</svg>
