<svg width="14" height="12" viewBox="0 0 14 12" fill="none" xmlns="http://www.w3.org/2000/svg">
<path d="M12.7987 1.12582C12.009 0.401936 10.9739 0 9.89948 0C8.82504 0 7.78997 0.401936 7.00028 1.12582C6.20982 0.403036 5.17481 0.00185103 4.10054 0.00185103C3.02628 0.00185103 1.99125 0.403036 1.20079 1.12582C0.82226 1.47179 0.520104 1.89202 0.313416 2.35996C0.106728 2.8279 0 3.33336 0 3.84437C0 4.35539 0.106728 4.86084 0.313416 5.32878C0.520104 5.79671 0.82226 6.21695 1.20079 6.56291L7.00028 12L12.7987 6.56291C13.1774 6.21704 13.4797 5.79683 13.6865 5.32888C13.8932 4.86093 14 4.35544 14 3.84437C14 3.33331 13.8932 2.82781 13.6865 2.35986C13.4797 1.89191 13.1774 1.4717 12.7987 1.12582Z" fill="#CC1A76"/>
</svg>
