<svg width="138" height="138" viewBox="0 0 138 138" fill="none" xmlns="http://www.w3.org/2000/svg">
<g filter="url(#filter0_d_2_145)">
<g filter="url(#filter1_d_2_145)">
<circle cx="68.8373" cy="68.8373" r="56.8373" fill="#D9D9D9"/>
</g>
<path d="M105.676 41.5147C100.669 36.9252 94.107 34.3769 87.2949 34.3769C80.4828 34.3769 73.9204 36.9252 68.9136 41.5147C63.902 36.9322 57.3399 34.3886 50.529 34.3886C43.718 34.3886 37.1558 36.9322 32.1442 41.5147C29.7443 43.7082 27.8286 46.3725 26.5181 49.3393C25.2077 52.306 24.5311 55.5107 24.5311 58.7506C24.5311 61.9905 25.2077 65.1951 26.5181 68.1619C27.8286 71.1287 29.7443 73.793 32.1442 75.9865L68.9136 110.458L105.676 75.9865C108.077 73.7936 109.994 71.1294 111.305 68.1626C112.616 65.1957 113.293 61.9908 113.293 58.7506C113.293 55.5104 112.616 52.3055 111.305 49.3386C109.994 46.3718 108.077 43.7076 105.676 41.5147Z" fill="#CC1A76"/>
</g>
<defs>
<filter id="filter0_d_2_145" x="0" y="0" width="137.674" height="137.674" filterUnits="userSpaceOnUse" color-interpolation-filters="sRGB">
<feFlood flood-opacity="0" result="BackgroundImageFix"/>
<feColorMatrix in="SourceAlpha" type="matrix" values="0 0 0 0 0 0 0 0 0 0 0 0 0 0 0 0 0 0 127 0" result="hardAlpha"/>
<feOffset/>
<feGaussianBlur stdDeviation="6"/>
<feComposite in2="hardAlpha" operator="out"/>
<feColorMatrix type="matrix" values="0 0 0 0 0 0 0 0 0 0 0 0 0 0 0 0 0 0 0.25 0"/>
<feBlend mode="normal" in2="BackgroundImageFix" result="effect1_dropShadow_2_145"/>
<feBlend mode="normal" in="SourceGraphic" in2="effect1_dropShadow_2_145" result="shape"/>
</filter>
<filter id="filter1_d_2_145" x="12" y="12" width="113.674" height="113.674" filterUnits="userSpaceOnUse" color-interpolation-filters="sRGB">
<feFlood flood-opacity="0" result="BackgroundImageFix"/>
<feColorMatrix in="SourceAlpha" type="matrix" values="0 0 0 0 0 0 0 0 0 0 0 0 0 0 0 0 0 0 127 0" result="hardAlpha"/>
<feOffset/>
<feComposite in2="hardAlpha" operator="out"/>
<feColorMatrix type="matrix" values="0 0 0 0 0 0 0 0 0 0 0 0 0 0 0 0 0 0 0.25 0"/>
<feBlend mode="normal" in2="BackgroundImageFix" result="effect1_dropShadow_2_145"/>
<feBlend mode="normal" in="SourceGraphic" in2="effect1_dropShadow_2_145" result="shape"/>
</filter>
</defs>
</svg>
